<?xml version="1.0" encoding="utf-8" standalone="no"?>
<!DOCTYPE svg PUBLIC "-//W3C//DTD SVG 1.1//EN"
  "http://www.w3.org/Graphics/SVG/1.1/DTD/svg11.dtd">
<svg xmlns:xlink="http://www.w3.org/1999/xlink" width="720pt" height="432pt" viewBox="0 0 720 432" xmlns="http://www.w3.org/2000/svg" version="1.1">
 <metadata>
  <rdf:RDF xmlns:dc="http://purl.org/dc/elements/1.1/" xmlns:cc="http://creativecommons.org/ns#" xmlns:rdf="http://www.w3.org/1999/02/22-rdf-syntax-ns#">
   <cc:Work>
    <dc:type rdf:resource="http://purl.org/dc/dcmitype/StillImage"/>
    <dc:date>2023-11-24T18:30:03.367240</dc:date>
    <dc:format>image/svg+xml</dc:format>
    <dc:creator>
     <cc:Agent>
      <dc:title>Matplotlib v3.8.0, https://matplotlib.org/</dc:title>
     </cc:Agent>
    </dc:creator>
   </cc:Work>
  </rdf:RDF>
 </metadata>
 <defs>
  <style type="text/css">*{stroke-linejoin: round; stroke-linecap: butt}</style>
 </defs>
 <g id="figure_1">
  <g id="patch_1">
   <path d="M 0 432 
L 720 432 
L 720 0 
L 0 0 
z
" style="fill: #ffffff"/>
  </g>
  <g id="axes_1">
   <g id="patch_2">
    <path d="M 90 384.48 
L 648 384.48 
L 648 51.84 
L 90 51.84 
z
" style="fill: #eaeaf2"/>
   </g>
   <g id="matplotlib.axis_1">
    <g id="xtick_1">
     <g id="line2d_1">
      <path d="M 134.151515 384.48 
L 134.151515 51.84 
" clip-path="url(#pd32d0c52d3)" style="fill: none; stroke: #ffffff; stroke-linecap: round"/>
     </g>
     <g id="text_1">
      <!-- ARIEGE -->
      <g style="fill: #262626" transform="translate(103.21261 428.940464) rotate(-45) scale(0.11 -0.11)">
       <defs>
        <path id="ArialMT-41" d="M -9 0 
L 1750 4581 
L 2403 4581 
L 4278 0 
L 3588 0 
L 3053 1388 
L 1138 1388 
L 634 0 
L -9 0 
z
M 1313 1881 
L 2866 1881 
L 2388 3150 
Q 2169 3728 2063 4100 
Q 1975 3659 1816 3225 
L 1313 1881 
z
" transform="scale(0.015625)"/>
        <path id="ArialMT-52" d="M 503 0 
L 503 4581 
L 2534 4581 
Q 3147 4581 3465 4457 
Q 3784 4334 3975 4021 
Q 4166 3709 4166 3331 
Q 4166 2844 3850 2509 
Q 3534 2175 2875 2084 
Q 3116 1969 3241 1856 
Q 3506 1613 3744 1247 
L 4541 0 
L 3778 0 
L 3172 953 
Q 2906 1366 2734 1584 
Q 2563 1803 2427 1890 
Q 2291 1978 2150 2013 
Q 2047 2034 1813 2034 
L 1109 2034 
L 1109 0 
L 503 0 
z
M 1109 2559 
L 2413 2559 
Q 2828 2559 3062 2645 
Q 3297 2731 3419 2920 
Q 3541 3109 3541 3331 
Q 3541 3656 3305 3865 
Q 3069 4075 2559 4075 
L 1109 4075 
L 1109 2559 
z
" transform="scale(0.015625)"/>
        <path id="ArialMT-49" d="M 597 0 
L 597 4581 
L 1203 4581 
L 1203 0 
L 597 0 
z
" transform="scale(0.015625)"/>
        <path id="ArialMT-45" d="M 506 0 
L 506 4581 
L 3819 4581 
L 3819 4041 
L 1113 4041 
L 1113 2638 
L 3647 2638 
L 3647 2100 
L 1113 2100 
L 1113 541 
L 3925 541 
L 3925 0 
L 506 0 
z
" transform="scale(0.015625)"/>
        <path id="ArialMT-47" d="M 2638 1797 
L 2638 2334 
L 4578 2338 
L 4578 638 
Q 4131 281 3656 101 
Q 3181 -78 2681 -78 
Q 2006 -78 1454 211 
Q 903 500 622 1047 
Q 341 1594 341 2269 
Q 341 2938 620 3517 
Q 900 4097 1425 4378 
Q 1950 4659 2634 4659 
Q 3131 4659 3532 4498 
Q 3934 4338 4162 4050 
Q 4391 3763 4509 3300 
L 3963 3150 
Q 3859 3500 3706 3700 
Q 3553 3900 3268 4020 
Q 2984 4141 2638 4141 
Q 2222 4141 1919 4014 
Q 1616 3888 1430 3681 
Q 1244 3475 1141 3228 
Q 966 2803 966 2306 
Q 966 1694 1177 1281 
Q 1388 869 1791 669 
Q 2194 469 2647 469 
Q 3041 469 3416 620 
Q 3791 772 3984 944 
L 3984 1797 
L 2638 1797 
z
" transform="scale(0.015625)"/>
       </defs>
       <use xlink:href="#ArialMT-41"/>
       <use xlink:href="#ArialMT-52" x="66.699219"/>
       <use xlink:href="#ArialMT-49" x="138.916016"/>
       <use xlink:href="#ArialMT-45" x="166.699219"/>
       <use xlink:href="#ArialMT-47" x="233.398438"/>
       <use xlink:href="#ArialMT-45" x="311.181641"/>
      </g>
     </g>
    </g>
    <g id="xtick_2">
     <g id="line2d_2">
      <path d="M 181.121212 384.48 
L 181.121212 51.84 
" clip-path="url(#pd32d0c52d3)" style="fill: none; stroke: #ffffff; stroke-linecap: round"/>
     </g>
     <g id="text_2">
      <!-- AVEYRON -->
      <g style="fill: #262626" transform="translate(142.111236 437.011536) rotate(-45) scale(0.11 -0.11)">
       <defs>
        <path id="ArialMT-56" d="M 1803 0 
L 28 4581 
L 684 4581 
L 1875 1253 
Q 2019 853 2116 503 
Q 2222 878 2363 1253 
L 3600 4581 
L 4219 4581 
L 2425 0 
L 1803 0 
z
" transform="scale(0.015625)"/>
        <path id="ArialMT-59" d="M 1784 0 
L 1784 1941 
L 19 4581 
L 756 4581 
L 1659 3200 
Q 1909 2813 2125 2425 
Q 2331 2784 2625 3234 
L 3513 4581 
L 4219 4581 
L 2391 1941 
L 2391 0 
L 1784 0 
z
" transform="scale(0.015625)"/>
        <path id="ArialMT-4f" d="M 309 2231 
Q 309 3372 921 4017 
Q 1534 4663 2503 4663 
Q 3138 4663 3647 4359 
Q 4156 4056 4423 3514 
Q 4691 2972 4691 2284 
Q 4691 1588 4409 1038 
Q 4128 488 3612 205 
Q 3097 -78 2500 -78 
Q 1853 -78 1343 234 
Q 834 547 571 1087 
Q 309 1628 309 2231 
z
M 934 2222 
Q 934 1394 1379 917 
Q 1825 441 2497 441 
Q 3181 441 3623 922 
Q 4066 1403 4066 2288 
Q 4066 2847 3877 3264 
Q 3688 3681 3323 3911 
Q 2959 4141 2506 4141 
Q 1863 4141 1398 3698 
Q 934 3256 934 2222 
z
" transform="scale(0.015625)"/>
        <path id="ArialMT-4e" d="M 488 0 
L 488 4581 
L 1109 4581 
L 3516 984 
L 3516 4581 
L 4097 4581 
L 4097 0 
L 3475 0 
L 1069 3600 
L 1069 0 
L 488 0 
z
" transform="scale(0.015625)"/>
       </defs>
       <use xlink:href="#ArialMT-41"/>
       <use xlink:href="#ArialMT-56" x="59.324219"/>
       <use xlink:href="#ArialMT-45" x="126.023438"/>
       <use xlink:href="#ArialMT-59" x="192.722656"/>
       <use xlink:href="#ArialMT-52" x="259.421875"/>
       <use xlink:href="#ArialMT-4f" x="331.638672"/>
       <use xlink:href="#ArialMT-4e" x="409.421875"/>
      </g>
     </g>
    </g>
    <g id="xtick_3">
     <g id="line2d_3">
      <path d="M 228.090909 384.48 
L 228.090909 51.84 
" clip-path="url(#pd32d0c52d3)" style="fill: none; stroke: #ffffff; stroke-linecap: round"/>
     </g>
     <g id="text_3">
      <!-- GARD -->
      <g style="fill: #262626" transform="translate(204.072149 422.020319) rotate(-45) scale(0.11 -0.11)">
       <defs>
        <path id="ArialMT-44" d="M 494 0 
L 494 4581 
L 2072 4581 
Q 2606 4581 2888 4516 
Q 3281 4425 3559 4188 
Q 3922 3881 4101 3404 
Q 4281 2928 4281 2316 
Q 4281 1794 4159 1391 
Q 4038 988 3847 723 
Q 3656 459 3429 307 
Q 3203 156 2883 78 
Q 2563 0 2147 0 
L 494 0 
z
M 1100 541 
L 2078 541 
Q 2531 541 2789 625 
Q 3047 709 3200 863 
Q 3416 1078 3536 1442 
Q 3656 1806 3656 2325 
Q 3656 3044 3420 3430 
Q 3184 3816 2847 3947 
Q 2603 4041 2063 4041 
L 1100 4041 
L 1100 541 
z
" transform="scale(0.015625)"/>
       </defs>
       <use xlink:href="#ArialMT-47"/>
       <use xlink:href="#ArialMT-41" x="77.783203"/>
       <use xlink:href="#ArialMT-52" x="144.482422"/>
       <use xlink:href="#ArialMT-44" x="216.699219"/>
      </g>
     </g>
    </g>
    <g id="xtick_4">
     <g id="line2d_4">
      <path d="M 275.060606 384.48 
L 275.060606 51.84 
" clip-path="url(#pd32d0c52d3)" style="fill: none; stroke: #ffffff; stroke-linecap: round"/>
     </g>
     <g id="text_4">
      <!-- GERS -->
      <g style="fill: #262626" transform="translate(251.470861 421.591304) rotate(-45) scale(0.11 -0.11)">
       <defs>
        <path id="ArialMT-53" d="M 288 1472 
L 859 1522 
Q 900 1178 1048 958 
Q 1197 738 1509 602 
Q 1822 466 2213 466 
Q 2559 466 2825 569 
Q 3091 672 3220 851 
Q 3350 1031 3350 1244 
Q 3350 1459 3225 1620 
Q 3100 1781 2813 1891 
Q 2628 1963 1997 2114 
Q 1366 2266 1113 2400 
Q 784 2572 623 2826 
Q 463 3081 463 3397 
Q 463 3744 659 4045 
Q 856 4347 1234 4503 
Q 1613 4659 2075 4659 
Q 2584 4659 2973 4495 
Q 3363 4331 3572 4012 
Q 3781 3694 3797 3291 
L 3216 3247 
Q 3169 3681 2898 3903 
Q 2628 4125 2100 4125 
Q 1550 4125 1298 3923 
Q 1047 3722 1047 3438 
Q 1047 3191 1225 3031 
Q 1400 2872 2139 2705 
Q 2878 2538 3153 2413 
Q 3553 2228 3743 1945 
Q 3934 1663 3934 1294 
Q 3934 928 3725 604 
Q 3516 281 3123 101 
Q 2731 -78 2241 -78 
Q 1619 -78 1198 103 
Q 778 284 539 648 
Q 300 1013 288 1472 
z
" transform="scale(0.015625)"/>
       </defs>
       <use xlink:href="#ArialMT-47"/>
       <use xlink:href="#ArialMT-45" x="77.783203"/>
       <use xlink:href="#ArialMT-52" x="144.482422"/>
       <use xlink:href="#ArialMT-53" x="216.699219"/>
      </g>
     </g>
    </g>
    <g id="xtick_5">
     <g id="line2d_5">
      <path d="M 322.030303 384.48 
L 322.030303 51.84 
" clip-path="url(#pd32d0c52d3)" style="fill: none; stroke: #ffffff; stroke-linecap: round"/>
     </g>
     <g id="text_5">
      <!-- HAUTE-GARONNE -->
      <g style="fill: #262626" transform="translate(252.204171 467.827691) rotate(-45) scale(0.11 -0.11)">
       <defs>
        <path id="ArialMT-48" d="M 513 0 
L 513 4581 
L 1119 4581 
L 1119 2700 
L 3500 2700 
L 3500 4581 
L 4106 4581 
L 4106 0 
L 3500 0 
L 3500 2159 
L 1119 2159 
L 1119 0 
L 513 0 
z
" transform="scale(0.015625)"/>
        <path id="ArialMT-55" d="M 3500 4581 
L 4106 4581 
L 4106 1934 
Q 4106 1244 3950 837 
Q 3794 431 3386 176 
Q 2978 -78 2316 -78 
Q 1672 -78 1262 144 
Q 853 366 678 786 
Q 503 1206 503 1934 
L 503 4581 
L 1109 4581 
L 1109 1938 
Q 1109 1341 1220 1058 
Q 1331 775 1601 622 
Q 1872 469 2263 469 
Q 2931 469 3215 772 
Q 3500 1075 3500 1938 
L 3500 4581 
z
" transform="scale(0.015625)"/>
        <path id="ArialMT-54" d="M 1659 0 
L 1659 4041 
L 150 4041 
L 150 4581 
L 3781 4581 
L 3781 4041 
L 2266 4041 
L 2266 0 
L 1659 0 
z
" transform="scale(0.015625)"/>
        <path id="ArialMT-2d" d="M 203 1375 
L 203 1941 
L 1931 1941 
L 1931 1375 
L 203 1375 
z
" transform="scale(0.015625)"/>
       </defs>
       <use xlink:href="#ArialMT-48"/>
       <use xlink:href="#ArialMT-41" x="72.216797"/>
       <use xlink:href="#ArialMT-55" x="138.916016"/>
       <use xlink:href="#ArialMT-54" x="211.132812"/>
       <use xlink:href="#ArialMT-45" x="272.216797"/>
       <use xlink:href="#ArialMT-2d" x="338.916016"/>
       <use xlink:href="#ArialMT-47" x="372.216797"/>
       <use xlink:href="#ArialMT-41" x="450"/>
       <use xlink:href="#ArialMT-52" x="516.699219"/>
       <use xlink:href="#ArialMT-4f" x="588.916016"/>
       <use xlink:href="#ArialMT-4e" x="666.699219"/>
       <use xlink:href="#ArialMT-4e" x="738.916016"/>
       <use xlink:href="#ArialMT-45" x="811.132812"/>
      </g>
     </g>
    </g>
    <g id="xtick_6">
     <g id="line2d_6">
      <path d="M 369 384.48 
L 369 51.84 
" clip-path="url(#pd32d0c52d3)" style="fill: none; stroke: #ffffff; stroke-linecap: round"/>
     </g>
     <g id="text_6">
      <!-- HAUTES-PYRENEES -->
      <g style="fill: #262626" transform="translate(290.949664 476.051895) rotate(-45) scale(0.11 -0.11)">
       <defs>
        <path id="ArialMT-50" d="M 494 0 
L 494 4581 
L 2222 4581 
Q 2678 4581 2919 4538 
Q 3256 4481 3484 4323 
Q 3713 4166 3852 3881 
Q 3991 3597 3991 3256 
Q 3991 2672 3619 2267 
Q 3247 1863 2275 1863 
L 1100 1863 
L 1100 0 
L 494 0 
z
M 1100 2403 
L 2284 2403 
Q 2872 2403 3119 2622 
Q 3366 2841 3366 3238 
Q 3366 3525 3220 3729 
Q 3075 3934 2838 4000 
Q 2684 4041 2272 4041 
L 1100 4041 
L 1100 2403 
z
" transform="scale(0.015625)"/>
       </defs>
       <use xlink:href="#ArialMT-48"/>
       <use xlink:href="#ArialMT-41" x="72.216797"/>
       <use xlink:href="#ArialMT-55" x="138.916016"/>
       <use xlink:href="#ArialMT-54" x="211.132812"/>
       <use xlink:href="#ArialMT-45" x="272.216797"/>
       <use xlink:href="#ArialMT-53" x="338.916016"/>
       <use xlink:href="#ArialMT-2d" x="405.615234"/>
       <use xlink:href="#ArialMT-50" x="438.916016"/>
       <use xlink:href="#ArialMT-59" x="505.615234"/>
       <use xlink:href="#ArialMT-52" x="572.314453"/>
       <use xlink:href="#ArialMT-45" x="644.53125"/>
       <use xlink:href="#ArialMT-4e" x="711.230469"/>
       <use xlink:href="#ArialMT-45" x="783.447266"/>
       <use xlink:href="#ArialMT-45" x="850.146484"/>
       <use xlink:href="#ArialMT-53" x="916.845703"/>
      </g>
     </g>
    </g>
    <g id="xtick_7">
     <g id="line2d_7">
      <path d="M 415.969697 384.48 
L 415.969697 51.84 
" clip-path="url(#pd32d0c52d3)" style="fill: none; stroke: #ffffff; stroke-linecap: round"/>
     </g>
     <g id="text_7">
      <!-- HERAULT -->
      <g style="fill: #262626" transform="translate(378.692795 435.278461) rotate(-45) scale(0.11 -0.11)">
       <defs>
        <path id="ArialMT-4c" d="M 469 0 
L 469 4581 
L 1075 4581 
L 1075 541 
L 3331 541 
L 3331 0 
L 469 0 
z
" transform="scale(0.015625)"/>
       </defs>
       <use xlink:href="#ArialMT-48"/>
       <use xlink:href="#ArialMT-45" x="72.216797"/>
       <use xlink:href="#ArialMT-52" x="138.916016"/>
       <use xlink:href="#ArialMT-41" x="211.132812"/>
       <use xlink:href="#ArialMT-55" x="277.832031"/>
       <use xlink:href="#ArialMT-4c" x="350.048828"/>
       <use xlink:href="#ArialMT-54" x="398.289062"/>
      </g>
     </g>
    </g>
    <g id="xtick_8">
     <g id="line2d_8">
      <path d="M 462.939394 384.48 
L 462.939394 51.84 
" clip-path="url(#pd32d0c52d3)" style="fill: none; stroke: #ffffff; stroke-linecap: round"/>
     </g>
     <g id="text_8">
      <!-- LOZERE -->
      <g style="fill: #262626" transform="translate(430.273491 430.667462) rotate(-45) scale(0.11 -0.11)">
       <defs>
        <path id="ArialMT-5a" d="M 128 0 
L 128 563 
L 2475 3497 
Q 2725 3809 2950 4041 
L 394 4041 
L 394 4581 
L 3675 4581 
L 3675 4041 
L 1103 863 
L 825 541 
L 3750 541 
L 3750 0 
L 128 0 
z
" transform="scale(0.015625)"/>
       </defs>
       <use xlink:href="#ArialMT-4c"/>
       <use xlink:href="#ArialMT-4f" x="55.615234"/>
       <use xlink:href="#ArialMT-5a" x="133.398438"/>
       <use xlink:href="#ArialMT-45" x="194.482422"/>
       <use xlink:href="#ArialMT-52" x="261.181641"/>
       <use xlink:href="#ArialMT-45" x="333.398438"/>
      </g>
     </g>
    </g>
    <g id="xtick_9">
     <g id="line2d_9">
      <path d="M 509.909091 384.48 
L 509.909091 51.84 
" clip-path="url(#pd32d0c52d3)" style="fill: none; stroke: #ffffff; stroke-linecap: round"/>
     </g>
     <g id="text_9">
      <!-- PYRENEES-ORIENTALES -->
      <g style="fill: #262626" transform="translate(414.70788 493.20277) rotate(-45) scale(0.11 -0.11)">
       <use xlink:href="#ArialMT-50"/>
       <use xlink:href="#ArialMT-59" x="66.699219"/>
       <use xlink:href="#ArialMT-52" x="133.398438"/>
       <use xlink:href="#ArialMT-45" x="205.615234"/>
       <use xlink:href="#ArialMT-4e" x="272.314453"/>
       <use xlink:href="#ArialMT-45" x="344.53125"/>
       <use xlink:href="#ArialMT-45" x="411.230469"/>
       <use xlink:href="#ArialMT-53" x="477.929688"/>
       <use xlink:href="#ArialMT-2d" x="544.628906"/>
       <use xlink:href="#ArialMT-4f" x="577.929688"/>
       <use xlink:href="#ArialMT-52" x="655.712891"/>
       <use xlink:href="#ArialMT-49" x="727.929688"/>
       <use xlink:href="#ArialMT-45" x="755.712891"/>
       <use xlink:href="#ArialMT-4e" x="822.412109"/>
       <use xlink:href="#ArialMT-54" x="894.628906"/>
       <use xlink:href="#ArialMT-41" x="948.337891"/>
       <use xlink:href="#ArialMT-4c" x="1015.037109"/>
       <use xlink:href="#ArialMT-45" x="1070.652344"/>
       <use xlink:href="#ArialMT-53" x="1137.351562"/>
      </g>
     </g>
    </g>
    <g id="xtick_10">
     <g id="line2d_10">
      <path d="M 556.878788 384.48 
L 556.878788 51.84 
" clip-path="url(#pd32d0c52d3)" style="fill: none; stroke: #ffffff; stroke-linecap: round"/>
     </g>
     <g id="text_10">
      <!-- TARN -->
      <g style="fill: #262626" transform="translate(534.732866 420.147481) rotate(-45) scale(0.11 -0.11)">
       <use xlink:href="#ArialMT-54"/>
       <use xlink:href="#ArialMT-41" x="53.708984"/>
       <use xlink:href="#ArialMT-52" x="120.408203"/>
       <use xlink:href="#ArialMT-4e" x="192.625"/>
      </g>
     </g>
    </g>
    <g id="xtick_11">
     <g id="line2d_11">
      <path d="M 603.848485 384.48 
L 603.848485 51.84 
" clip-path="url(#pd32d0c52d3)" style="fill: none; stroke: #ffffff; stroke-linecap: round"/>
     </g>
     <g id="text_11">
      <!-- TARN-ET-GARONNE -->
      <g style="fill: #262626" transform="translate(527.683141 474.166903) rotate(-45) scale(0.11 -0.11)">
       <use xlink:href="#ArialMT-54"/>
       <use xlink:href="#ArialMT-41" x="53.708984"/>
       <use xlink:href="#ArialMT-52" x="120.408203"/>
       <use xlink:href="#ArialMT-4e" x="192.625"/>
       <use xlink:href="#ArialMT-2d" x="264.841797"/>
       <use xlink:href="#ArialMT-45" x="298.142578"/>
       <use xlink:href="#ArialMT-54" x="364.841797"/>
       <use xlink:href="#ArialMT-2d" x="420.425781"/>
       <use xlink:href="#ArialMT-47" x="453.726562"/>
       <use xlink:href="#ArialMT-41" x="531.509766"/>
       <use xlink:href="#ArialMT-52" x="598.208984"/>
       <use xlink:href="#ArialMT-4f" x="670.425781"/>
       <use xlink:href="#ArialMT-4e" x="748.208984"/>
       <use xlink:href="#ArialMT-4e" x="820.425781"/>
       <use xlink:href="#ArialMT-45" x="892.642578"/>
      </g>
     </g>
    </g>
    <g id="text_12">
     <!-- Départements -->
     <g style="fill: #262626" transform="translate(331.318125 507.384933) scale(0.12 -0.12)">
      <defs>
       <path id="ArialMT-e9" d="M 2694 1069 
L 3275 997 
Q 3138 488 2766 206 
Q 2394 -75 1816 -75 
Q 1088 -75 661 373 
Q 234 822 234 1631 
Q 234 2469 665 2931 
Q 1097 3394 1784 3394 
Q 2450 3394 2872 2941 
Q 3294 2488 3294 1666 
Q 3294 1616 3291 1516 
L 816 1516 
Q 847 969 1125 678 
Q 1403 388 1819 388 
Q 2128 388 2347 550 
Q 2566 713 2694 1069 
z
M 847 1978 
L 2700 1978 
Q 2663 2397 2488 2606 
Q 2219 2931 1791 2931 
Q 1403 2931 1139 2672 
Q 875 2413 847 1978 
z
M 1454 3731 
L 1869 4606 
L 2607 4606 
L 1919 3731 
L 1454 3731 
z
" transform="scale(0.015625)"/>
       <path id="ArialMT-70" d="M 422 -1272 
L 422 3319 
L 934 3319 
L 934 2888 
Q 1116 3141 1344 3267 
Q 1572 3394 1897 3394 
Q 2322 3394 2647 3175 
Q 2972 2956 3137 2557 
Q 3303 2159 3303 1684 
Q 3303 1175 3120 767 
Q 2938 359 2589 142 
Q 2241 -75 1856 -75 
Q 1575 -75 1351 44 
Q 1128 163 984 344 
L 984 -1272 
L 422 -1272 
z
M 931 1641 
Q 931 1000 1190 694 
Q 1450 388 1819 388 
Q 2194 388 2461 705 
Q 2728 1022 2728 1688 
Q 2728 2322 2467 2637 
Q 2206 2953 1844 2953 
Q 1484 2953 1207 2617 
Q 931 2281 931 1641 
z
" transform="scale(0.015625)"/>
       <path id="ArialMT-61" d="M 2588 409 
Q 2275 144 1986 34 
Q 1697 -75 1366 -75 
Q 819 -75 525 192 
Q 231 459 231 875 
Q 231 1119 342 1320 
Q 453 1522 633 1644 
Q 813 1766 1038 1828 
Q 1203 1872 1538 1913 
Q 2219 1994 2541 2106 
Q 2544 2222 2544 2253 
Q 2544 2597 2384 2738 
Q 2169 2928 1744 2928 
Q 1347 2928 1158 2789 
Q 969 2650 878 2297 
L 328 2372 
Q 403 2725 575 2942 
Q 747 3159 1072 3276 
Q 1397 3394 1825 3394 
Q 2250 3394 2515 3294 
Q 2781 3194 2906 3042 
Q 3031 2891 3081 2659 
Q 3109 2516 3109 2141 
L 3109 1391 
Q 3109 606 3145 398 
Q 3181 191 3288 0 
L 2700 0 
Q 2613 175 2588 409 
z
M 2541 1666 
Q 2234 1541 1622 1453 
Q 1275 1403 1131 1340 
Q 988 1278 909 1158 
Q 831 1038 831 891 
Q 831 666 1001 516 
Q 1172 366 1500 366 
Q 1825 366 2078 508 
Q 2331 650 2450 897 
Q 2541 1088 2541 1459 
L 2541 1666 
z
" transform="scale(0.015625)"/>
       <path id="ArialMT-72" d="M 416 0 
L 416 3319 
L 922 3319 
L 922 2816 
Q 1116 3169 1280 3281 
Q 1444 3394 1641 3394 
Q 1925 3394 2219 3213 
L 2025 2691 
Q 1819 2813 1613 2813 
Q 1428 2813 1281 2702 
Q 1134 2591 1072 2394 
Q 978 2094 978 1738 
L 978 0 
L 416 0 
z
" transform="scale(0.015625)"/>
       <path id="ArialMT-74" d="M 1650 503 
L 1731 6 
Q 1494 -44 1306 -44 
Q 1000 -44 831 53 
Q 663 150 594 308 
Q 525 466 525 972 
L 525 2881 
L 113 2881 
L 113 3319 
L 525 3319 
L 525 4141 
L 1084 4478 
L 1084 3319 
L 1650 3319 
L 1650 2881 
L 1084 2881 
L 1084 941 
Q 1084 700 1114 631 
Q 1144 563 1211 522 
Q 1278 481 1403 481 
Q 1497 481 1650 503 
z
" transform="scale(0.015625)"/>
       <path id="ArialMT-65" d="M 2694 1069 
L 3275 997 
Q 3138 488 2766 206 
Q 2394 -75 1816 -75 
Q 1088 -75 661 373 
Q 234 822 234 1631 
Q 234 2469 665 2931 
Q 1097 3394 1784 3394 
Q 2450 3394 2872 2941 
Q 3294 2488 3294 1666 
Q 3294 1616 3291 1516 
L 816 1516 
Q 847 969 1125 678 
Q 1403 388 1819 388 
Q 2128 388 2347 550 
Q 2566 713 2694 1069 
z
M 847 1978 
L 2700 1978 
Q 2663 2397 2488 2606 
Q 2219 2931 1791 2931 
Q 1403 2931 1139 2672 
Q 875 2413 847 1978 
z
" transform="scale(0.015625)"/>
       <path id="ArialMT-6d" d="M 422 0 
L 422 3319 
L 925 3319 
L 925 2853 
Q 1081 3097 1340 3245 
Q 1600 3394 1931 3394 
Q 2300 3394 2536 3241 
Q 2772 3088 2869 2813 
Q 3263 3394 3894 3394 
Q 4388 3394 4653 3120 
Q 4919 2847 4919 2278 
L 4919 0 
L 4359 0 
L 4359 2091 
Q 4359 2428 4304 2576 
Q 4250 2725 4106 2815 
Q 3963 2906 3769 2906 
Q 3419 2906 3187 2673 
Q 2956 2441 2956 1928 
L 2956 0 
L 2394 0 
L 2394 2156 
Q 2394 2531 2256 2718 
Q 2119 2906 1806 2906 
Q 1569 2906 1367 2781 
Q 1166 2656 1075 2415 
Q 984 2175 984 1722 
L 984 0 
L 422 0 
z
" transform="scale(0.015625)"/>
       <path id="ArialMT-6e" d="M 422 0 
L 422 3319 
L 928 3319 
L 928 2847 
Q 1294 3394 1984 3394 
Q 2284 3394 2536 3286 
Q 2788 3178 2913 3003 
Q 3038 2828 3088 2588 
Q 3119 2431 3119 2041 
L 3119 0 
L 2556 0 
L 2556 2019 
Q 2556 2363 2490 2533 
Q 2425 2703 2258 2804 
Q 2091 2906 1866 2906 
Q 1506 2906 1245 2678 
Q 984 2450 984 1813 
L 984 0 
L 422 0 
z
" transform="scale(0.015625)"/>
       <path id="ArialMT-73" d="M 197 991 
L 753 1078 
Q 800 744 1014 566 
Q 1228 388 1613 388 
Q 2000 388 2187 545 
Q 2375 703 2375 916 
Q 2375 1106 2209 1216 
Q 2094 1291 1634 1406 
Q 1016 1563 777 1677 
Q 538 1791 414 1992 
Q 291 2194 291 2438 
Q 291 2659 392 2848 
Q 494 3038 669 3163 
Q 800 3259 1026 3326 
Q 1253 3394 1513 3394 
Q 1903 3394 2198 3281 
Q 2494 3169 2634 2976 
Q 2775 2784 2828 2463 
L 2278 2388 
Q 2241 2644 2061 2787 
Q 1881 2931 1553 2931 
Q 1166 2931 1000 2803 
Q 834 2675 834 2503 
Q 834 2394 903 2306 
Q 972 2216 1119 2156 
Q 1203 2125 1616 2013 
Q 2213 1853 2448 1751 
Q 2684 1650 2818 1456 
Q 2953 1263 2953 975 
Q 2953 694 2789 445 
Q 2625 197 2315 61 
Q 2006 -75 1616 -75 
Q 969 -75 630 194 
Q 291 463 197 991 
z
" transform="scale(0.015625)"/>
      </defs>
      <use xlink:href="#ArialMT-44"/>
      <use xlink:href="#ArialMT-e9" x="72.216797"/>
      <use xlink:href="#ArialMT-70" x="127.832031"/>
      <use xlink:href="#ArialMT-61" x="183.447266"/>
      <use xlink:href="#ArialMT-72" x="239.0625"/>
      <use xlink:href="#ArialMT-74" x="272.363281"/>
      <use xlink:href="#ArialMT-65" x="300.146484"/>
      <use xlink:href="#ArialMT-6d" x="355.761719"/>
      <use xlink:href="#ArialMT-65" x="439.0625"/>
      <use xlink:href="#ArialMT-6e" x="494.677734"/>
      <use xlink:href="#ArialMT-74" x="550.292969"/>
      <use xlink:href="#ArialMT-73" x="578.076172"/>
     </g>
    </g>
   </g>
   <g id="matplotlib.axis_2">
    <g id="ytick_1">
     <g id="line2d_12">
      <path d="M 90 384.48 
L 648 384.48 
" clip-path="url(#pd32d0c52d3)" style="fill: none; stroke: #ffffff; stroke-linecap: round"/>
     </g>
     <g id="text_13">
      <!-- 0 -->
      <g style="fill: #262626" transform="translate(74.382969 388.416797) scale(0.11 -0.11)">
       <defs>
        <path id="ArialMT-30" d="M 266 2259 
Q 266 3072 433 3567 
Q 600 4063 929 4331 
Q 1259 4600 1759 4600 
Q 2128 4600 2406 4451 
Q 2684 4303 2865 4023 
Q 3047 3744 3150 3342 
Q 3253 2941 3253 2259 
Q 3253 1453 3087 958 
Q 2922 463 2592 192 
Q 2263 -78 1759 -78 
Q 1097 -78 719 397 
Q 266 969 266 2259 
z
M 844 2259 
Q 844 1131 1108 757 
Q 1372 384 1759 384 
Q 2147 384 2411 759 
Q 2675 1134 2675 2259 
Q 2675 3391 2411 3762 
Q 2147 4134 1753 4134 
Q 1366 4134 1134 3806 
Q 844 3388 844 2259 
z
" transform="scale(0.015625)"/>
       </defs>
       <use xlink:href="#ArialMT-30"/>
      </g>
     </g>
    </g>
    <g id="ytick_2">
     <g id="line2d_13">
      <path d="M 90 320.534257 
L 648 320.534257 
" clip-path="url(#pd32d0c52d3)" style="fill: none; stroke: #ffffff; stroke-linecap: round"/>
     </g>
     <g id="text_14">
      <!-- 500 -->
      <g style="fill: #262626" transform="translate(62.148906 324.471054) scale(0.11 -0.11)">
       <defs>
        <path id="ArialMT-35" d="M 266 1200 
L 856 1250 
Q 922 819 1161 601 
Q 1400 384 1738 384 
Q 2144 384 2425 690 
Q 2706 997 2706 1503 
Q 2706 1984 2436 2262 
Q 2166 2541 1728 2541 
Q 1456 2541 1237 2417 
Q 1019 2294 894 2097 
L 366 2166 
L 809 4519 
L 3088 4519 
L 3088 3981 
L 1259 3981 
L 1013 2750 
Q 1425 3038 1878 3038 
Q 2478 3038 2890 2622 
Q 3303 2206 3303 1553 
Q 3303 931 2941 478 
Q 2500 -78 1738 -78 
Q 1113 -78 717 272 
Q 322 622 266 1200 
z
" transform="scale(0.015625)"/>
       </defs>
       <use xlink:href="#ArialMT-35"/>
       <use xlink:href="#ArialMT-30" x="55.615234"/>
       <use xlink:href="#ArialMT-30" x="111.230469"/>
      </g>
     </g>
    </g>
    <g id="ytick_3">
     <g id="line2d_14">
      <path d="M 90 256.588514 
L 648 256.588514 
" clip-path="url(#pd32d0c52d3)" style="fill: none; stroke: #ffffff; stroke-linecap: round"/>
     </g>
     <g id="text_15">
      <!-- 1000 -->
      <g style="fill: #262626" transform="translate(56.031875 260.525311) scale(0.11 -0.11)">
       <defs>
        <path id="ArialMT-31" d="M 2384 0 
L 1822 0 
L 1822 3584 
Q 1619 3391 1289 3197 
Q 959 3003 697 2906 
L 697 3450 
Q 1169 3672 1522 3987 
Q 1875 4303 2022 4600 
L 2384 4600 
L 2384 0 
z
" transform="scale(0.015625)"/>
       </defs>
       <use xlink:href="#ArialMT-31"/>
       <use xlink:href="#ArialMT-30" x="55.615234"/>
       <use xlink:href="#ArialMT-30" x="111.230469"/>
       <use xlink:href="#ArialMT-30" x="166.845703"/>
      </g>
     </g>
    </g>
    <g id="ytick_4">
     <g id="line2d_15">
      <path d="M 90 192.642771 
L 648 192.642771 
" clip-path="url(#pd32d0c52d3)" style="fill: none; stroke: #ffffff; stroke-linecap: round"/>
     </g>
     <g id="text_16">
      <!-- 1500 -->
      <g style="fill: #262626" transform="translate(56.031875 196.579568) scale(0.11 -0.11)">
       <use xlink:href="#ArialMT-31"/>
       <use xlink:href="#ArialMT-35" x="55.615234"/>
       <use xlink:href="#ArialMT-30" x="111.230469"/>
       <use xlink:href="#ArialMT-30" x="166.845703"/>
      </g>
     </g>
    </g>
    <g id="ytick_5">
     <g id="line2d_16">
      <path d="M 90 128.697028 
L 648 128.697028 
" clip-path="url(#pd32d0c52d3)" style="fill: none; stroke: #ffffff; stroke-linecap: round"/>
     </g>
     <g id="text_17">
      <!-- 2000 -->
      <g style="fill: #262626" transform="translate(56.031875 132.633825) scale(0.11 -0.11)">
       <defs>
        <path id="ArialMT-32" d="M 3222 541 
L 3222 0 
L 194 0 
Q 188 203 259 391 
Q 375 700 629 1000 
Q 884 1300 1366 1694 
Q 2113 2306 2375 2664 
Q 2638 3022 2638 3341 
Q 2638 3675 2398 3904 
Q 2159 4134 1775 4134 
Q 1369 4134 1125 3890 
Q 881 3647 878 3216 
L 300 3275 
Q 359 3922 746 4261 
Q 1134 4600 1788 4600 
Q 2447 4600 2831 4234 
Q 3216 3869 3216 3328 
Q 3216 3053 3103 2787 
Q 2991 2522 2730 2228 
Q 2469 1934 1863 1422 
Q 1356 997 1212 845 
Q 1069 694 975 541 
L 3222 541 
z
" transform="scale(0.015625)"/>
       </defs>
       <use xlink:href="#ArialMT-32"/>
       <use xlink:href="#ArialMT-30" x="55.615234"/>
       <use xlink:href="#ArialMT-30" x="111.230469"/>
       <use xlink:href="#ArialMT-30" x="166.845703"/>
      </g>
     </g>
    </g>
    <g id="ytick_6">
     <g id="line2d_17">
      <path d="M 90 64.751285 
L 648 64.751285 
" clip-path="url(#pd32d0c52d3)" style="fill: none; stroke: #ffffff; stroke-linecap: round"/>
     </g>
     <g id="text_18">
      <!-- 2500 -->
      <g style="fill: #262626" transform="translate(56.031875 68.688082) scale(0.11 -0.11)">
       <use xlink:href="#ArialMT-32"/>
       <use xlink:href="#ArialMT-35" x="55.615234"/>
       <use xlink:href="#ArialMT-30" x="111.230469"/>
       <use xlink:href="#ArialMT-30" x="166.845703"/>
      </g>
     </g>
    </g>
    <g id="text_19">
     <!-- Quantité totale -->
     <g style="fill: #262626" transform="translate(49.646875 257.183437) rotate(-90) scale(0.12 -0.12)">
      <defs>
       <path id="ArialMT-51" d="M 3966 491 
Q 4388 200 4744 66 
L 4566 -356 
Q 4072 -178 3581 206 
Q 3072 -78 2456 -78 
Q 1834 -78 1328 222 
Q 822 522 548 1065 
Q 275 1609 275 2291 
Q 275 2969 550 3525 
Q 825 4081 1333 4372 
Q 1841 4663 2469 4663 
Q 3103 4663 3612 4361 
Q 4122 4059 4389 3517 
Q 4656 2975 4656 2294 
Q 4656 1728 4484 1276 
Q 4313 825 3966 491 
z
M 2631 1266 
Q 3156 1119 3497 828 
Q 4031 1316 4031 2294 
Q 4031 2850 3842 3265 
Q 3653 3681 3289 3911 
Q 2925 4141 2472 4141 
Q 1794 4141 1347 3677 
Q 900 3213 900 2291 
Q 900 1397 1342 919 
Q 1784 441 2472 441 
Q 2797 441 3084 563 
Q 2800 747 2484 825 
L 2631 1266 
z
" transform="scale(0.015625)"/>
       <path id="ArialMT-75" d="M 2597 0 
L 2597 488 
Q 2209 -75 1544 -75 
Q 1250 -75 995 37 
Q 741 150 617 320 
Q 494 491 444 738 
Q 409 903 409 1263 
L 409 3319 
L 972 3319 
L 972 1478 
Q 972 1038 1006 884 
Q 1059 663 1231 536 
Q 1403 409 1656 409 
Q 1909 409 2131 539 
Q 2353 669 2445 892 
Q 2538 1116 2538 1541 
L 2538 3319 
L 3100 3319 
L 3100 0 
L 2597 0 
z
" transform="scale(0.015625)"/>
       <path id="ArialMT-69" d="M 425 3934 
L 425 4581 
L 988 4581 
L 988 3934 
L 425 3934 
z
M 425 0 
L 425 3319 
L 988 3319 
L 988 0 
L 425 0 
z
" transform="scale(0.015625)"/>
       <path id="ArialMT-20" transform="scale(0.015625)"/>
       <path id="ArialMT-6f" d="M 213 1659 
Q 213 2581 725 3025 
Q 1153 3394 1769 3394 
Q 2453 3394 2887 2945 
Q 3322 2497 3322 1706 
Q 3322 1066 3130 698 
Q 2938 331 2570 128 
Q 2203 -75 1769 -75 
Q 1072 -75 642 372 
Q 213 819 213 1659 
z
M 791 1659 
Q 791 1022 1069 705 
Q 1347 388 1769 388 
Q 2188 388 2466 706 
Q 2744 1025 2744 1678 
Q 2744 2294 2464 2611 
Q 2184 2928 1769 2928 
Q 1347 2928 1069 2612 
Q 791 2297 791 1659 
z
" transform="scale(0.015625)"/>
       <path id="ArialMT-6c" d="M 409 0 
L 409 4581 
L 972 4581 
L 972 0 
L 409 0 
z
" transform="scale(0.015625)"/>
      </defs>
      <use xlink:href="#ArialMT-51"/>
      <use xlink:href="#ArialMT-75" x="77.783203"/>
      <use xlink:href="#ArialMT-61" x="133.398438"/>
      <use xlink:href="#ArialMT-6e" x="189.013672"/>
      <use xlink:href="#ArialMT-74" x="244.628906"/>
      <use xlink:href="#ArialMT-69" x="272.412109"/>
      <use xlink:href="#ArialMT-74" x="294.628906"/>
      <use xlink:href="#ArialMT-e9" x="322.412109"/>
      <use xlink:href="#ArialMT-20" x="378.027344"/>
      <use xlink:href="#ArialMT-74" x="405.810547"/>
      <use xlink:href="#ArialMT-6f" x="433.59375"/>
      <use xlink:href="#ArialMT-74" x="489.208984"/>
      <use xlink:href="#ArialMT-61" x="516.992188"/>
      <use xlink:href="#ArialMT-6c" x="572.607422"/>
      <use xlink:href="#ArialMT-65" x="594.824219"/>
     </g>
    </g>
   </g>
   <g id="patch_3">
    <path d="M 115.363636 384.48 
L 152.939394 384.48 
L 152.939394 384.096326 
L 115.363636 384.096326 
z
" clip-path="url(#pd32d0c52d3)" style="fill: #4c72b0; stroke: #ffffff; stroke-linejoin: miter"/>
   </g>
   <g id="patch_4">
    <path d="M 162.333333 384.48 
L 199.909091 384.48 
L 199.909091 382.945302 
L 162.333333 382.945302 
z
" clip-path="url(#pd32d0c52d3)" style="fill: #4c72b0; stroke: #ffffff; stroke-linejoin: miter"/>
   </g>
   <g id="patch_5">
    <path d="M 209.30303 384.48 
L 246.878788 384.48 
L 246.878788 384.48 
L 209.30303 384.48 
z
" clip-path="url(#pd32d0c52d3)" style="fill: #4c72b0; stroke: #ffffff; stroke-linejoin: miter"/>
   </g>
   <g id="patch_6">
    <path d="M 256.272727 384.48 
L 293.848485 384.48 
L 293.848485 383.970992 
L 256.272727 383.970992 
z
" clip-path="url(#pd32d0c52d3)" style="fill: #4c72b0; stroke: #ffffff; stroke-linejoin: miter"/>
   </g>
   <g id="patch_7">
    <path d="M 303.242424 384.48 
L 340.818182 384.48 
L 340.818182 266.602417 
L 303.242424 266.602417 
z
" clip-path="url(#pd32d0c52d3)" style="fill: #4c72b0; stroke: #ffffff; stroke-linejoin: miter"/>
   </g>
   <g id="patch_8">
    <path d="M 350.212121 384.48 
L 387.787879 384.48 
L 387.787879 377.318077 
L 350.212121 377.318077 
z
" clip-path="url(#pd32d0c52d3)" style="fill: #4c72b0; stroke: #ffffff; stroke-linejoin: miter"/>
   </g>
   <g id="patch_9">
    <path d="M 397.181818 384.48 
L 434.757576 384.48 
L 434.757576 365.616006 
L 397.181818 365.616006 
z
" clip-path="url(#pd32d0c52d3)" style="fill: #4c72b0; stroke: #ffffff; stroke-linejoin: miter"/>
   </g>
   <g id="patch_10">
    <path d="M 444.151515 384.48 
L 481.727273 384.48 
L 481.727273 383.751019 
L 444.151515 383.751019 
z
" clip-path="url(#pd32d0c52d3)" style="fill: #4c72b0; stroke: #ffffff; stroke-linejoin: miter"/>
   </g>
   <g id="patch_11">
    <path d="M 491.121212 384.48 
L 528.69697 384.48 
L 528.69697 368.352884 
L 491.121212 368.352884 
z
" clip-path="url(#pd32d0c52d3)" style="fill: #4c72b0; stroke: #ffffff; stroke-linejoin: miter"/>
   </g>
   <g id="patch_12">
    <path d="M 538.090909 384.48 
L 575.666667 384.48 
L 575.666667 380.515364 
L 538.090909 380.515364 
z
" clip-path="url(#pd32d0c52d3)" style="fill: #4c72b0; stroke: #ffffff; stroke-linejoin: miter"/>
   </g>
   <g id="patch_13">
    <path d="M 585.060606 384.48 
L 622.636364 384.48 
L 622.636364 382.510471 
L 585.060606 382.510471 
z
" clip-path="url(#pd32d0c52d3)" style="fill: #4c72b0; stroke: #ffffff; stroke-linejoin: miter"/>
   </g>
   <g id="patch_14">
    <path d="M 115.363636 384.48 
L 152.939394 384.48 
L 152.939394 383.623127 
L 115.363636 383.623127 
z
" clip-path="url(#pd32d0c52d3)" style="fill: #dd8452; stroke: #ffffff; stroke-linejoin: miter"/>
   </g>
   <g id="patch_15">
    <path d="M 162.333333 384.48 
L 199.909091 384.48 
L 199.909091 381.525707 
L 162.333333 381.525707 
z
" clip-path="url(#pd32d0c52d3)" style="fill: #dd8452; stroke: #ffffff; stroke-linejoin: miter"/>
   </g>
   <g id="patch_16">
    <path d="M 209.30303 384.48 
L 246.878788 384.48 
L 246.878788 352.954749 
L 209.30303 352.954749 
z
" clip-path="url(#pd32d0c52d3)" style="fill: #dd8452; stroke: #ffffff; stroke-linejoin: miter"/>
   </g>
   <g id="patch_17">
    <path d="M 256.272727 384.48 
L 293.848485 384.48 
L 293.848485 382.763696 
L 256.272727 382.763696 
z
" clip-path="url(#pd32d0c52d3)" style="fill: #dd8452; stroke: #ffffff; stroke-linejoin: miter"/>
   </g>
   <g id="patch_18">
    <path d="M 303.242424 384.48 
L 340.818182 384.48 
L 340.818182 246.024677 
L 303.242424 246.024677 
z
" clip-path="url(#pd32d0c52d3)" style="fill: #dd8452; stroke: #ffffff; stroke-linejoin: miter"/>
   </g>
   <g id="patch_19">
    <path d="M 350.212121 384.48 
L 387.787879 384.48 
L 387.787879 367.675059 
L 350.212121 367.675059 
z
" clip-path="url(#pd32d0c52d3)" style="fill: #dd8452; stroke: #ffffff; stroke-linejoin: miter"/>
   </g>
   <g id="patch_20">
    <path d="M 397.181818 384.48 
L 434.757576 384.48 
L 434.757576 311.914371 
L 397.181818 311.914371 
z
" clip-path="url(#pd32d0c52d3)" style="fill: #dd8452; stroke: #ffffff; stroke-linejoin: miter"/>
   </g>
   <g id="patch_21">
    <path d="M 444.151515 384.48 
L 481.727273 384.48 
L 481.727273 382.958091 
L 444.151515 382.958091 
z
" clip-path="url(#pd32d0c52d3)" style="fill: #dd8452; stroke: #ffffff; stroke-linejoin: miter"/>
   </g>
   <g id="patch_22">
    <path d="M 491.121212 384.48 
L 528.69697 384.48 
L 528.69697 358.326191 
L 491.121212 358.326191 
z
" clip-path="url(#pd32d0c52d3)" style="fill: #dd8452; stroke: #ffffff; stroke-linejoin: miter"/>
   </g>
   <g id="patch_23">
    <path d="M 538.090909 384.48 
L 575.666667 384.48 
L 575.666667 370.450304 
L 538.090909 370.450304 
z
" clip-path="url(#pd32d0c52d3)" style="fill: #dd8452; stroke: #ffffff; stroke-linejoin: miter"/>
   </g>
   <g id="patch_24">
    <path d="M 585.060606 384.48 
L 622.636364 384.48 
L 622.636364 379.97822 
L 585.060606 379.97822 
z
" clip-path="url(#pd32d0c52d3)" style="fill: #dd8452; stroke: #ffffff; stroke-linejoin: miter"/>
   </g>
   <g id="patch_25">
    <path d="M 115.363636 384.48 
L 152.939394 384.48 
L 152.939394 383.034826 
L 115.363636 383.034826 
z
" clip-path="url(#pd32d0c52d3)" style="fill: #55a868; stroke: #ffffff; stroke-linejoin: miter"/>
   </g>
   <g id="patch_26">
    <path d="M 162.333333 384.48 
L 199.909091 384.48 
L 199.909091 379.210871 
L 162.333333 379.210871 
z
" clip-path="url(#pd32d0c52d3)" style="fill: #55a868; stroke: #ffffff; stroke-linejoin: miter"/>
   </g>
   <g id="patch_27">
    <path d="M 209.30303 384.48 
L 246.878788 384.48 
L 246.878788 384.48 
L 209.30303 384.48 
z
" clip-path="url(#pd32d0c52d3)" style="fill: #55a868; stroke: #ffffff; stroke-linejoin: miter"/>
   </g>
   <g id="patch_28">
    <path d="M 256.272727 384.48 
L 293.848485 384.48 
L 293.848485 381.972048 
L 256.272727 381.972048 
z
" clip-path="url(#pd32d0c52d3)" style="fill: #55a868; stroke: #ffffff; stroke-linejoin: miter"/>
   </g>
   <g id="patch_29">
    <path d="M 303.242424 384.48 
L 340.818182 384.48 
L 340.818182 67.68 
L 303.242424 67.68 
z
" clip-path="url(#pd32d0c52d3)" style="fill: #55a868; stroke: #ffffff; stroke-linejoin: miter"/>
   </g>
   <g id="patch_30">
    <path d="M 350.212121 384.48 
L 387.787879 384.48 
L 387.787879 356.727548 
L 350.212121 356.727548 
z
" clip-path="url(#pd32d0c52d3)" style="fill: #55a868; stroke: #ffffff; stroke-linejoin: miter"/>
   </g>
   <g id="patch_31">
    <path d="M 397.181818 384.48 
L 434.757576 384.48 
L 434.757576 306.095308 
L 397.181818 306.095308 
z
" clip-path="url(#pd32d0c52d3)" style="fill: #55a868; stroke: #ffffff; stroke-linejoin: miter"/>
   </g>
   <g id="patch_32">
    <path d="M 444.151515 384.48 
L 481.727273 384.48 
L 481.727273 381.845435 
L 444.151515 381.845435 
z
" clip-path="url(#pd32d0c52d3)" style="fill: #55a868; stroke: #ffffff; stroke-linejoin: miter"/>
   </g>
   <g id="patch_33">
    <path d="M 491.121212 384.48 
L 528.69697 384.48 
L 528.69697 342.928056 
L 491.121212 342.928056 
z
" clip-path="url(#pd32d0c52d3)" style="fill: #55a868; stroke: #ffffff; stroke-linejoin: miter"/>
   </g>
   <g id="patch_34">
    <path d="M 538.090909 384.48 
L 575.666667 384.48 
L 575.666667 364.516139 
L 538.090909 364.516139 
z
" clip-path="url(#pd32d0c52d3)" style="fill: #55a868; stroke: #ffffff; stroke-linejoin: miter"/>
   </g>
   <g id="patch_35">
    <path d="M 585.060606 384.48 
L 622.636364 384.48 
L 622.636364 376.921613 
L 585.060606 376.921613 
z
" clip-path="url(#pd32d0c52d3)" style="fill: #55a868; stroke: #ffffff; stroke-linejoin: miter"/>
   </g>
   <g id="patch_36">
    <path d="M 115.363636 384.48 
L 152.939394 384.48 
L 152.939394 370.872346 
L 115.363636 370.872346 
z
" clip-path="url(#pd32d0c52d3)" style="fill: #c44e52; stroke: #ffffff; stroke-linejoin: miter"/>
   </g>
   <g id="patch_37">
    <path d="M 162.333333 384.48 
L 199.909091 384.48 
L 199.909091 336.252121 
L 162.333333 336.252121 
z
" clip-path="url(#pd32d0c52d3)" style="fill: #c44e52; stroke: #ffffff; stroke-linejoin: miter"/>
   </g>
   <g id="patch_38">
    <path d="M 209.30303 384.48 
L 246.878788 384.48 
L 246.878788 244.106305 
L 209.30303 244.106305 
z
" clip-path="url(#pd32d0c52d3)" style="fill: #c44e52; stroke: #ffffff; stroke-linejoin: miter"/>
   </g>
   <g id="patch_39">
    <path d="M 256.272727 384.48 
L 293.848485 384.48 
L 293.848485 276.539586 
L 256.272727 276.539586 
z
" clip-path="url(#pd32d0c52d3)" style="fill: #c44e52; stroke: #ffffff; stroke-linejoin: miter"/>
   </g>
   <g id="patch_40">
    <path d="M 303.242424 384.48 
L 340.818182 384.48 
L 340.818182 150.413002 
L 303.242424 150.413002 
z
" clip-path="url(#pd32d0c52d3)" style="fill: #c44e52; stroke: #ffffff; stroke-linejoin: miter"/>
   </g>
   <g id="patch_41">
    <path d="M 350.212121 384.48 
L 387.787879 384.48 
L 387.787879 289.737987 
L 350.212121 289.737987 
z
" clip-path="url(#pd32d0c52d3)" style="fill: #c44e52; stroke: #ffffff; stroke-linejoin: miter"/>
   </g>
   <g id="patch_42">
    <path d="M 397.181818 384.48 
L 434.757576 384.48 
L 434.757576 135.718271 
L 397.181818 135.718271 
z
" clip-path="url(#pd32d0c52d3)" style="fill: #c44e52; stroke: #ffffff; stroke-linejoin: miter"/>
   </g>
   <g id="patch_43">
    <path d="M 444.151515 384.48 
L 481.727273 384.48 
L 481.727273 377.740119 
L 444.151515 377.740119 
z
" clip-path="url(#pd32d0c52d3)" style="fill: #c44e52; stroke: #ffffff; stroke-linejoin: miter"/>
   </g>
   <g id="patch_44">
    <path d="M 491.121212 384.48 
L 528.69697 384.48 
L 528.69697 291.016902 
L 491.121212 291.016902 
z
" clip-path="url(#pd32d0c52d3)" style="fill: #c44e52; stroke: #ffffff; stroke-linejoin: miter"/>
   </g>
   <g id="patch_45">
    <path d="M 538.090909 384.48 
L 575.666667 384.48 
L 575.666667 340.063287 
L 538.090909 340.063287 
z
" clip-path="url(#pd32d0c52d3)" style="fill: #c44e52; stroke: #ffffff; stroke-linejoin: miter"/>
   </g>
   <g id="patch_46">
    <path d="M 585.060606 384.48 
L 622.636364 384.48 
L 622.636364 364.771922 
L 585.060606 364.771922 
z
" clip-path="url(#pd32d0c52d3)" style="fill: #c44e52; stroke: #ffffff; stroke-linejoin: miter"/>
   </g>
   <g id="patch_47">
    <path d="M 115.363636 384.48 
L 152.939394 384.48 
L 152.939394 381.001352 
L 115.363636 381.001352 
z
" clip-path="url(#pd32d0c52d3)" style="fill: #8172b3; stroke: #ffffff; stroke-linejoin: miter"/>
   </g>
   <g id="patch_48">
    <path d="M 162.333333 384.48 
L 199.909091 384.48 
L 199.909091 378.430733 
L 162.333333 378.430733 
z
" clip-path="url(#pd32d0c52d3)" style="fill: #8172b3; stroke: #ffffff; stroke-linejoin: miter"/>
   </g>
   <g id="patch_49">
    <path d="M 209.30303 384.48 
L 246.878788 384.48 
L 246.878788 360.257353 
L 209.30303 360.257353 
z
" clip-path="url(#pd32d0c52d3)" style="fill: #8172b3; stroke: #ffffff; stroke-linejoin: miter"/>
   </g>
   <g id="patch_50">
    <path d="M 256.272727 384.48 
L 293.848485 384.48 
L 293.848485 374.900928 
L 256.272727 374.900928 
z
" clip-path="url(#pd32d0c52d3)" style="fill: #8172b3; stroke: #ffffff; stroke-linejoin: miter"/>
   </g>
   <g id="patch_51">
    <path d="M 303.242424 384.48 
L 340.818182 384.48 
L 340.818182 249.388223 
L 303.242424 249.388223 
z
" clip-path="url(#pd32d0c52d3)" style="fill: #8172b3; stroke: #ffffff; stroke-linejoin: miter"/>
   </g>
   <g id="patch_52">
    <path d="M 350.212121 384.48 
L 387.787879 384.48 
L 387.787879 359.720208 
L 350.212121 359.720208 
z
" clip-path="url(#pd32d0c52d3)" style="fill: #8172b3; stroke: #ffffff; stroke-linejoin: miter"/>
   </g>
   <g id="patch_53">
    <path d="M 397.181818 384.48 
L 434.757576 384.48 
L 434.757576 349.808618 
L 397.181818 349.808618 
z
" clip-path="url(#pd32d0c52d3)" style="fill: #8172b3; stroke: #ffffff; stroke-linejoin: miter"/>
   </g>
   <g id="patch_54">
    <path d="M 444.151515 384.48 
L 481.727273 384.48 
L 481.727273 382.638363 
L 444.151515 382.638363 
z
" clip-path="url(#pd32d0c52d3)" style="fill: #8172b3; stroke: #ffffff; stroke-linejoin: miter"/>
   </g>
   <g id="patch_55">
    <path d="M 491.121212 384.48 
L 528.69697 384.48 
L 528.69697 367.073969 
L 491.121212 367.073969 
z
" clip-path="url(#pd32d0c52d3)" style="fill: #8172b3; stroke: #ffffff; stroke-linejoin: miter"/>
   </g>
   <g id="patch_56">
    <path d="M 538.090909 384.48 
L 575.666667 384.48 
L 575.666667 364.874235 
L 538.090909 364.874235 
z
" clip-path="url(#pd32d0c52d3)" style="fill: #8172b3; stroke: #ffffff; stroke-linejoin: miter"/>
   </g>
   <g id="patch_57">
    <path d="M 585.060606 384.48 
L 622.636364 384.48 
L 622.636364 378.609781 
L 585.060606 378.609781 
z
" clip-path="url(#pd32d0c52d3)" style="fill: #8172b3; stroke: #ffffff; stroke-linejoin: miter"/>
   </g>
   <g id="patch_58">
    <path d="M 115.363636 384.48 
L 152.939394 384.48 
L 152.939394 382.331423 
L 115.363636 382.331423 
z
" clip-path="url(#pd32d0c52d3)" style="fill: #937860; stroke: #ffffff; stroke-linejoin: miter"/>
   </g>
   <g id="patch_59">
    <path d="M 162.333333 384.48 
L 199.909091 384.48 
L 199.909091 381.679176 
L 162.333333 381.679176 
z
" clip-path="url(#pd32d0c52d3)" style="fill: #937860; stroke: #ffffff; stroke-linejoin: miter"/>
   </g>
   <g id="patch_60">
    <path d="M 209.30303 384.48 
L 246.878788 384.48 
L 246.878788 377.778486 
L 209.30303 377.778486 
z
" clip-path="url(#pd32d0c52d3)" style="fill: #937860; stroke: #ffffff; stroke-linejoin: miter"/>
   </g>
   <g id="patch_61">
    <path d="M 256.272727 384.48 
L 293.848485 384.48 
L 293.848485 378.545835 
L 256.272727 378.545835 
z
" clip-path="url(#pd32d0c52d3)" style="fill: #937860; stroke: #ffffff; stroke-linejoin: miter"/>
   </g>
   <g id="patch_62">
    <path d="M 303.242424 384.48 
L 340.818182 384.48 
L 340.818182 362.968652 
L 303.242424 362.968652 
z
" clip-path="url(#pd32d0c52d3)" style="fill: #937860; stroke: #ffffff; stroke-linejoin: miter"/>
   </g>
   <g id="patch_63">
    <path d="M 350.212121 384.48 
L 387.787879 384.48 
L 387.787879 376.422836 
L 350.212121 376.422836 
z
" clip-path="url(#pd32d0c52d3)" style="fill: #937860; stroke: #ffffff; stroke-linejoin: miter"/>
   </g>
   <g id="patch_64">
    <path d="M 397.181818 384.48 
L 434.757576 384.48 
L 434.757576 364.887024 
L 397.181818 364.887024 
z
" clip-path="url(#pd32d0c52d3)" style="fill: #937860; stroke: #ffffff; stroke-linejoin: miter"/>
   </g>
   <g id="patch_65">
    <path d="M 444.151515 384.48 
L 481.727273 384.48 
L 481.727273 383.57197 
L 444.151515 383.57197 
z
" clip-path="url(#pd32d0c52d3)" style="fill: #937860; stroke: #ffffff; stroke-linejoin: miter"/>
   </g>
   <g id="patch_66">
    <path d="M 491.121212 384.48 
L 528.69697 384.48 
L 528.69697 379.07019 
L 491.121212 379.07019 
z
" clip-path="url(#pd32d0c52d3)" style="fill: #937860; stroke: #ffffff; stroke-linejoin: miter"/>
   </g>
   <g id="patch_67">
    <path d="M 538.090909 384.48 
L 575.666667 384.48 
L 575.666667 384.48 
L 538.090909 384.48 
z
" clip-path="url(#pd32d0c52d3)" style="fill: #937860; stroke: #ffffff; stroke-linejoin: miter"/>
   </g>
   <g id="patch_68">
    <path d="M 585.060606 384.48 
L 622.636364 384.48 
L 622.636364 380.592099 
L 585.060606 380.592099 
z
" clip-path="url(#pd32d0c52d3)" style="fill: #937860; stroke: #ffffff; stroke-linejoin: miter"/>
   </g>
   <g id="patch_69">
    <path d="M 303.242424 384.48 
L 340.818182 384.48 
L 340.818182 382.791832 
L 303.242424 382.791832 
z
" clip-path="url(#pd32d0c52d3)" style="fill: #da8bc3; stroke: #ffffff; stroke-linejoin: miter"/>
   </g>
   <g id="patch_70">
    <path d="M 303.242424 384.48 
L 340.818182 384.48 
L 340.818182 383.392922 
L 303.242424 383.392922 
z
" clip-path="url(#pd32d0c52d3)" style="fill: #8c8c8c; stroke: #ffffff; stroke-linejoin: miter"/>
   </g>
   <g id="patch_71">
    <path d="M 90 384.48 
L 90 51.84 
" style="fill: none; stroke: #ffffff; stroke-width: 1.25; stroke-linejoin: miter; stroke-linecap: square"/>
   </g>
   <g id="patch_72">
    <path d="M 648 384.48 
L 648 51.84 
" style="fill: none; stroke: #ffffff; stroke-width: 1.25; stroke-linejoin: miter; stroke-linecap: square"/>
   </g>
   <g id="patch_73">
    <path d="M 90 384.48 
L 648 384.48 
" style="fill: none; stroke: #ffffff; stroke-width: 1.25; stroke-linejoin: miter; stroke-linecap: square"/>
   </g>
   <g id="patch_74">
    <path d="M 90 51.84 
L 648 51.84 
" style="fill: none; stroke: #ffffff; stroke-width: 1.25; stroke-linejoin: miter; stroke-linecap: square"/>
   </g>
   <g id="text_20">
    <!-- Quantité totale de chaque polluant par département -->
    <g style="fill: #262626" transform="translate(231.914062 45.84) scale(0.12 -0.12)">
     <defs>
      <path id="ArialMT-64" d="M 2575 0 
L 2575 419 
Q 2259 -75 1647 -75 
Q 1250 -75 917 144 
Q 584 363 401 755 
Q 219 1147 219 1656 
Q 219 2153 384 2558 
Q 550 2963 881 3178 
Q 1213 3394 1622 3394 
Q 1922 3394 2156 3267 
Q 2391 3141 2538 2938 
L 2538 4581 
L 3097 4581 
L 3097 0 
L 2575 0 
z
M 797 1656 
Q 797 1019 1065 703 
Q 1334 388 1700 388 
Q 2069 388 2326 689 
Q 2584 991 2584 1609 
Q 2584 2291 2321 2609 
Q 2059 2928 1675 2928 
Q 1300 2928 1048 2622 
Q 797 2316 797 1656 
z
" transform="scale(0.015625)"/>
      <path id="ArialMT-63" d="M 2588 1216 
L 3141 1144 
Q 3050 572 2676 248 
Q 2303 -75 1759 -75 
Q 1078 -75 664 370 
Q 250 816 250 1647 
Q 250 2184 428 2587 
Q 606 2991 970 3192 
Q 1334 3394 1763 3394 
Q 2303 3394 2647 3120 
Q 2991 2847 3088 2344 
L 2541 2259 
Q 2463 2594 2264 2762 
Q 2066 2931 1784 2931 
Q 1359 2931 1093 2626 
Q 828 2322 828 1663 
Q 828 994 1084 691 
Q 1341 388 1753 388 
Q 2084 388 2306 591 
Q 2528 794 2588 1216 
z
" transform="scale(0.015625)"/>
      <path id="ArialMT-68" d="M 422 0 
L 422 4581 
L 984 4581 
L 984 2938 
Q 1378 3394 1978 3394 
Q 2347 3394 2619 3248 
Q 2891 3103 3008 2847 
Q 3125 2591 3125 2103 
L 3125 0 
L 2563 0 
L 2563 2103 
Q 2563 2525 2380 2717 
Q 2197 2909 1863 2909 
Q 1613 2909 1392 2779 
Q 1172 2650 1078 2428 
Q 984 2206 984 1816 
L 984 0 
L 422 0 
z
" transform="scale(0.015625)"/>
      <path id="ArialMT-71" d="M 2538 -1272 
L 2538 353 
Q 2406 169 2170 47 
Q 1934 -75 1669 -75 
Q 1078 -75 651 397 
Q 225 869 225 1691 
Q 225 2191 398 2587 
Q 572 2984 901 3189 
Q 1231 3394 1625 3394 
Q 2241 3394 2594 2875 
L 2594 3319 
L 3100 3319 
L 3100 -1272 
L 2538 -1272 
z
M 803 1669 
Q 803 1028 1072 708 
Q 1341 388 1716 388 
Q 2075 388 2334 692 
Q 2594 997 2594 1619 
Q 2594 2281 2320 2615 
Q 2047 2950 1678 2950 
Q 1313 2950 1058 2639 
Q 803 2328 803 1669 
z
" transform="scale(0.015625)"/>
     </defs>
     <use xlink:href="#ArialMT-51"/>
     <use xlink:href="#ArialMT-75" x="77.783203"/>
     <use xlink:href="#ArialMT-61" x="133.398438"/>
     <use xlink:href="#ArialMT-6e" x="189.013672"/>
     <use xlink:href="#ArialMT-74" x="244.628906"/>
     <use xlink:href="#ArialMT-69" x="272.412109"/>
     <use xlink:href="#ArialMT-74" x="294.628906"/>
     <use xlink:href="#ArialMT-e9" x="322.412109"/>
     <use xlink:href="#ArialMT-20" x="378.027344"/>
     <use xlink:href="#ArialMT-74" x="405.810547"/>
     <use xlink:href="#ArialMT-6f" x="433.59375"/>
     <use xlink:href="#ArialMT-74" x="489.208984"/>
     <use xlink:href="#ArialMT-61" x="516.992188"/>
     <use xlink:href="#ArialMT-6c" x="572.607422"/>
     <use xlink:href="#ArialMT-65" x="594.824219"/>
     <use xlink:href="#ArialMT-20" x="650.439453"/>
     <use xlink:href="#ArialMT-64" x="678.222656"/>
     <use xlink:href="#ArialMT-65" x="733.837891"/>
     <use xlink:href="#ArialMT-20" x="789.453125"/>
     <use xlink:href="#ArialMT-63" x="817.236328"/>
     <use xlink:href="#ArialMT-68" x="867.236328"/>
     <use xlink:href="#ArialMT-61" x="922.851562"/>
     <use xlink:href="#ArialMT-71" x="978.466797"/>
     <use xlink:href="#ArialMT-75" x="1034.082031"/>
     <use xlink:href="#ArialMT-65" x="1089.697266"/>
     <use xlink:href="#ArialMT-20" x="1145.3125"/>
     <use xlink:href="#ArialMT-70" x="1173.095703"/>
     <use xlink:href="#ArialMT-6f" x="1228.710938"/>
     <use xlink:href="#ArialMT-6c" x="1284.326172"/>
     <use xlink:href="#ArialMT-6c" x="1306.542969"/>
     <use xlink:href="#ArialMT-75" x="1328.759766"/>
     <use xlink:href="#ArialMT-61" x="1384.375"/>
     <use xlink:href="#ArialMT-6e" x="1439.990234"/>
     <use xlink:href="#ArialMT-74" x="1495.605469"/>
     <use xlink:href="#ArialMT-20" x="1523.388672"/>
     <use xlink:href="#ArialMT-70" x="1551.171875"/>
     <use xlink:href="#ArialMT-61" x="1606.787109"/>
     <use xlink:href="#ArialMT-72" x="1662.402344"/>
     <use xlink:href="#ArialMT-20" x="1695.703125"/>
     <use xlink:href="#ArialMT-64" x="1723.486328"/>
     <use xlink:href="#ArialMT-e9" x="1779.101562"/>
     <use xlink:href="#ArialMT-70" x="1834.716797"/>
     <use xlink:href="#ArialMT-61" x="1890.332031"/>
     <use xlink:href="#ArialMT-72" x="1945.947266"/>
     <use xlink:href="#ArialMT-74" x="1979.248047"/>
     <use xlink:href="#ArialMT-65" x="2007.03125"/>
     <use xlink:href="#ArialMT-6d" x="2062.646484"/>
     <use xlink:href="#ArialMT-65" x="2145.947266"/>
     <use xlink:href="#ArialMT-6e" x="2201.5625"/>
     <use xlink:href="#ArialMT-74" x="2257.177734"/>
    </g>
   </g>
   <g id="legend_1">
    <g id="patch_75">
     <path d="M 573.31 185.11875 
L 640.3 185.11875 
Q 642.5 185.11875 642.5 182.91875 
L 642.5 59.54 
Q 642.5 57.34 640.3 57.34 
L 573.31 57.34 
Q 571.11 57.34 571.11 59.54 
L 571.11 182.91875 
Q 571.11 185.11875 573.31 185.11875 
z
" style="fill: #eaeaf2; opacity: 0.8; stroke: #cccccc; stroke-linejoin: miter"/>
    </g>
    <g id="patch_76">
     <path d="M 575.51 69.613594 
L 597.51 69.613594 
L 597.51 61.913594 
L 575.51 61.913594 
z
" style="fill: #4c72b0; stroke: #ffffff; stroke-linejoin: miter"/>
    </g>
    <g id="text_21">
     <!-- NO -->
     <g style="fill: #262626" transform="translate(606.31 69.613594) scale(0.11 -0.11)">
      <use xlink:href="#ArialMT-4e"/>
      <use xlink:href="#ArialMT-4f" x="72.216797"/>
     </g>
    </g>
    <g id="patch_77">
     <path d="M 575.51 85.173437 
L 597.51 85.173437 
L 597.51 77.473437 
L 575.51 77.473437 
z
" style="fill: #dd8452; stroke: #ffffff; stroke-linejoin: miter"/>
    </g>
    <g id="text_22">
     <!-- NO2 -->
     <g style="fill: #262626" transform="translate(606.31 85.173437) scale(0.11 -0.11)">
      <use xlink:href="#ArialMT-4e"/>
      <use xlink:href="#ArialMT-4f" x="72.216797"/>
      <use xlink:href="#ArialMT-32" x="150"/>
     </g>
    </g>
    <g id="patch_78">
     <path d="M 575.51 100.733281 
L 597.51 100.733281 
L 597.51 93.033281 
L 575.51 93.033281 
z
" style="fill: #55a868; stroke: #ffffff; stroke-linejoin: miter"/>
    </g>
    <g id="text_23">
     <!-- NOX -->
     <g style="fill: #262626" transform="translate(606.31 100.733281) scale(0.11 -0.11)">
      <defs>
       <path id="ArialMT-58" d="M 28 0 
L 1800 2388 
L 238 4581 
L 959 4581 
L 1791 3406 
Q 2050 3041 2159 2844 
Q 2313 3094 2522 3366 
L 3444 4581 
L 4103 4581 
L 2494 2422 
L 4228 0 
L 3478 0 
L 2325 1634 
Q 2228 1775 2125 1941 
Q 1972 1691 1906 1597 
L 756 0 
L 28 0 
z
" transform="scale(0.015625)"/>
      </defs>
      <use xlink:href="#ArialMT-4e"/>
      <use xlink:href="#ArialMT-4f" x="72.216797"/>
      <use xlink:href="#ArialMT-58" x="150"/>
     </g>
    </g>
    <g id="patch_79">
     <path d="M 575.51 116.293125 
L 597.51 116.293125 
L 597.51 108.593125 
L 575.51 108.593125 
z
" style="fill: #c44e52; stroke: #ffffff; stroke-linejoin: miter"/>
    </g>
    <g id="text_24">
     <!-- O3 -->
     <g style="fill: #262626" transform="translate(606.31 116.293125) scale(0.11 -0.11)">
      <defs>
       <path id="ArialMT-33" d="M 269 1209 
L 831 1284 
Q 928 806 1161 595 
Q 1394 384 1728 384 
Q 2125 384 2398 659 
Q 2672 934 2672 1341 
Q 2672 1728 2419 1979 
Q 2166 2231 1775 2231 
Q 1616 2231 1378 2169 
L 1441 2663 
Q 1497 2656 1531 2656 
Q 1891 2656 2178 2843 
Q 2466 3031 2466 3422 
Q 2466 3731 2256 3934 
Q 2047 4138 1716 4138 
Q 1388 4138 1169 3931 
Q 950 3725 888 3313 
L 325 3413 
Q 428 3978 793 4289 
Q 1159 4600 1703 4600 
Q 2078 4600 2393 4439 
Q 2709 4278 2876 4000 
Q 3044 3722 3044 3409 
Q 3044 3113 2884 2869 
Q 2725 2625 2413 2481 
Q 2819 2388 3044 2092 
Q 3269 1797 3269 1353 
Q 3269 753 2831 336 
Q 2394 -81 1725 -81 
Q 1122 -81 723 278 
Q 325 638 269 1209 
z
" transform="scale(0.015625)"/>
      </defs>
      <use xlink:href="#ArialMT-4f"/>
      <use xlink:href="#ArialMT-33" x="77.783203"/>
     </g>
    </g>
    <g id="patch_80">
     <path d="M 575.51 131.852969 
L 597.51 131.852969 
L 597.51 124.152969 
L 575.51 124.152969 
z
" style="fill: #8172b3; stroke: #ffffff; stroke-linejoin: miter"/>
    </g>
    <g id="text_25">
     <!-- PM10 -->
     <g style="fill: #262626" transform="translate(606.31 131.852969) scale(0.11 -0.11)">
      <defs>
       <path id="ArialMT-4d" d="M 475 0 
L 475 4581 
L 1388 4581 
L 2472 1338 
Q 2622 884 2691 659 
Q 2769 909 2934 1394 
L 4031 4581 
L 4847 4581 
L 4847 0 
L 4263 0 
L 4263 3834 
L 2931 0 
L 2384 0 
L 1059 3900 
L 1059 0 
L 475 0 
z
" transform="scale(0.015625)"/>
      </defs>
      <use xlink:href="#ArialMT-50"/>
      <use xlink:href="#ArialMT-4d" x="66.699219"/>
      <use xlink:href="#ArialMT-31" x="150"/>
      <use xlink:href="#ArialMT-30" x="205.615234"/>
     </g>
    </g>
    <g id="patch_81">
     <path d="M 575.51 147.412812 
L 597.51 147.412812 
L 597.51 139.712812 
L 575.51 139.712812 
z
" style="fill: #937860; stroke: #ffffff; stroke-linejoin: miter"/>
    </g>
    <g id="text_26">
     <!-- PM2.5 -->
     <g style="fill: #262626" transform="translate(606.31 147.412812) scale(0.11 -0.11)">
      <defs>
       <path id="ArialMT-2e" d="M 581 0 
L 581 641 
L 1222 641 
L 1222 0 
L 581 0 
z
" transform="scale(0.015625)"/>
      </defs>
      <use xlink:href="#ArialMT-50"/>
      <use xlink:href="#ArialMT-4d" x="66.699219"/>
      <use xlink:href="#ArialMT-32" x="150"/>
      <use xlink:href="#ArialMT-2e" x="205.615234"/>
      <use xlink:href="#ArialMT-35" x="233.398438"/>
     </g>
    </g>
    <g id="patch_82">
     <path d="M 575.51 162.972656 
L 597.51 162.972656 
L 597.51 155.272656 
L 575.51 155.272656 
z
" style="fill: #da8bc3; stroke: #ffffff; stroke-linejoin: miter"/>
    </g>
    <g id="text_27">
     <!-- H2S -->
     <g style="fill: #262626" transform="translate(606.31 162.972656) scale(0.11 -0.11)">
      <use xlink:href="#ArialMT-48"/>
      <use xlink:href="#ArialMT-32" x="72.216797"/>
      <use xlink:href="#ArialMT-53" x="127.832031"/>
     </g>
    </g>
    <g id="patch_83">
     <path d="M 575.51 178.5325 
L 597.51 178.5325 
L 597.51 170.8325 
L 575.51 170.8325 
z
" style="fill: #8c8c8c; stroke: #ffffff; stroke-linejoin: miter"/>
    </g>
    <g id="text_28">
     <!-- SO2 -->
     <g style="fill: #262626" transform="translate(606.31 178.5325) scale(0.11 -0.11)">
      <use xlink:href="#ArialMT-53"/>
      <use xlink:href="#ArialMT-4f" x="66.699219"/>
      <use xlink:href="#ArialMT-32" x="144.482422"/>
     </g>
    </g>
   </g>
  </g>
 </g>
 <defs>
  <clipPath id="pd32d0c52d3">
   <rect x="90" y="51.84" width="558" height="332.64"/>
  </clipPath>
 </defs>
</svg>
