<?xml version="1.0" encoding="utf-8" standalone="no"?>
<!DOCTYPE svg PUBLIC "-//W3C//DTD SVG 1.1//EN"
  "http://www.w3.org/Graphics/SVG/1.1/DTD/svg11.dtd">
<svg xmlns:xlink="http://www.w3.org/1999/xlink" width="944.062187pt" height="507.197344pt" viewBox="0 0 944.062187 507.197344" xmlns="http://www.w3.org/2000/svg" version="1.1">
 <metadata>
  <rdf:RDF xmlns:dc="http://purl.org/dc/elements/1.1/" xmlns:cc="http://creativecommons.org/ns#" xmlns:rdf="http://www.w3.org/1999/02/22-rdf-syntax-ns#">
   <cc:Work>
    <dc:type rdf:resource="http://purl.org/dc/dcmitype/StillImage"/>
    <dc:date>2023-11-24T14:59:26.120054</dc:date>
    <dc:format>image/svg+xml</dc:format>
    <dc:creator>
     <cc:Agent>
      <dc:title>Matplotlib v3.8.0, https://matplotlib.org/</dc:title>
     </cc:Agent>
    </dc:creator>
   </cc:Work>
  </rdf:RDF>
 </metadata>
 <defs>
  <style type="text/css">*{stroke-linejoin: round; stroke-linecap: butt}</style>
 </defs>
 <g id="figure_1">
  <g id="patch_1">
   <path d="M 0 507.197344 
L 944.062187 507.197344 
L 944.062187 0 
L 0 0 
z
" style="fill: #ffffff"/>
  </g>
  <g id="axes_1">
   <g id="patch_2">
    <path d="M 44.062187 465.463125 
L 936.862187 465.463125 
L 936.862187 21.943125 
L 44.062187 21.943125 
z
" style="fill: #eaeaf2"/>
   </g>
   <g id="matplotlib.axis_1">
    <g id="xtick_1">
     <g id="text_1">
      <!-- 2019 -->
      <g style="fill: #262626" transform="translate(143.428125 482.836719) scale(0.11 -0.11)">
       <defs>
        <path id="ArialMT-32" d="M 3222 541 
L 3222 0 
L 194 0 
Q 188 203 259 391 
Q 375 700 629 1000 
Q 884 1300 1366 1694 
Q 2113 2306 2375 2664 
Q 2638 3022 2638 3341 
Q 2638 3675 2398 3904 
Q 2159 4134 1775 4134 
Q 1369 4134 1125 3890 
Q 881 3647 878 3216 
L 300 3275 
Q 359 3922 746 4261 
Q 1134 4600 1788 4600 
Q 2447 4600 2831 4234 
Q 3216 3869 3216 3328 
Q 3216 3053 3103 2787 
Q 2991 2522 2730 2228 
Q 2469 1934 1863 1422 
Q 1356 997 1212 845 
Q 1069 694 975 541 
L 3222 541 
z
" transform="scale(0.015625)"/>
        <path id="ArialMT-30" d="M 266 2259 
Q 266 3072 433 3567 
Q 600 4063 929 4331 
Q 1259 4600 1759 4600 
Q 2128 4600 2406 4451 
Q 2684 4303 2865 4023 
Q 3047 3744 3150 3342 
Q 3253 2941 3253 2259 
Q 3253 1453 3087 958 
Q 2922 463 2592 192 
Q 2263 -78 1759 -78 
Q 1097 -78 719 397 
Q 266 969 266 2259 
z
M 844 2259 
Q 844 1131 1108 757 
Q 1372 384 1759 384 
Q 2147 384 2411 759 
Q 2675 1134 2675 2259 
Q 2675 3391 2411 3762 
Q 2147 4134 1753 4134 
Q 1366 4134 1134 3806 
Q 844 3388 844 2259 
z
" transform="scale(0.015625)"/>
        <path id="ArialMT-31" d="M 2384 0 
L 1822 0 
L 1822 3584 
Q 1619 3391 1289 3197 
Q 959 3003 697 2906 
L 697 3450 
Q 1169 3672 1522 3987 
Q 1875 4303 2022 4600 
L 2384 4600 
L 2384 0 
z
" transform="scale(0.015625)"/>
        <path id="ArialMT-39" d="M 350 1059 
L 891 1109 
Q 959 728 1153 556 
Q 1347 384 1650 384 
Q 1909 384 2104 503 
Q 2300 622 2425 820 
Q 2550 1019 2634 1356 
Q 2719 1694 2719 2044 
Q 2719 2081 2716 2156 
Q 2547 1888 2255 1720 
Q 1963 1553 1622 1553 
Q 1053 1553 659 1965 
Q 266 2378 266 3053 
Q 266 3750 677 4175 
Q 1088 4600 1706 4600 
Q 2153 4600 2523 4359 
Q 2894 4119 3086 3673 
Q 3278 3228 3278 2384 
Q 3278 1506 3087 986 
Q 2897 466 2520 194 
Q 2144 -78 1638 -78 
Q 1100 -78 759 220 
Q 419 519 350 1059 
z
M 2653 3081 
Q 2653 3566 2395 3850 
Q 2138 4134 1775 4134 
Q 1400 4134 1122 3828 
Q 844 3522 844 3034 
Q 844 2597 1108 2323 
Q 1372 2050 1759 2050 
Q 2150 2050 2401 2323 
Q 2653 2597 2653 3081 
z
" transform="scale(0.015625)"/>
       </defs>
       <use xlink:href="#ArialMT-32"/>
       <use xlink:href="#ArialMT-30" x="55.615234"/>
       <use xlink:href="#ArialMT-31" x="111.230469"/>
       <use xlink:href="#ArialMT-39" x="166.845703"/>
      </g>
     </g>
    </g>
    <g id="xtick_2">
     <g id="text_2">
      <!-- 2020 -->
      <g style="fill: #262626" transform="translate(366.628125 482.836719) scale(0.11 -0.11)">
       <use xlink:href="#ArialMT-32"/>
       <use xlink:href="#ArialMT-30" x="55.615234"/>
       <use xlink:href="#ArialMT-32" x="111.230469"/>
       <use xlink:href="#ArialMT-30" x="166.845703"/>
      </g>
     </g>
    </g>
    <g id="xtick_3">
     <g id="text_3">
      <!-- 2021 -->
      <g style="fill: #262626" transform="translate(589.828125 482.836719) scale(0.11 -0.11)">
       <use xlink:href="#ArialMT-32"/>
       <use xlink:href="#ArialMT-30" x="55.615234"/>
       <use xlink:href="#ArialMT-32" x="111.230469"/>
       <use xlink:href="#ArialMT-31" x="166.845703"/>
      </g>
     </g>
    </g>
    <g id="xtick_4">
     <g id="text_4">
      <!-- 2022 -->
      <g style="fill: #262626" transform="translate(813.028125 482.836719) scale(0.11 -0.11)">
       <use xlink:href="#ArialMT-32"/>
       <use xlink:href="#ArialMT-30" x="55.615234"/>
       <use xlink:href="#ArialMT-32" x="111.230469"/>
       <use xlink:href="#ArialMT-32" x="166.845703"/>
      </g>
     </g>
    </g>
    <g id="text_5">
     <!-- Année -->
     <g style="fill: #262626" transform="translate(473.11375 497.612344) scale(0.12 -0.12)">
      <defs>
       <path id="ArialMT-41" d="M -9 0 
L 1750 4581 
L 2403 4581 
L 4278 0 
L 3588 0 
L 3053 1388 
L 1138 1388 
L 634 0 
L -9 0 
z
M 1313 1881 
L 2866 1881 
L 2388 3150 
Q 2169 3728 2063 4100 
Q 1975 3659 1816 3225 
L 1313 1881 
z
" transform="scale(0.015625)"/>
       <path id="ArialMT-6e" d="M 422 0 
L 422 3319 
L 928 3319 
L 928 2847 
Q 1294 3394 1984 3394 
Q 2284 3394 2536 3286 
Q 2788 3178 2913 3003 
Q 3038 2828 3088 2588 
Q 3119 2431 3119 2041 
L 3119 0 
L 2556 0 
L 2556 2019 
Q 2556 2363 2490 2533 
Q 2425 2703 2258 2804 
Q 2091 2906 1866 2906 
Q 1506 2906 1245 2678 
Q 984 2450 984 1813 
L 984 0 
L 422 0 
z
" transform="scale(0.015625)"/>
       <path id="ArialMT-e9" d="M 2694 1069 
L 3275 997 
Q 3138 488 2766 206 
Q 2394 -75 1816 -75 
Q 1088 -75 661 373 
Q 234 822 234 1631 
Q 234 2469 665 2931 
Q 1097 3394 1784 3394 
Q 2450 3394 2872 2941 
Q 3294 2488 3294 1666 
Q 3294 1616 3291 1516 
L 816 1516 
Q 847 969 1125 678 
Q 1403 388 1819 388 
Q 2128 388 2347 550 
Q 2566 713 2694 1069 
z
M 847 1978 
L 2700 1978 
Q 2663 2397 2488 2606 
Q 2219 2931 1791 2931 
Q 1403 2931 1139 2672 
Q 875 2413 847 1978 
z
M 1454 3731 
L 1869 4606 
L 2607 4606 
L 1919 3731 
L 1454 3731 
z
" transform="scale(0.015625)"/>
       <path id="ArialMT-65" d="M 2694 1069 
L 3275 997 
Q 3138 488 2766 206 
Q 2394 -75 1816 -75 
Q 1088 -75 661 373 
Q 234 822 234 1631 
Q 234 2469 665 2931 
Q 1097 3394 1784 3394 
Q 2450 3394 2872 2941 
Q 3294 2488 3294 1666 
Q 3294 1616 3291 1516 
L 816 1516 
Q 847 969 1125 678 
Q 1403 388 1819 388 
Q 2128 388 2347 550 
Q 2566 713 2694 1069 
z
M 847 1978 
L 2700 1978 
Q 2663 2397 2488 2606 
Q 2219 2931 1791 2931 
Q 1403 2931 1139 2672 
Q 875 2413 847 1978 
z
" transform="scale(0.015625)"/>
      </defs>
      <use xlink:href="#ArialMT-41"/>
      <use xlink:href="#ArialMT-6e" x="66.699219"/>
      <use xlink:href="#ArialMT-6e" x="122.314453"/>
      <use xlink:href="#ArialMT-e9" x="177.929688"/>
      <use xlink:href="#ArialMT-65" x="233.544922"/>
     </g>
    </g>
   </g>
   <g id="matplotlib.axis_2">
    <g id="ytick_1">
     <g id="line2d_1">
      <path d="M 44.062187 465.463125 
L 936.862187 465.463125 
" clip-path="url(#pb71d1a70af)" style="fill: none; stroke: #ffffff; stroke-linecap: round"/>
     </g>
     <g id="text_6">
      <!-- 0 -->
      <g style="fill: #262626" transform="translate(28.445156 469.399922) scale(0.11 -0.11)">
       <use xlink:href="#ArialMT-30"/>
      </g>
     </g>
    </g>
    <g id="ytick_2">
     <g id="line2d_2">
      <path d="M 44.062187 398.355299 
L 936.862187 398.355299 
" clip-path="url(#pb71d1a70af)" style="fill: none; stroke: #ffffff; stroke-linecap: round"/>
     </g>
     <g id="text_7">
      <!-- 10 -->
      <g style="fill: #262626" transform="translate(22.328125 402.292096) scale(0.11 -0.11)">
       <use xlink:href="#ArialMT-31"/>
       <use xlink:href="#ArialMT-30" x="55.615234"/>
      </g>
     </g>
    </g>
    <g id="ytick_3">
     <g id="line2d_3">
      <path d="M 44.062187 331.247473 
L 936.862187 331.247473 
" clip-path="url(#pb71d1a70af)" style="fill: none; stroke: #ffffff; stroke-linecap: round"/>
     </g>
     <g id="text_8">
      <!-- 20 -->
      <g style="fill: #262626" transform="translate(22.328125 335.184269) scale(0.11 -0.11)">
       <use xlink:href="#ArialMT-32"/>
       <use xlink:href="#ArialMT-30" x="55.615234"/>
      </g>
     </g>
    </g>
    <g id="ytick_4">
     <g id="line2d_4">
      <path d="M 44.062187 264.139646 
L 936.862187 264.139646 
" clip-path="url(#pb71d1a70af)" style="fill: none; stroke: #ffffff; stroke-linecap: round"/>
     </g>
     <g id="text_9">
      <!-- 30 -->
      <g style="fill: #262626" transform="translate(22.328125 268.076443) scale(0.11 -0.11)">
       <defs>
        <path id="ArialMT-33" d="M 269 1209 
L 831 1284 
Q 928 806 1161 595 
Q 1394 384 1728 384 
Q 2125 384 2398 659 
Q 2672 934 2672 1341 
Q 2672 1728 2419 1979 
Q 2166 2231 1775 2231 
Q 1616 2231 1378 2169 
L 1441 2663 
Q 1497 2656 1531 2656 
Q 1891 2656 2178 2843 
Q 2466 3031 2466 3422 
Q 2466 3731 2256 3934 
Q 2047 4138 1716 4138 
Q 1388 4138 1169 3931 
Q 950 3725 888 3313 
L 325 3413 
Q 428 3978 793 4289 
Q 1159 4600 1703 4600 
Q 2078 4600 2393 4439 
Q 2709 4278 2876 4000 
Q 3044 3722 3044 3409 
Q 3044 3113 2884 2869 
Q 2725 2625 2413 2481 
Q 2819 2388 3044 2092 
Q 3269 1797 3269 1353 
Q 3269 753 2831 336 
Q 2394 -81 1725 -81 
Q 1122 -81 723 278 
Q 325 638 269 1209 
z
" transform="scale(0.015625)"/>
       </defs>
       <use xlink:href="#ArialMT-33"/>
       <use xlink:href="#ArialMT-30" x="55.615234"/>
      </g>
     </g>
    </g>
    <g id="ytick_5">
     <g id="line2d_5">
      <path d="M 44.062187 197.03182 
L 936.862187 197.03182 
" clip-path="url(#pb71d1a70af)" style="fill: none; stroke: #ffffff; stroke-linecap: round"/>
     </g>
     <g id="text_10">
      <!-- 40 -->
      <g style="fill: #262626" transform="translate(22.328125 200.968617) scale(0.11 -0.11)">
       <defs>
        <path id="ArialMT-34" d="M 2069 0 
L 2069 1097 
L 81 1097 
L 81 1613 
L 2172 4581 
L 2631 4581 
L 2631 1613 
L 3250 1613 
L 3250 1097 
L 2631 1097 
L 2631 0 
L 2069 0 
z
M 2069 1613 
L 2069 3678 
L 634 1613 
L 2069 1613 
z
" transform="scale(0.015625)"/>
       </defs>
       <use xlink:href="#ArialMT-34"/>
       <use xlink:href="#ArialMT-30" x="55.615234"/>
      </g>
     </g>
    </g>
    <g id="ytick_6">
     <g id="line2d_6">
      <path d="M 44.062187 129.923994 
L 936.862187 129.923994 
" clip-path="url(#pb71d1a70af)" style="fill: none; stroke: #ffffff; stroke-linecap: round"/>
     </g>
     <g id="text_11">
      <!-- 50 -->
      <g style="fill: #262626" transform="translate(22.328125 133.860791) scale(0.11 -0.11)">
       <defs>
        <path id="ArialMT-35" d="M 266 1200 
L 856 1250 
Q 922 819 1161 601 
Q 1400 384 1738 384 
Q 2144 384 2425 690 
Q 2706 997 2706 1503 
Q 2706 1984 2436 2262 
Q 2166 2541 1728 2541 
Q 1456 2541 1237 2417 
Q 1019 2294 894 2097 
L 366 2166 
L 809 4519 
L 3088 4519 
L 3088 3981 
L 1259 3981 
L 1013 2750 
Q 1425 3038 1878 3038 
Q 2478 3038 2890 2622 
Q 3303 2206 3303 1553 
Q 3303 931 2941 478 
Q 2500 -78 1738 -78 
Q 1113 -78 717 272 
Q 322 622 266 1200 
z
" transform="scale(0.015625)"/>
       </defs>
       <use xlink:href="#ArialMT-35"/>
       <use xlink:href="#ArialMT-30" x="55.615234"/>
      </g>
     </g>
    </g>
    <g id="ytick_7">
     <g id="line2d_7">
      <path d="M 44.062187 62.816168 
L 936.862187 62.816168 
" clip-path="url(#pb71d1a70af)" style="fill: none; stroke: #ffffff; stroke-linecap: round"/>
     </g>
     <g id="text_12">
      <!-- 60 -->
      <g style="fill: #262626" transform="translate(22.328125 66.752965) scale(0.11 -0.11)">
       <defs>
        <path id="ArialMT-36" d="M 3184 3459 
L 2625 3416 
Q 2550 3747 2413 3897 
Q 2184 4138 1850 4138 
Q 1581 4138 1378 3988 
Q 1113 3794 959 3422 
Q 806 3050 800 2363 
Q 1003 2672 1297 2822 
Q 1591 2972 1913 2972 
Q 2475 2972 2870 2558 
Q 3266 2144 3266 1488 
Q 3266 1056 3080 686 
Q 2894 316 2569 119 
Q 2244 -78 1831 -78 
Q 1128 -78 684 439 
Q 241 956 241 2144 
Q 241 3472 731 4075 
Q 1159 4600 1884 4600 
Q 2425 4600 2770 4297 
Q 3116 3994 3184 3459 
z
M 888 1484 
Q 888 1194 1011 928 
Q 1134 663 1356 523 
Q 1578 384 1822 384 
Q 2178 384 2434 671 
Q 2691 959 2691 1453 
Q 2691 1928 2437 2201 
Q 2184 2475 1800 2475 
Q 1419 2475 1153 2201 
Q 888 1928 888 1484 
z
" transform="scale(0.015625)"/>
       </defs>
       <use xlink:href="#ArialMT-36"/>
       <use xlink:href="#ArialMT-30" x="55.615234"/>
      </g>
     </g>
    </g>
    <g id="text_13">
     <!-- Quantité de polluants -->
     <g style="fill: #262626" transform="translate(15.943125 300.405937) rotate(-90) scale(0.12 -0.12)">
      <defs>
       <path id="ArialMT-51" d="M 3966 491 
Q 4388 200 4744 66 
L 4566 -356 
Q 4072 -178 3581 206 
Q 3072 -78 2456 -78 
Q 1834 -78 1328 222 
Q 822 522 548 1065 
Q 275 1609 275 2291 
Q 275 2969 550 3525 
Q 825 4081 1333 4372 
Q 1841 4663 2469 4663 
Q 3103 4663 3612 4361 
Q 4122 4059 4389 3517 
Q 4656 2975 4656 2294 
Q 4656 1728 4484 1276 
Q 4313 825 3966 491 
z
M 2631 1266 
Q 3156 1119 3497 828 
Q 4031 1316 4031 2294 
Q 4031 2850 3842 3265 
Q 3653 3681 3289 3911 
Q 2925 4141 2472 4141 
Q 1794 4141 1347 3677 
Q 900 3213 900 2291 
Q 900 1397 1342 919 
Q 1784 441 2472 441 
Q 2797 441 3084 563 
Q 2800 747 2484 825 
L 2631 1266 
z
" transform="scale(0.015625)"/>
       <path id="ArialMT-75" d="M 2597 0 
L 2597 488 
Q 2209 -75 1544 -75 
Q 1250 -75 995 37 
Q 741 150 617 320 
Q 494 491 444 738 
Q 409 903 409 1263 
L 409 3319 
L 972 3319 
L 972 1478 
Q 972 1038 1006 884 
Q 1059 663 1231 536 
Q 1403 409 1656 409 
Q 1909 409 2131 539 
Q 2353 669 2445 892 
Q 2538 1116 2538 1541 
L 2538 3319 
L 3100 3319 
L 3100 0 
L 2597 0 
z
" transform="scale(0.015625)"/>
       <path id="ArialMT-61" d="M 2588 409 
Q 2275 144 1986 34 
Q 1697 -75 1366 -75 
Q 819 -75 525 192 
Q 231 459 231 875 
Q 231 1119 342 1320 
Q 453 1522 633 1644 
Q 813 1766 1038 1828 
Q 1203 1872 1538 1913 
Q 2219 1994 2541 2106 
Q 2544 2222 2544 2253 
Q 2544 2597 2384 2738 
Q 2169 2928 1744 2928 
Q 1347 2928 1158 2789 
Q 969 2650 878 2297 
L 328 2372 
Q 403 2725 575 2942 
Q 747 3159 1072 3276 
Q 1397 3394 1825 3394 
Q 2250 3394 2515 3294 
Q 2781 3194 2906 3042 
Q 3031 2891 3081 2659 
Q 3109 2516 3109 2141 
L 3109 1391 
Q 3109 606 3145 398 
Q 3181 191 3288 0 
L 2700 0 
Q 2613 175 2588 409 
z
M 2541 1666 
Q 2234 1541 1622 1453 
Q 1275 1403 1131 1340 
Q 988 1278 909 1158 
Q 831 1038 831 891 
Q 831 666 1001 516 
Q 1172 366 1500 366 
Q 1825 366 2078 508 
Q 2331 650 2450 897 
Q 2541 1088 2541 1459 
L 2541 1666 
z
" transform="scale(0.015625)"/>
       <path id="ArialMT-74" d="M 1650 503 
L 1731 6 
Q 1494 -44 1306 -44 
Q 1000 -44 831 53 
Q 663 150 594 308 
Q 525 466 525 972 
L 525 2881 
L 113 2881 
L 113 3319 
L 525 3319 
L 525 4141 
L 1084 4478 
L 1084 3319 
L 1650 3319 
L 1650 2881 
L 1084 2881 
L 1084 941 
Q 1084 700 1114 631 
Q 1144 563 1211 522 
Q 1278 481 1403 481 
Q 1497 481 1650 503 
z
" transform="scale(0.015625)"/>
       <path id="ArialMT-69" d="M 425 3934 
L 425 4581 
L 988 4581 
L 988 3934 
L 425 3934 
z
M 425 0 
L 425 3319 
L 988 3319 
L 988 0 
L 425 0 
z
" transform="scale(0.015625)"/>
       <path id="ArialMT-20" transform="scale(0.015625)"/>
       <path id="ArialMT-64" d="M 2575 0 
L 2575 419 
Q 2259 -75 1647 -75 
Q 1250 -75 917 144 
Q 584 363 401 755 
Q 219 1147 219 1656 
Q 219 2153 384 2558 
Q 550 2963 881 3178 
Q 1213 3394 1622 3394 
Q 1922 3394 2156 3267 
Q 2391 3141 2538 2938 
L 2538 4581 
L 3097 4581 
L 3097 0 
L 2575 0 
z
M 797 1656 
Q 797 1019 1065 703 
Q 1334 388 1700 388 
Q 2069 388 2326 689 
Q 2584 991 2584 1609 
Q 2584 2291 2321 2609 
Q 2059 2928 1675 2928 
Q 1300 2928 1048 2622 
Q 797 2316 797 1656 
z
" transform="scale(0.015625)"/>
       <path id="ArialMT-70" d="M 422 -1272 
L 422 3319 
L 934 3319 
L 934 2888 
Q 1116 3141 1344 3267 
Q 1572 3394 1897 3394 
Q 2322 3394 2647 3175 
Q 2972 2956 3137 2557 
Q 3303 2159 3303 1684 
Q 3303 1175 3120 767 
Q 2938 359 2589 142 
Q 2241 -75 1856 -75 
Q 1575 -75 1351 44 
Q 1128 163 984 344 
L 984 -1272 
L 422 -1272 
z
M 931 1641 
Q 931 1000 1190 694 
Q 1450 388 1819 388 
Q 2194 388 2461 705 
Q 2728 1022 2728 1688 
Q 2728 2322 2467 2637 
Q 2206 2953 1844 2953 
Q 1484 2953 1207 2617 
Q 931 2281 931 1641 
z
" transform="scale(0.015625)"/>
       <path id="ArialMT-6f" d="M 213 1659 
Q 213 2581 725 3025 
Q 1153 3394 1769 3394 
Q 2453 3394 2887 2945 
Q 3322 2497 3322 1706 
Q 3322 1066 3130 698 
Q 2938 331 2570 128 
Q 2203 -75 1769 -75 
Q 1072 -75 642 372 
Q 213 819 213 1659 
z
M 791 1659 
Q 791 1022 1069 705 
Q 1347 388 1769 388 
Q 2188 388 2466 706 
Q 2744 1025 2744 1678 
Q 2744 2294 2464 2611 
Q 2184 2928 1769 2928 
Q 1347 2928 1069 2612 
Q 791 2297 791 1659 
z
" transform="scale(0.015625)"/>
       <path id="ArialMT-6c" d="M 409 0 
L 409 4581 
L 972 4581 
L 972 0 
L 409 0 
z
" transform="scale(0.015625)"/>
       <path id="ArialMT-73" d="M 197 991 
L 753 1078 
Q 800 744 1014 566 
Q 1228 388 1613 388 
Q 2000 388 2187 545 
Q 2375 703 2375 916 
Q 2375 1106 2209 1216 
Q 2094 1291 1634 1406 
Q 1016 1563 777 1677 
Q 538 1791 414 1992 
Q 291 2194 291 2438 
Q 291 2659 392 2848 
Q 494 3038 669 3163 
Q 800 3259 1026 3326 
Q 1253 3394 1513 3394 
Q 1903 3394 2198 3281 
Q 2494 3169 2634 2976 
Q 2775 2784 2828 2463 
L 2278 2388 
Q 2241 2644 2061 2787 
Q 1881 2931 1553 2931 
Q 1166 2931 1000 2803 
Q 834 2675 834 2503 
Q 834 2394 903 2306 
Q 972 2216 1119 2156 
Q 1203 2125 1616 2013 
Q 2213 1853 2448 1751 
Q 2684 1650 2818 1456 
Q 2953 1263 2953 975 
Q 2953 694 2789 445 
Q 2625 197 2315 61 
Q 2006 -75 1616 -75 
Q 969 -75 630 194 
Q 291 463 197 991 
z
" transform="scale(0.015625)"/>
      </defs>
      <use xlink:href="#ArialMT-51"/>
      <use xlink:href="#ArialMT-75" x="77.783203"/>
      <use xlink:href="#ArialMT-61" x="133.398438"/>
      <use xlink:href="#ArialMT-6e" x="189.013672"/>
      <use xlink:href="#ArialMT-74" x="244.628906"/>
      <use xlink:href="#ArialMT-69" x="272.412109"/>
      <use xlink:href="#ArialMT-74" x="294.628906"/>
      <use xlink:href="#ArialMT-e9" x="322.412109"/>
      <use xlink:href="#ArialMT-20" x="378.027344"/>
      <use xlink:href="#ArialMT-64" x="405.810547"/>
      <use xlink:href="#ArialMT-65" x="461.425781"/>
      <use xlink:href="#ArialMT-20" x="517.041016"/>
      <use xlink:href="#ArialMT-70" x="544.824219"/>
      <use xlink:href="#ArialMT-6f" x="600.439453"/>
      <use xlink:href="#ArialMT-6c" x="656.054688"/>
      <use xlink:href="#ArialMT-6c" x="678.271484"/>
      <use xlink:href="#ArialMT-75" x="700.488281"/>
      <use xlink:href="#ArialMT-61" x="756.103516"/>
      <use xlink:href="#ArialMT-6e" x="811.71875"/>
      <use xlink:href="#ArialMT-74" x="867.333984"/>
      <use xlink:href="#ArialMT-73" x="895.117188"/>
     </g>
    </g>
   </g>
   <g id="patch_3">
    <path d="M 66.382187 465.463125 
L 88.702187 465.463125 
L 88.702187 374.235957 
L 66.382187 374.235957 
z
" clip-path="url(#pb71d1a70af)" style="fill: #cb3335; stroke: #ffffff; stroke-linejoin: miter"/>
   </g>
   <g id="patch_4">
    <path d="M 289.582187 465.463125 
L 311.902187 465.463125 
L 311.902187 387.60127 
L 289.582187 387.60127 
z
" clip-path="url(#pb71d1a70af)" style="fill: #cb3335; stroke: #ffffff; stroke-linejoin: miter"/>
   </g>
   <g id="patch_5">
    <path d="M 512.782187 465.463125 
L 535.102188 465.463125 
L 535.102188 372.836665 
L 512.782187 372.836665 
z
" clip-path="url(#pb71d1a70af)" style="fill: #cb3335; stroke: #ffffff; stroke-linejoin: miter"/>
   </g>
   <g id="patch_6">
    <path d="M 735.982187 465.463125 
L 758.302187 465.463125 
L 758.302187 395.690159 
L 735.982187 395.690159 
z
" clip-path="url(#pb71d1a70af)" style="fill: #cb3335; stroke: #ffffff; stroke-linejoin: miter"/>
   </g>
   <g id="patch_7">
    <path d="M 88.702187 465.463125 
L 111.022187 465.463125 
L 111.022187 323.574811 
L 88.702187 323.574811 
z
" clip-path="url(#pb71d1a70af)" style="fill: #477ca8; stroke: #ffffff; stroke-linejoin: miter"/>
   </g>
   <g id="patch_8">
    <path d="M 311.902187 465.463125 
L 334.222187 465.463125 
L 334.222187 347.957321 
L 311.902187 347.957321 
z
" clip-path="url(#pb71d1a70af)" style="fill: #477ca8; stroke: #ffffff; stroke-linejoin: miter"/>
   </g>
   <g id="patch_9">
    <path d="M 535.102188 465.463125 
L 557.422188 465.463125 
L 557.422188 343.128476 
L 535.102188 343.128476 
z
" clip-path="url(#pb71d1a70af)" style="fill: #477ca8; stroke: #ffffff; stroke-linejoin: miter"/>
   </g>
   <g id="patch_10">
    <path d="M 758.302187 465.463125 
L 780.622187 465.463125 
L 780.622187 351.430822 
L 758.302187 351.430822 
z
" clip-path="url(#pb71d1a70af)" style="fill: #477ca8; stroke: #ffffff; stroke-linejoin: miter"/>
   </g>
   <g id="patch_11">
    <path d="M 111.022187 465.463125 
L 133.342187 465.463125 
L 133.342187 191.994786 
L 111.022187 191.994786 
z
" clip-path="url(#pb71d1a70af)" style="fill: #59a257; stroke: #ffffff; stroke-linejoin: miter"/>
   </g>
   <g id="patch_12">
    <path d="M 334.222187 465.463125 
L 356.542187 465.463125 
L 356.542187 236.239568 
L 334.222187 236.239568 
z
" clip-path="url(#pb71d1a70af)" style="fill: #59a257; stroke: #ffffff; stroke-linejoin: miter"/>
   </g>
   <g id="patch_13">
    <path d="M 557.422187 465.463125 
L 579.742188 465.463125 
L 579.742188 205.861797 
L 557.422187 205.861797 
z
" clip-path="url(#pb71d1a70af)" style="fill: #59a257; stroke: #ffffff; stroke-linejoin: miter"/>
   </g>
   <g id="patch_14">
    <path d="M 780.622187 465.463125 
L 802.942187 465.463125 
L 802.942187 248.024181 
L 780.622187 248.024181 
z
" clip-path="url(#pb71d1a70af)" style="fill: #59a257; stroke: #ffffff; stroke-linejoin: miter"/>
   </g>
   <g id="patch_15">
    <path d="M 133.342187 465.463125 
L 155.662187 465.463125 
L 155.662187 43.063125 
L 133.342187 43.063125 
z
" clip-path="url(#pb71d1a70af)" style="fill: #905998; stroke: #ffffff; stroke-linejoin: miter"/>
   </g>
   <g id="patch_16">
    <path d="M 356.542187 465.463125 
L 378.862187 465.463125 
L 378.862187 73.919463 
L 356.542187 73.919463 
z
" clip-path="url(#pb71d1a70af)" style="fill: #905998; stroke: #ffffff; stroke-linejoin: miter"/>
   </g>
   <g id="patch_17">
    <path d="M 579.742188 465.463125 
L 602.062188 465.463125 
L 602.062188 70.259036 
L 579.742188 70.259036 
z
" clip-path="url(#pb71d1a70af)" style="fill: #905998; stroke: #ffffff; stroke-linejoin: miter"/>
   </g>
   <g id="patch_18">
    <path d="M 802.942188 465.463125 
L 825.262187 465.463125 
L 825.262187 57.195887 
L 802.942188 57.195887 
z
" clip-path="url(#pb71d1a70af)" style="fill: #905998; stroke: #ffffff; stroke-linejoin: miter"/>
   </g>
   <g id="patch_19">
    <path d="M 155.662187 465.463125 
L 177.982187 465.463125 
L 177.982187 357.915539 
L 155.662187 357.915539 
z
" clip-path="url(#pb71d1a70af)" style="fill: #df7f20; stroke: #ffffff; stroke-linejoin: miter"/>
   </g>
   <g id="patch_20">
    <path d="M 378.862188 465.463125 
L 401.182187 465.463125 
L 401.182187 362.95592 
L 378.862188 362.95592 
z
" clip-path="url(#pb71d1a70af)" style="fill: #df7f20; stroke: #ffffff; stroke-linejoin: miter"/>
   </g>
   <g id="patch_21">
    <path d="M 602.062187 465.463125 
L 624.382187 465.463125 
L 624.382187 360.264897 
L 602.062187 360.264897 
z
" clip-path="url(#pb71d1a70af)" style="fill: #df7f20; stroke: #ffffff; stroke-linejoin: miter"/>
   </g>
   <g id="patch_22">
    <path d="M 825.262187 465.463125 
L 847.582187 465.463125 
L 847.582187 348.645798 
L 825.262187 348.645798 
z
" clip-path="url(#pb71d1a70af)" style="fill: #df7f20; stroke: #ffffff; stroke-linejoin: miter"/>
   </g>
   <g id="patch_23">
    <path d="M 177.982187 465.463125 
L 200.302187 465.463125 
L 200.302187 460.765577 
L 177.982187 460.765577 
z
" clip-path="url(#pb71d1a70af)" style="fill: #e6e64c; stroke: #ffffff; stroke-linejoin: miter"/>
   </g>
   <g id="patch_24">
    <path d="M 401.182187 465.463125 
L 423.502187 465.463125 
L 423.502187 459.087882 
L 401.182187 459.087882 
z
" clip-path="url(#pb71d1a70af)" style="fill: #e6e64c; stroke: #ffffff; stroke-linejoin: miter"/>
   </g>
   <g id="patch_25">
    <path d="M 624.382187 465.463125 
L 646.702187 465.463125 
L 646.702187 458.081264 
L 624.382187 458.081264 
z
" clip-path="url(#pb71d1a70af)" style="fill: #e6e64c; stroke: #ffffff; stroke-linejoin: miter"/>
   </g>
   <g id="patch_26">
    <path d="M 847.582187 465.463125 
L 869.902187 465.463125 
L 869.902187 457.410186 
L 847.582187 457.410186 
z
" clip-path="url(#pb71d1a70af)" style="fill: #e6e64c; stroke: #ffffff; stroke-linejoin: miter"/>
   </g>
   <g id="patch_27">
    <path d="M 200.302188 465.463125 
L 222.622187 465.463125 
L 222.622187 461.436655 
L 200.302188 461.436655 
z
" clip-path="url(#pb71d1a70af)" style="fill: #965a38; stroke: #ffffff; stroke-linejoin: miter"/>
   </g>
   <g id="patch_28">
    <path d="M 423.502187 465.463125 
L 445.822187 465.463125 
L 445.822187 462.107734 
L 423.502187 462.107734 
z
" clip-path="url(#pb71d1a70af)" style="fill: #965a38; stroke: #ffffff; stroke-linejoin: miter"/>
   </g>
   <g id="patch_29">
    <path d="M 646.702188 465.463125 
L 669.022187 465.463125 
L 669.022187 461.436655 
L 646.702188 461.436655 
z
" clip-path="url(#pb71d1a70af)" style="fill: #965a38; stroke: #ffffff; stroke-linejoin: miter"/>
   </g>
   <g id="patch_30">
    <path d="M 869.902187 465.463125 
L 892.222187 465.463125 
L 892.222187 460.765577 
L 869.902187 460.765577 
z
" clip-path="url(#pb71d1a70af)" style="fill: #965a38; stroke: #ffffff; stroke-linejoin: miter"/>
   </g>
   <g id="patch_31">
    <path d="M 222.622187 465.463125 
L 244.942187 465.463125 
L 244.942187 409.511975 
L 222.622187 409.511975 
z
" clip-path="url(#pb71d1a70af)" style="fill: #e890be; stroke: #ffffff; stroke-linejoin: miter"/>
   </g>
   <g id="patch_32">
    <path d="M 445.822187 465.463125 
L 468.142187 465.463125 
L 468.142187 407.654526 
L 445.822187 407.654526 
z
" clip-path="url(#pb71d1a70af)" style="fill: #e890be; stroke: #ffffff; stroke-linejoin: miter"/>
   </g>
   <g id="patch_33">
    <path d="M 669.022187 465.463125 
L 691.342187 465.463125 
L 691.342187 409.397587 
L 669.022187 409.397587 
z
" clip-path="url(#pb71d1a70af)" style="fill: #e890be; stroke: #ffffff; stroke-linejoin: miter"/>
   </g>
   <g id="patch_34">
    <path d="M 892.222188 465.463125 
L 914.542187 465.463125 
L 914.542187 401.552789 
L 892.222188 401.552789 
z
" clip-path="url(#pb71d1a70af)" style="fill: #e890be; stroke: #ffffff; stroke-linejoin: miter"/>
   </g>
   <g id="patch_35">
    <path d="M 155.662187 465.463125 
L 155.662187 465.463125 
L 155.662187 465.463125 
L 155.662187 465.463125 
z
" clip-path="url(#pb71d1a70af)" style="fill: #cb3335; stroke: #ffffff; stroke-linejoin: miter"/>
   </g>
   <g id="patch_36">
    <path d="M 155.662187 465.463125 
L 155.662187 465.463125 
L 155.662187 465.463125 
L 155.662187 465.463125 
z
" clip-path="url(#pb71d1a70af)" style="fill: #477ca8; stroke: #ffffff; stroke-linejoin: miter"/>
   </g>
   <g id="patch_37">
    <path d="M 155.662187 465.463125 
L 155.662187 465.463125 
L 155.662187 465.463125 
L 155.662187 465.463125 
z
" clip-path="url(#pb71d1a70af)" style="fill: #59a257; stroke: #ffffff; stroke-linejoin: miter"/>
   </g>
   <g id="patch_38">
    <path d="M 155.662187 465.463125 
L 155.662187 465.463125 
L 155.662187 465.463125 
L 155.662187 465.463125 
z
" clip-path="url(#pb71d1a70af)" style="fill: #905998; stroke: #ffffff; stroke-linejoin: miter"/>
   </g>
   <g id="patch_39">
    <path d="M 155.662187 465.463125 
L 155.662187 465.463125 
L 155.662187 465.463125 
L 155.662187 465.463125 
z
" clip-path="url(#pb71d1a70af)" style="fill: #df7f20; stroke: #ffffff; stroke-linejoin: miter"/>
   </g>
   <g id="patch_40">
    <path d="M 155.662187 465.463125 
L 155.662187 465.463125 
L 155.662187 465.463125 
L 155.662187 465.463125 
z
" clip-path="url(#pb71d1a70af)" style="fill: #e6e64c; stroke: #ffffff; stroke-linejoin: miter"/>
   </g>
   <g id="patch_41">
    <path d="M 155.662187 465.463125 
L 155.662187 465.463125 
L 155.662187 465.463125 
L 155.662187 465.463125 
z
" clip-path="url(#pb71d1a70af)" style="fill: #965a38; stroke: #ffffff; stroke-linejoin: miter"/>
   </g>
   <g id="patch_42">
    <path d="M 155.662187 465.463125 
L 155.662187 465.463125 
L 155.662187 465.463125 
L 155.662187 465.463125 
z
" clip-path="url(#pb71d1a70af)" style="fill: #e890be; stroke: #ffffff; stroke-linejoin: miter"/>
   </g>
   <g id="patch_43">
    <path d="M 44.062187 465.463125 
L 44.062187 21.943125 
" style="fill: none; stroke: #ffffff; stroke-width: 1.25; stroke-linejoin: miter; stroke-linecap: square"/>
   </g>
   <g id="patch_44">
    <path d="M 936.862187 465.463125 
L 936.862187 21.943125 
" style="fill: none; stroke: #ffffff; stroke-width: 1.25; stroke-linejoin: miter; stroke-linecap: square"/>
   </g>
   <g id="patch_45">
    <path d="M 44.062187 465.463125 
L 936.862187 465.463125 
" style="fill: none; stroke: #ffffff; stroke-width: 1.25; stroke-linejoin: miter; stroke-linecap: square"/>
   </g>
   <g id="patch_46">
    <path d="M 44.062187 21.943125 
L 936.862187 21.943125 
" style="fill: none; stroke: #ffffff; stroke-width: 1.25; stroke-linejoin: miter; stroke-linecap: square"/>
   </g>
   <g id="text_14">
    <!-- Quantité de chaque polluant pour les années 2019, 2020, 2021 et 2022 -->
    <g style="fill: #262626" transform="translate(300.9925 15.943125) scale(0.12 -0.12)">
     <defs>
      <path id="ArialMT-63" d="M 2588 1216 
L 3141 1144 
Q 3050 572 2676 248 
Q 2303 -75 1759 -75 
Q 1078 -75 664 370 
Q 250 816 250 1647 
Q 250 2184 428 2587 
Q 606 2991 970 3192 
Q 1334 3394 1763 3394 
Q 2303 3394 2647 3120 
Q 2991 2847 3088 2344 
L 2541 2259 
Q 2463 2594 2264 2762 
Q 2066 2931 1784 2931 
Q 1359 2931 1093 2626 
Q 828 2322 828 1663 
Q 828 994 1084 691 
Q 1341 388 1753 388 
Q 2084 388 2306 591 
Q 2528 794 2588 1216 
z
" transform="scale(0.015625)"/>
      <path id="ArialMT-68" d="M 422 0 
L 422 4581 
L 984 4581 
L 984 2938 
Q 1378 3394 1978 3394 
Q 2347 3394 2619 3248 
Q 2891 3103 3008 2847 
Q 3125 2591 3125 2103 
L 3125 0 
L 2563 0 
L 2563 2103 
Q 2563 2525 2380 2717 
Q 2197 2909 1863 2909 
Q 1613 2909 1392 2779 
Q 1172 2650 1078 2428 
Q 984 2206 984 1816 
L 984 0 
L 422 0 
z
" transform="scale(0.015625)"/>
      <path id="ArialMT-71" d="M 2538 -1272 
L 2538 353 
Q 2406 169 2170 47 
Q 1934 -75 1669 -75 
Q 1078 -75 651 397 
Q 225 869 225 1691 
Q 225 2191 398 2587 
Q 572 2984 901 3189 
Q 1231 3394 1625 3394 
Q 2241 3394 2594 2875 
L 2594 3319 
L 3100 3319 
L 3100 -1272 
L 2538 -1272 
z
M 803 1669 
Q 803 1028 1072 708 
Q 1341 388 1716 388 
Q 2075 388 2334 692 
Q 2594 997 2594 1619 
Q 2594 2281 2320 2615 
Q 2047 2950 1678 2950 
Q 1313 2950 1058 2639 
Q 803 2328 803 1669 
z
" transform="scale(0.015625)"/>
      <path id="ArialMT-72" d="M 416 0 
L 416 3319 
L 922 3319 
L 922 2816 
Q 1116 3169 1280 3281 
Q 1444 3394 1641 3394 
Q 1925 3394 2219 3213 
L 2025 2691 
Q 1819 2813 1613 2813 
Q 1428 2813 1281 2702 
Q 1134 2591 1072 2394 
Q 978 2094 978 1738 
L 978 0 
L 416 0 
z
" transform="scale(0.015625)"/>
      <path id="ArialMT-2c" d="M 569 0 
L 569 641 
L 1209 641 
L 1209 0 
Q 1209 -353 1084 -570 
Q 959 -788 688 -906 
L 531 -666 
Q 709 -588 793 -436 
Q 878 -284 888 0 
L 569 0 
z
" transform="scale(0.015625)"/>
     </defs>
     <use xlink:href="#ArialMT-51"/>
     <use xlink:href="#ArialMT-75" x="77.783203"/>
     <use xlink:href="#ArialMT-61" x="133.398438"/>
     <use xlink:href="#ArialMT-6e" x="189.013672"/>
     <use xlink:href="#ArialMT-74" x="244.628906"/>
     <use xlink:href="#ArialMT-69" x="272.412109"/>
     <use xlink:href="#ArialMT-74" x="294.628906"/>
     <use xlink:href="#ArialMT-e9" x="322.412109"/>
     <use xlink:href="#ArialMT-20" x="378.027344"/>
     <use xlink:href="#ArialMT-64" x="405.810547"/>
     <use xlink:href="#ArialMT-65" x="461.425781"/>
     <use xlink:href="#ArialMT-20" x="517.041016"/>
     <use xlink:href="#ArialMT-63" x="544.824219"/>
     <use xlink:href="#ArialMT-68" x="594.824219"/>
     <use xlink:href="#ArialMT-61" x="650.439453"/>
     <use xlink:href="#ArialMT-71" x="706.054688"/>
     <use xlink:href="#ArialMT-75" x="761.669922"/>
     <use xlink:href="#ArialMT-65" x="817.285156"/>
     <use xlink:href="#ArialMT-20" x="872.900391"/>
     <use xlink:href="#ArialMT-70" x="900.683594"/>
     <use xlink:href="#ArialMT-6f" x="956.298828"/>
     <use xlink:href="#ArialMT-6c" x="1011.914062"/>
     <use xlink:href="#ArialMT-6c" x="1034.130859"/>
     <use xlink:href="#ArialMT-75" x="1056.347656"/>
     <use xlink:href="#ArialMT-61" x="1111.962891"/>
     <use xlink:href="#ArialMT-6e" x="1167.578125"/>
     <use xlink:href="#ArialMT-74" x="1223.193359"/>
     <use xlink:href="#ArialMT-20" x="1250.976562"/>
     <use xlink:href="#ArialMT-70" x="1278.759766"/>
     <use xlink:href="#ArialMT-6f" x="1334.375"/>
     <use xlink:href="#ArialMT-75" x="1389.990234"/>
     <use xlink:href="#ArialMT-72" x="1445.605469"/>
     <use xlink:href="#ArialMT-20" x="1478.90625"/>
     <use xlink:href="#ArialMT-6c" x="1506.689453"/>
     <use xlink:href="#ArialMT-65" x="1528.90625"/>
     <use xlink:href="#ArialMT-73" x="1584.521484"/>
     <use xlink:href="#ArialMT-20" x="1634.521484"/>
     <use xlink:href="#ArialMT-61" x="1662.304688"/>
     <use xlink:href="#ArialMT-6e" x="1717.919922"/>
     <use xlink:href="#ArialMT-6e" x="1773.535156"/>
     <use xlink:href="#ArialMT-e9" x="1829.150391"/>
     <use xlink:href="#ArialMT-65" x="1884.765625"/>
     <use xlink:href="#ArialMT-73" x="1940.380859"/>
     <use xlink:href="#ArialMT-20" x="1990.380859"/>
     <use xlink:href="#ArialMT-32" x="2018.164062"/>
     <use xlink:href="#ArialMT-30" x="2073.779297"/>
     <use xlink:href="#ArialMT-31" x="2129.394531"/>
     <use xlink:href="#ArialMT-39" x="2185.009766"/>
     <use xlink:href="#ArialMT-2c" x="2240.625"/>
     <use xlink:href="#ArialMT-20" x="2268.408203"/>
     <use xlink:href="#ArialMT-32" x="2296.191406"/>
     <use xlink:href="#ArialMT-30" x="2351.806641"/>
     <use xlink:href="#ArialMT-32" x="2407.421875"/>
     <use xlink:href="#ArialMT-30" x="2463.037109"/>
     <use xlink:href="#ArialMT-2c" x="2518.652344"/>
     <use xlink:href="#ArialMT-20" x="2546.435547"/>
     <use xlink:href="#ArialMT-32" x="2574.21875"/>
     <use xlink:href="#ArialMT-30" x="2629.833984"/>
     <use xlink:href="#ArialMT-32" x="2685.449219"/>
     <use xlink:href="#ArialMT-31" x="2741.064453"/>
     <use xlink:href="#ArialMT-20" x="2796.679688"/>
     <use xlink:href="#ArialMT-65" x="2824.462891"/>
     <use xlink:href="#ArialMT-74" x="2880.078125"/>
     <use xlink:href="#ArialMT-20" x="2907.861328"/>
     <use xlink:href="#ArialMT-32" x="2935.644531"/>
     <use xlink:href="#ArialMT-30" x="2991.259766"/>
     <use xlink:href="#ArialMT-32" x="3046.875"/>
     <use xlink:href="#ArialMT-32" x="3102.490234"/>
    </g>
   </g>
   <g id="legend_1">
    <g id="patch_47">
     <path d="M 862.172188 171.69625 
L 929.162187 171.69625 
Q 931.362188 171.69625 931.362188 169.49625 
L 931.362188 29.643125 
Q 931.362188 27.443125 929.162187 27.443125 
L 862.172188 27.443125 
Q 859.972188 27.443125 859.972188 29.643125 
L 859.972188 169.49625 
Q 859.972188 171.69625 862.172188 171.69625 
z
" style="fill: #eaeaf2; opacity: 0.8; stroke: #cccccc; stroke-linejoin: miter"/>
    </g>
    <g id="text_15">
     <!-- Polluant -->
     <g style="fill: #262626" transform="translate(873.985625 40.4325) scale(0.12 -0.12)">
      <defs>
       <path id="ArialMT-50" d="M 494 0 
L 494 4581 
L 2222 4581 
Q 2678 4581 2919 4538 
Q 3256 4481 3484 4323 
Q 3713 4166 3852 3881 
Q 3991 3597 3991 3256 
Q 3991 2672 3619 2267 
Q 3247 1863 2275 1863 
L 1100 1863 
L 1100 0 
L 494 0 
z
M 1100 2403 
L 2284 2403 
Q 2872 2403 3119 2622 
Q 3366 2841 3366 3238 
Q 3366 3525 3220 3729 
Q 3075 3934 2838 4000 
Q 2684 4041 2272 4041 
L 1100 4041 
L 1100 2403 
z
" transform="scale(0.015625)"/>
      </defs>
      <use xlink:href="#ArialMT-50"/>
      <use xlink:href="#ArialMT-6f" x="66.699219"/>
      <use xlink:href="#ArialMT-6c" x="122.314453"/>
      <use xlink:href="#ArialMT-6c" x="144.53125"/>
      <use xlink:href="#ArialMT-75" x="166.748047"/>
      <use xlink:href="#ArialMT-61" x="222.363281"/>
      <use xlink:href="#ArialMT-6e" x="277.978516"/>
      <use xlink:href="#ArialMT-74" x="333.59375"/>
     </g>
    </g>
    <g id="patch_48">
     <path d="M 864.372187 56.191094 
L 886.372187 56.191094 
L 886.372187 48.491094 
L 864.372187 48.491094 
z
" style="fill: #cb3335; stroke: #ffffff; stroke-linejoin: miter"/>
    </g>
    <g id="text_16">
     <!-- NO -->
     <g style="fill: #262626" transform="translate(895.172187 56.191094) scale(0.11 -0.11)">
      <defs>
       <path id="ArialMT-4e" d="M 488 0 
L 488 4581 
L 1109 4581 
L 3516 984 
L 3516 4581 
L 4097 4581 
L 4097 0 
L 3475 0 
L 1069 3600 
L 1069 0 
L 488 0 
z
" transform="scale(0.015625)"/>
       <path id="ArialMT-4f" d="M 309 2231 
Q 309 3372 921 4017 
Q 1534 4663 2503 4663 
Q 3138 4663 3647 4359 
Q 4156 4056 4423 3514 
Q 4691 2972 4691 2284 
Q 4691 1588 4409 1038 
Q 4128 488 3612 205 
Q 3097 -78 2500 -78 
Q 1853 -78 1343 234 
Q 834 547 571 1087 
Q 309 1628 309 2231 
z
M 934 2222 
Q 934 1394 1379 917 
Q 1825 441 2497 441 
Q 3181 441 3623 922 
Q 4066 1403 4066 2288 
Q 4066 2847 3877 3264 
Q 3688 3681 3323 3911 
Q 2959 4141 2506 4141 
Q 1863 4141 1398 3698 
Q 934 3256 934 2222 
z
" transform="scale(0.015625)"/>
      </defs>
      <use xlink:href="#ArialMT-4e"/>
      <use xlink:href="#ArialMT-4f" x="72.216797"/>
     </g>
    </g>
    <g id="patch_49">
     <path d="M 864.372187 71.750937 
L 886.372187 71.750937 
L 886.372187 64.050937 
L 864.372187 64.050937 
z
" style="fill: #477ca8; stroke: #ffffff; stroke-linejoin: miter"/>
    </g>
    <g id="text_17">
     <!-- NO2 -->
     <g style="fill: #262626" transform="translate(895.172187 71.750937) scale(0.11 -0.11)">
      <use xlink:href="#ArialMT-4e"/>
      <use xlink:href="#ArialMT-4f" x="72.216797"/>
      <use xlink:href="#ArialMT-32" x="150"/>
     </g>
    </g>
    <g id="patch_50">
     <path d="M 864.372187 87.310781 
L 886.372187 87.310781 
L 886.372187 79.610781 
L 864.372187 79.610781 
z
" style="fill: #59a257; stroke: #ffffff; stroke-linejoin: miter"/>
    </g>
    <g id="text_18">
     <!-- NOX -->
     <g style="fill: #262626" transform="translate(895.172187 87.310781) scale(0.11 -0.11)">
      <defs>
       <path id="ArialMT-58" d="M 28 0 
L 1800 2388 
L 238 4581 
L 959 4581 
L 1791 3406 
Q 2050 3041 2159 2844 
Q 2313 3094 2522 3366 
L 3444 4581 
L 4103 4581 
L 2494 2422 
L 4228 0 
L 3478 0 
L 2325 1634 
Q 2228 1775 2125 1941 
Q 1972 1691 1906 1597 
L 756 0 
L 28 0 
z
" transform="scale(0.015625)"/>
      </defs>
      <use xlink:href="#ArialMT-4e"/>
      <use xlink:href="#ArialMT-4f" x="72.216797"/>
      <use xlink:href="#ArialMT-58" x="150"/>
     </g>
    </g>
    <g id="patch_51">
     <path d="M 864.372187 102.870625 
L 886.372187 102.870625 
L 886.372187 95.170625 
L 864.372187 95.170625 
z
" style="fill: #905998; stroke: #ffffff; stroke-linejoin: miter"/>
    </g>
    <g id="text_19">
     <!-- O3 -->
     <g style="fill: #262626" transform="translate(895.172187 102.870625) scale(0.11 -0.11)">
      <use xlink:href="#ArialMT-4f"/>
      <use xlink:href="#ArialMT-33" x="77.783203"/>
     </g>
    </g>
    <g id="patch_52">
     <path d="M 864.372187 118.430469 
L 886.372187 118.430469 
L 886.372187 110.730469 
L 864.372187 110.730469 
z
" style="fill: #df7f20; stroke: #ffffff; stroke-linejoin: miter"/>
    </g>
    <g id="text_20">
     <!-- PM10 -->
     <g style="fill: #262626" transform="translate(895.172187 118.430469) scale(0.11 -0.11)">
      <defs>
       <path id="ArialMT-4d" d="M 475 0 
L 475 4581 
L 1388 4581 
L 2472 1338 
Q 2622 884 2691 659 
Q 2769 909 2934 1394 
L 4031 4581 
L 4847 4581 
L 4847 0 
L 4263 0 
L 4263 3834 
L 2931 0 
L 2384 0 
L 1059 3900 
L 1059 0 
L 475 0 
z
" transform="scale(0.015625)"/>
      </defs>
      <use xlink:href="#ArialMT-50"/>
      <use xlink:href="#ArialMT-4d" x="66.699219"/>
      <use xlink:href="#ArialMT-31" x="150"/>
      <use xlink:href="#ArialMT-30" x="205.615234"/>
     </g>
    </g>
    <g id="patch_53">
     <path d="M 864.372187 133.990312 
L 886.372187 133.990312 
L 886.372187 126.290312 
L 864.372187 126.290312 
z
" style="fill: #e6e64c; stroke: #ffffff; stroke-linejoin: miter"/>
    </g>
    <g id="text_21">
     <!-- H2S -->
     <g style="fill: #262626" transform="translate(895.172187 133.990312) scale(0.11 -0.11)">
      <defs>
       <path id="ArialMT-48" d="M 513 0 
L 513 4581 
L 1119 4581 
L 1119 2700 
L 3500 2700 
L 3500 4581 
L 4106 4581 
L 4106 0 
L 3500 0 
L 3500 2159 
L 1119 2159 
L 1119 0 
L 513 0 
z
" transform="scale(0.015625)"/>
       <path id="ArialMT-53" d="M 288 1472 
L 859 1522 
Q 900 1178 1048 958 
Q 1197 738 1509 602 
Q 1822 466 2213 466 
Q 2559 466 2825 569 
Q 3091 672 3220 851 
Q 3350 1031 3350 1244 
Q 3350 1459 3225 1620 
Q 3100 1781 2813 1891 
Q 2628 1963 1997 2114 
Q 1366 2266 1113 2400 
Q 784 2572 623 2826 
Q 463 3081 463 3397 
Q 463 3744 659 4045 
Q 856 4347 1234 4503 
Q 1613 4659 2075 4659 
Q 2584 4659 2973 4495 
Q 3363 4331 3572 4012 
Q 3781 3694 3797 3291 
L 3216 3247 
Q 3169 3681 2898 3903 
Q 2628 4125 2100 4125 
Q 1550 4125 1298 3923 
Q 1047 3722 1047 3438 
Q 1047 3191 1225 3031 
Q 1400 2872 2139 2705 
Q 2878 2538 3153 2413 
Q 3553 2228 3743 1945 
Q 3934 1663 3934 1294 
Q 3934 928 3725 604 
Q 3516 281 3123 101 
Q 2731 -78 2241 -78 
Q 1619 -78 1198 103 
Q 778 284 539 648 
Q 300 1013 288 1472 
z
" transform="scale(0.015625)"/>
      </defs>
      <use xlink:href="#ArialMT-48"/>
      <use xlink:href="#ArialMT-32" x="72.216797"/>
      <use xlink:href="#ArialMT-53" x="127.832031"/>
     </g>
    </g>
    <g id="patch_54">
     <path d="M 864.372187 149.550156 
L 886.372187 149.550156 
L 886.372187 141.850156 
L 864.372187 141.850156 
z
" style="fill: #965a38; stroke: #ffffff; stroke-linejoin: miter"/>
    </g>
    <g id="text_22">
     <!-- SO2 -->
     <g style="fill: #262626" transform="translate(895.172187 149.550156) scale(0.11 -0.11)">
      <use xlink:href="#ArialMT-53"/>
      <use xlink:href="#ArialMT-4f" x="66.699219"/>
      <use xlink:href="#ArialMT-32" x="144.482422"/>
     </g>
    </g>
    <g id="patch_55">
     <path d="M 864.372187 165.11 
L 886.372187 165.11 
L 886.372187 157.41 
L 864.372187 157.41 
z
" style="fill: #e890be; stroke: #ffffff; stroke-linejoin: miter"/>
    </g>
    <g id="text_23">
     <!-- PM2.5 -->
     <g style="fill: #262626" transform="translate(895.172187 165.11) scale(0.11 -0.11)">
      <defs>
       <path id="ArialMT-2e" d="M 581 0 
L 581 641 
L 1222 641 
L 1222 0 
L 581 0 
z
" transform="scale(0.015625)"/>
      </defs>
      <use xlink:href="#ArialMT-50"/>
      <use xlink:href="#ArialMT-4d" x="66.699219"/>
      <use xlink:href="#ArialMT-32" x="150"/>
      <use xlink:href="#ArialMT-2e" x="205.615234"/>
      <use xlink:href="#ArialMT-35" x="233.398438"/>
     </g>
    </g>
   </g>
  </g>
 </g>
 <defs>
  <clipPath id="pb71d1a70af">
   <rect x="44.062187" y="21.943125" width="892.8" height="443.52"/>
  </clipPath>
 </defs>
</svg>
