<?xml version="1.0" encoding="utf-8" standalone="no"?>
<!DOCTYPE svg PUBLIC "-//W3C//DTD SVG 1.1//EN"
  "http://www.w3.org/Graphics/SVG/1.1/DTD/svg11.dtd">
<svg xmlns:xlink="http://www.w3.org/1999/xlink" width="720pt" height="288pt" viewBox="0 0 720 288" xmlns="http://www.w3.org/2000/svg" version="1.1">
 <metadata>
  <rdf:RDF xmlns:dc="http://purl.org/dc/elements/1.1/" xmlns:cc="http://creativecommons.org/ns#" xmlns:rdf="http://www.w3.org/1999/02/22-rdf-syntax-ns#">
   <cc:Work>
    <dc:type rdf:resource="http://purl.org/dc/dcmitype/StillImage"/>
    <dc:date>2023-11-19T18:18:52.975327</dc:date>
    <dc:format>image/svg+xml</dc:format>
    <dc:creator>
     <cc:Agent>
      <dc:title>Matplotlib v3.7.1, https://matplotlib.org/</dc:title>
     </cc:Agent>
    </dc:creator>
   </cc:Work>
  </rdf:RDF>
 </metadata>
 <defs>
  <style type="text/css">*{stroke-linejoin: round; stroke-linecap: butt}</style>
 </defs>
 <g id="figure_1">
  <g id="patch_1">
   <path d="M 0 288 
L 720 288 
L 720 0 
L 0 0 
z
" style="fill: #ffffff"/>
  </g>
  <g id="axes_1">
   <g id="patch_2">
    <path d="M 47.81 246.04 
L 709.2 246.04 
L 709.2 27.6 
L 47.81 27.6 
z
" style="fill: #ffffff"/>
   </g>
   <g id="matplotlib.axis_1">
    <g id="xtick_1">
     <g id="line2d_1">
      <defs>
       <path id="mf2c1ae1d06" d="M 0 0 
L 0 3.5 
" style="stroke: #000000; stroke-width: 0.8"/>
      </defs>
      <g>
       <use xlink:href="#mf2c1ae1d06" x="77.873182" y="246.04" style="stroke: #000000; stroke-width: 0.8"/>
      </g>
     </g>
     <g id="text_1">
      <!-- 0 -->
      <g transform="translate(74.691932 260.638438) scale(0.1 -0.1)">
       <defs>
        <path id="DejaVuSans-30" d="M 2034 4250 
Q 1547 4250 1301 3770 
Q 1056 3291 1056 2328 
Q 1056 1369 1301 889 
Q 1547 409 2034 409 
Q 2525 409 2770 889 
Q 3016 1369 3016 2328 
Q 3016 3291 2770 3770 
Q 2525 4250 2034 4250 
z
M 2034 4750 
Q 2819 4750 3233 4129 
Q 3647 3509 3647 2328 
Q 3647 1150 3233 529 
Q 2819 -91 2034 -91 
Q 1250 -91 836 529 
Q 422 1150 422 2328 
Q 422 3509 836 4129 
Q 1250 4750 2034 4750 
z
" transform="scale(0.015625)"/>
       </defs>
       <use xlink:href="#DejaVuSans-30"/>
      </g>
     </g>
    </g>
    <g id="xtick_2">
     <g id="line2d_2">
      <g>
       <use xlink:href="#mf2c1ae1d06" x="169.669157" y="246.04" style="stroke: #000000; stroke-width: 0.8"/>
      </g>
     </g>
     <g id="text_2">
      <!-- 100 -->
      <g transform="translate(160.125407 260.638438) scale(0.1 -0.1)">
       <defs>
        <path id="DejaVuSans-31" d="M 794 531 
L 1825 531 
L 1825 4091 
L 703 3866 
L 703 4441 
L 1819 4666 
L 2450 4666 
L 2450 531 
L 3481 531 
L 3481 0 
L 794 0 
L 794 531 
z
" transform="scale(0.015625)"/>
       </defs>
       <use xlink:href="#DejaVuSans-31"/>
       <use xlink:href="#DejaVuSans-30" x="63.623047"/>
       <use xlink:href="#DejaVuSans-30" x="127.246094"/>
      </g>
     </g>
    </g>
    <g id="xtick_3">
     <g id="line2d_3">
      <g>
       <use xlink:href="#mf2c1ae1d06" x="261.465132" y="246.04" style="stroke: #000000; stroke-width: 0.8"/>
      </g>
     </g>
     <g id="text_3">
      <!-- 200 -->
      <g transform="translate(251.921382 260.638438) scale(0.1 -0.1)">
       <defs>
        <path id="DejaVuSans-32" d="M 1228 531 
L 3431 531 
L 3431 0 
L 469 0 
L 469 531 
Q 828 903 1448 1529 
Q 2069 2156 2228 2338 
Q 2531 2678 2651 2914 
Q 2772 3150 2772 3378 
Q 2772 3750 2511 3984 
Q 2250 4219 1831 4219 
Q 1534 4219 1204 4116 
Q 875 4013 500 3803 
L 500 4441 
Q 881 4594 1212 4672 
Q 1544 4750 1819 4750 
Q 2544 4750 2975 4387 
Q 3406 4025 3406 3419 
Q 3406 3131 3298 2873 
Q 3191 2616 2906 2266 
Q 2828 2175 2409 1742 
Q 1991 1309 1228 531 
z
" transform="scale(0.015625)"/>
       </defs>
       <use xlink:href="#DejaVuSans-32"/>
       <use xlink:href="#DejaVuSans-30" x="63.623047"/>
       <use xlink:href="#DejaVuSans-30" x="127.246094"/>
      </g>
     </g>
    </g>
    <g id="xtick_4">
     <g id="line2d_4">
      <g>
       <use xlink:href="#mf2c1ae1d06" x="353.261107" y="246.04" style="stroke: #000000; stroke-width: 0.8"/>
      </g>
     </g>
     <g id="text_4">
      <!-- 300 -->
      <g transform="translate(343.717357 260.638438) scale(0.1 -0.1)">
       <defs>
        <path id="DejaVuSans-33" d="M 2597 2516 
Q 3050 2419 3304 2112 
Q 3559 1806 3559 1356 
Q 3559 666 3084 287 
Q 2609 -91 1734 -91 
Q 1441 -91 1130 -33 
Q 819 25 488 141 
L 488 750 
Q 750 597 1062 519 
Q 1375 441 1716 441 
Q 2309 441 2620 675 
Q 2931 909 2931 1356 
Q 2931 1769 2642 2001 
Q 2353 2234 1838 2234 
L 1294 2234 
L 1294 2753 
L 1863 2753 
Q 2328 2753 2575 2939 
Q 2822 3125 2822 3475 
Q 2822 3834 2567 4026 
Q 2313 4219 1838 4219 
Q 1578 4219 1281 4162 
Q 984 4106 628 3988 
L 628 4550 
Q 988 4650 1302 4700 
Q 1616 4750 1894 4750 
Q 2613 4750 3031 4423 
Q 3450 4097 3450 3541 
Q 3450 3153 3228 2886 
Q 3006 2619 2597 2516 
z
" transform="scale(0.015625)"/>
       </defs>
       <use xlink:href="#DejaVuSans-33"/>
       <use xlink:href="#DejaVuSans-30" x="63.623047"/>
       <use xlink:href="#DejaVuSans-30" x="127.246094"/>
      </g>
     </g>
    </g>
    <g id="xtick_5">
     <g id="line2d_5">
      <g>
       <use xlink:href="#mf2c1ae1d06" x="445.057082" y="246.04" style="stroke: #000000; stroke-width: 0.8"/>
      </g>
     </g>
     <g id="text_5">
      <!-- 400 -->
      <g transform="translate(435.513332 260.638438) scale(0.1 -0.1)">
       <defs>
        <path id="DejaVuSans-34" d="M 2419 4116 
L 825 1625 
L 2419 1625 
L 2419 4116 
z
M 2253 4666 
L 3047 4666 
L 3047 1625 
L 3713 1625 
L 3713 1100 
L 3047 1100 
L 3047 0 
L 2419 0 
L 2419 1100 
L 313 1100 
L 313 1709 
L 2253 4666 
z
" transform="scale(0.015625)"/>
       </defs>
       <use xlink:href="#DejaVuSans-34"/>
       <use xlink:href="#DejaVuSans-30" x="63.623047"/>
       <use xlink:href="#DejaVuSans-30" x="127.246094"/>
      </g>
     </g>
    </g>
    <g id="xtick_6">
     <g id="line2d_6">
      <g>
       <use xlink:href="#mf2c1ae1d06" x="536.853057" y="246.04" style="stroke: #000000; stroke-width: 0.8"/>
      </g>
     </g>
     <g id="text_6">
      <!-- 500 -->
      <g transform="translate(527.309307 260.638438) scale(0.1 -0.1)">
       <defs>
        <path id="DejaVuSans-35" d="M 691 4666 
L 3169 4666 
L 3169 4134 
L 1269 4134 
L 1269 2991 
Q 1406 3038 1543 3061 
Q 1681 3084 1819 3084 
Q 2600 3084 3056 2656 
Q 3513 2228 3513 1497 
Q 3513 744 3044 326 
Q 2575 -91 1722 -91 
Q 1428 -91 1123 -41 
Q 819 9 494 109 
L 494 744 
Q 775 591 1075 516 
Q 1375 441 1709 441 
Q 2250 441 2565 725 
Q 2881 1009 2881 1497 
Q 2881 1984 2565 2268 
Q 2250 2553 1709 2553 
Q 1456 2553 1204 2497 
Q 953 2441 691 2322 
L 691 4666 
z
" transform="scale(0.015625)"/>
       </defs>
       <use xlink:href="#DejaVuSans-35"/>
       <use xlink:href="#DejaVuSans-30" x="63.623047"/>
       <use xlink:href="#DejaVuSans-30" x="127.246094"/>
      </g>
     </g>
    </g>
    <g id="xtick_7">
     <g id="line2d_7">
      <g>
       <use xlink:href="#mf2c1ae1d06" x="628.649032" y="246.04" style="stroke: #000000; stroke-width: 0.8"/>
      </g>
     </g>
     <g id="text_7">
      <!-- 600 -->
      <g transform="translate(619.105282 260.638438) scale(0.1 -0.1)">
       <defs>
        <path id="DejaVuSans-36" d="M 2113 2584 
Q 1688 2584 1439 2293 
Q 1191 2003 1191 1497 
Q 1191 994 1439 701 
Q 1688 409 2113 409 
Q 2538 409 2786 701 
Q 3034 994 3034 1497 
Q 3034 2003 2786 2293 
Q 2538 2584 2113 2584 
z
M 3366 4563 
L 3366 3988 
Q 3128 4100 2886 4159 
Q 2644 4219 2406 4219 
Q 1781 4219 1451 3797 
Q 1122 3375 1075 2522 
Q 1259 2794 1537 2939 
Q 1816 3084 2150 3084 
Q 2853 3084 3261 2657 
Q 3669 2231 3669 1497 
Q 3669 778 3244 343 
Q 2819 -91 2113 -91 
Q 1303 -91 875 529 
Q 447 1150 447 2328 
Q 447 3434 972 4092 
Q 1497 4750 2381 4750 
Q 2619 4750 2861 4703 
Q 3103 4656 3366 4563 
z
" transform="scale(0.015625)"/>
       </defs>
       <use xlink:href="#DejaVuSans-36"/>
       <use xlink:href="#DejaVuSans-30" x="63.623047"/>
       <use xlink:href="#DejaVuSans-30" x="127.246094"/>
      </g>
     </g>
    </g>
    <g id="text_8">
     <!-- Index -->
     <g transform="translate(364.738594 274.316562) scale(0.1 -0.1)">
      <defs>
       <path id="DejaVuSans-49" d="M 628 4666 
L 1259 4666 
L 1259 0 
L 628 0 
L 628 4666 
z
" transform="scale(0.015625)"/>
       <path id="DejaVuSans-6e" d="M 3513 2113 
L 3513 0 
L 2938 0 
L 2938 2094 
Q 2938 2591 2744 2837 
Q 2550 3084 2163 3084 
Q 1697 3084 1428 2787 
Q 1159 2491 1159 1978 
L 1159 0 
L 581 0 
L 581 3500 
L 1159 3500 
L 1159 2956 
Q 1366 3272 1645 3428 
Q 1925 3584 2291 3584 
Q 2894 3584 3203 3211 
Q 3513 2838 3513 2113 
z
" transform="scale(0.015625)"/>
       <path id="DejaVuSans-64" d="M 2906 2969 
L 2906 4863 
L 3481 4863 
L 3481 0 
L 2906 0 
L 2906 525 
Q 2725 213 2448 61 
Q 2172 -91 1784 -91 
Q 1150 -91 751 415 
Q 353 922 353 1747 
Q 353 2572 751 3078 
Q 1150 3584 1784 3584 
Q 2172 3584 2448 3432 
Q 2725 3281 2906 2969 
z
M 947 1747 
Q 947 1113 1208 752 
Q 1469 391 1925 391 
Q 2381 391 2643 752 
Q 2906 1113 2906 1747 
Q 2906 2381 2643 2742 
Q 2381 3103 1925 3103 
Q 1469 3103 1208 2742 
Q 947 2381 947 1747 
z
" transform="scale(0.015625)"/>
       <path id="DejaVuSans-65" d="M 3597 1894 
L 3597 1613 
L 953 1613 
Q 991 1019 1311 708 
Q 1631 397 2203 397 
Q 2534 397 2845 478 
Q 3156 559 3463 722 
L 3463 178 
Q 3153 47 2828 -22 
Q 2503 -91 2169 -91 
Q 1331 -91 842 396 
Q 353 884 353 1716 
Q 353 2575 817 3079 
Q 1281 3584 2069 3584 
Q 2775 3584 3186 3129 
Q 3597 2675 3597 1894 
z
M 3022 2063 
Q 3016 2534 2758 2815 
Q 2500 3097 2075 3097 
Q 1594 3097 1305 2825 
Q 1016 2553 972 2059 
L 3022 2063 
z
" transform="scale(0.015625)"/>
       <path id="DejaVuSans-78" d="M 3513 3500 
L 2247 1797 
L 3578 0 
L 2900 0 
L 1881 1375 
L 863 0 
L 184 0 
L 1544 1831 
L 300 3500 
L 978 3500 
L 1906 2253 
L 2834 3500 
L 3513 3500 
z
" transform="scale(0.015625)"/>
      </defs>
      <use xlink:href="#DejaVuSans-49"/>
      <use xlink:href="#DejaVuSans-6e" x="29.492188"/>
      <use xlink:href="#DejaVuSans-64" x="92.871094"/>
      <use xlink:href="#DejaVuSans-65" x="156.347656"/>
      <use xlink:href="#DejaVuSans-78" x="216.121094"/>
     </g>
    </g>
   </g>
   <g id="matplotlib.axis_2">
    <g id="ytick_1">
     <g id="line2d_8">
      <defs>
       <path id="m0066201826" d="M 0 0 
L -3.5 0 
" style="stroke: #000000; stroke-width: 0.8"/>
      </defs>
      <g>
       <use xlink:href="#m0066201826" x="47.81" y="236.176874" style="stroke: #000000; stroke-width: 0.8"/>
      </g>
     </g>
     <g id="text_9">
      <!-- 0.0 -->
      <g transform="translate(24.906875 239.976093) scale(0.1 -0.1)">
       <defs>
        <path id="DejaVuSans-2e" d="M 684 794 
L 1344 794 
L 1344 0 
L 684 0 
L 684 794 
z
" transform="scale(0.015625)"/>
       </defs>
       <use xlink:href="#DejaVuSans-30"/>
       <use xlink:href="#DejaVuSans-2e" x="63.623047"/>
       <use xlink:href="#DejaVuSans-30" x="95.410156"/>
      </g>
     </g>
    </g>
    <g id="ytick_2">
     <g id="line2d_9">
      <g>
       <use xlink:href="#m0066201826" x="47.81" y="203.883641" style="stroke: #000000; stroke-width: 0.8"/>
      </g>
     </g>
     <g id="text_10">
      <!-- 0.2 -->
      <g transform="translate(24.906875 207.68286) scale(0.1 -0.1)">
       <use xlink:href="#DejaVuSans-30"/>
       <use xlink:href="#DejaVuSans-2e" x="63.623047"/>
       <use xlink:href="#DejaVuSans-32" x="95.410156"/>
      </g>
     </g>
    </g>
    <g id="ytick_3">
     <g id="line2d_10">
      <g>
       <use xlink:href="#m0066201826" x="47.81" y="171.590409" style="stroke: #000000; stroke-width: 0.8"/>
      </g>
     </g>
     <g id="text_11">
      <!-- 0.4 -->
      <g transform="translate(24.906875 175.389627) scale(0.1 -0.1)">
       <use xlink:href="#DejaVuSans-30"/>
       <use xlink:href="#DejaVuSans-2e" x="63.623047"/>
       <use xlink:href="#DejaVuSans-34" x="95.410156"/>
      </g>
     </g>
    </g>
    <g id="ytick_4">
     <g id="line2d_11">
      <g>
       <use xlink:href="#m0066201826" x="47.81" y="139.297176" style="stroke: #000000; stroke-width: 0.8"/>
      </g>
     </g>
     <g id="text_12">
      <!-- 0.6 -->
      <g transform="translate(24.906875 143.096394) scale(0.1 -0.1)">
       <use xlink:href="#DejaVuSans-30"/>
       <use xlink:href="#DejaVuSans-2e" x="63.623047"/>
       <use xlink:href="#DejaVuSans-36" x="95.410156"/>
      </g>
     </g>
    </g>
    <g id="ytick_5">
     <g id="line2d_12">
      <g>
       <use xlink:href="#m0066201826" x="47.81" y="107.003943" style="stroke: #000000; stroke-width: 0.8"/>
      </g>
     </g>
     <g id="text_13">
      <!-- 0.8 -->
      <g transform="translate(24.906875 110.803162) scale(0.1 -0.1)">
       <defs>
        <path id="DejaVuSans-38" d="M 2034 2216 
Q 1584 2216 1326 1975 
Q 1069 1734 1069 1313 
Q 1069 891 1326 650 
Q 1584 409 2034 409 
Q 2484 409 2743 651 
Q 3003 894 3003 1313 
Q 3003 1734 2745 1975 
Q 2488 2216 2034 2216 
z
M 1403 2484 
Q 997 2584 770 2862 
Q 544 3141 544 3541 
Q 544 4100 942 4425 
Q 1341 4750 2034 4750 
Q 2731 4750 3128 4425 
Q 3525 4100 3525 3541 
Q 3525 3141 3298 2862 
Q 3072 2584 2669 2484 
Q 3125 2378 3379 2068 
Q 3634 1759 3634 1313 
Q 3634 634 3220 271 
Q 2806 -91 2034 -91 
Q 1263 -91 848 271 
Q 434 634 434 1313 
Q 434 1759 690 2068 
Q 947 2378 1403 2484 
z
M 1172 3481 
Q 1172 3119 1398 2916 
Q 1625 2713 2034 2713 
Q 2441 2713 2670 2916 
Q 2900 3119 2900 3481 
Q 2900 3844 2670 4047 
Q 2441 4250 2034 4250 
Q 1625 4250 1398 4047 
Q 1172 3844 1172 3481 
z
" transform="scale(0.015625)"/>
       </defs>
       <use xlink:href="#DejaVuSans-30"/>
       <use xlink:href="#DejaVuSans-2e" x="63.623047"/>
       <use xlink:href="#DejaVuSans-38" x="95.410156"/>
      </g>
     </g>
    </g>
    <g id="ytick_6">
     <g id="line2d_13">
      <g>
       <use xlink:href="#m0066201826" x="47.81" y="74.71071" style="stroke: #000000; stroke-width: 0.8"/>
      </g>
     </g>
     <g id="text_14">
      <!-- 1.0 -->
      <g transform="translate(24.906875 78.509929) scale(0.1 -0.1)">
       <use xlink:href="#DejaVuSans-31"/>
       <use xlink:href="#DejaVuSans-2e" x="63.623047"/>
       <use xlink:href="#DejaVuSans-30" x="95.410156"/>
      </g>
     </g>
    </g>
    <g id="ytick_7">
     <g id="line2d_14">
      <g>
       <use xlink:href="#m0066201826" x="47.81" y="42.417477" style="stroke: #000000; stroke-width: 0.8"/>
      </g>
     </g>
     <g id="text_15">
      <!-- 1.2 -->
      <g transform="translate(24.906875 46.216696) scale(0.1 -0.1)">
       <use xlink:href="#DejaVuSans-31"/>
       <use xlink:href="#DejaVuSans-2e" x="63.623047"/>
       <use xlink:href="#DejaVuSans-32" x="95.410156"/>
      </g>
     </g>
    </g>
    <g id="text_16">
     <!-- Concentration de gaz -->
     <g transform="translate(18.827187 190.4825) rotate(-90) scale(0.1 -0.1)">
      <defs>
       <path id="DejaVuSans-43" d="M 4122 4306 
L 4122 3641 
Q 3803 3938 3442 4084 
Q 3081 4231 2675 4231 
Q 1875 4231 1450 3742 
Q 1025 3253 1025 2328 
Q 1025 1406 1450 917 
Q 1875 428 2675 428 
Q 3081 428 3442 575 
Q 3803 722 4122 1019 
L 4122 359 
Q 3791 134 3420 21 
Q 3050 -91 2638 -91 
Q 1578 -91 968 557 
Q 359 1206 359 2328 
Q 359 3453 968 4101 
Q 1578 4750 2638 4750 
Q 3056 4750 3426 4639 
Q 3797 4528 4122 4306 
z
" transform="scale(0.015625)"/>
       <path id="DejaVuSans-6f" d="M 1959 3097 
Q 1497 3097 1228 2736 
Q 959 2375 959 1747 
Q 959 1119 1226 758 
Q 1494 397 1959 397 
Q 2419 397 2687 759 
Q 2956 1122 2956 1747 
Q 2956 2369 2687 2733 
Q 2419 3097 1959 3097 
z
M 1959 3584 
Q 2709 3584 3137 3096 
Q 3566 2609 3566 1747 
Q 3566 888 3137 398 
Q 2709 -91 1959 -91 
Q 1206 -91 779 398 
Q 353 888 353 1747 
Q 353 2609 779 3096 
Q 1206 3584 1959 3584 
z
" transform="scale(0.015625)"/>
       <path id="DejaVuSans-63" d="M 3122 3366 
L 3122 2828 
Q 2878 2963 2633 3030 
Q 2388 3097 2138 3097 
Q 1578 3097 1268 2742 
Q 959 2388 959 1747 
Q 959 1106 1268 751 
Q 1578 397 2138 397 
Q 2388 397 2633 464 
Q 2878 531 3122 666 
L 3122 134 
Q 2881 22 2623 -34 
Q 2366 -91 2075 -91 
Q 1284 -91 818 406 
Q 353 903 353 1747 
Q 353 2603 823 3093 
Q 1294 3584 2113 3584 
Q 2378 3584 2631 3529 
Q 2884 3475 3122 3366 
z
" transform="scale(0.015625)"/>
       <path id="DejaVuSans-74" d="M 1172 4494 
L 1172 3500 
L 2356 3500 
L 2356 3053 
L 1172 3053 
L 1172 1153 
Q 1172 725 1289 603 
Q 1406 481 1766 481 
L 2356 481 
L 2356 0 
L 1766 0 
Q 1100 0 847 248 
Q 594 497 594 1153 
L 594 3053 
L 172 3053 
L 172 3500 
L 594 3500 
L 594 4494 
L 1172 4494 
z
" transform="scale(0.015625)"/>
       <path id="DejaVuSans-72" d="M 2631 2963 
Q 2534 3019 2420 3045 
Q 2306 3072 2169 3072 
Q 1681 3072 1420 2755 
Q 1159 2438 1159 1844 
L 1159 0 
L 581 0 
L 581 3500 
L 1159 3500 
L 1159 2956 
Q 1341 3275 1631 3429 
Q 1922 3584 2338 3584 
Q 2397 3584 2469 3576 
Q 2541 3569 2628 3553 
L 2631 2963 
z
" transform="scale(0.015625)"/>
       <path id="DejaVuSans-61" d="M 2194 1759 
Q 1497 1759 1228 1600 
Q 959 1441 959 1056 
Q 959 750 1161 570 
Q 1363 391 1709 391 
Q 2188 391 2477 730 
Q 2766 1069 2766 1631 
L 2766 1759 
L 2194 1759 
z
M 3341 1997 
L 3341 0 
L 2766 0 
L 2766 531 
Q 2569 213 2275 61 
Q 1981 -91 1556 -91 
Q 1019 -91 701 211 
Q 384 513 384 1019 
Q 384 1609 779 1909 
Q 1175 2209 1959 2209 
L 2766 2209 
L 2766 2266 
Q 2766 2663 2505 2880 
Q 2244 3097 1772 3097 
Q 1472 3097 1187 3025 
Q 903 2953 641 2809 
L 641 3341 
Q 956 3463 1253 3523 
Q 1550 3584 1831 3584 
Q 2591 3584 2966 3190 
Q 3341 2797 3341 1997 
z
" transform="scale(0.015625)"/>
       <path id="DejaVuSans-69" d="M 603 3500 
L 1178 3500 
L 1178 0 
L 603 0 
L 603 3500 
z
M 603 4863 
L 1178 4863 
L 1178 4134 
L 603 4134 
L 603 4863 
z
" transform="scale(0.015625)"/>
       <path id="DejaVuSans-20" transform="scale(0.015625)"/>
       <path id="DejaVuSans-67" d="M 2906 1791 
Q 2906 2416 2648 2759 
Q 2391 3103 1925 3103 
Q 1463 3103 1205 2759 
Q 947 2416 947 1791 
Q 947 1169 1205 825 
Q 1463 481 1925 481 
Q 2391 481 2648 825 
Q 2906 1169 2906 1791 
z
M 3481 434 
Q 3481 -459 3084 -895 
Q 2688 -1331 1869 -1331 
Q 1566 -1331 1297 -1286 
Q 1028 -1241 775 -1147 
L 775 -588 
Q 1028 -725 1275 -790 
Q 1522 -856 1778 -856 
Q 2344 -856 2625 -561 
Q 2906 -266 2906 331 
L 2906 616 
Q 2728 306 2450 153 
Q 2172 0 1784 0 
Q 1141 0 747 490 
Q 353 981 353 1791 
Q 353 2603 747 3093 
Q 1141 3584 1784 3584 
Q 2172 3584 2450 3431 
Q 2728 3278 2906 2969 
L 2906 3500 
L 3481 3500 
L 3481 434 
z
" transform="scale(0.015625)"/>
       <path id="DejaVuSans-7a" d="M 353 3500 
L 3084 3500 
L 3084 2975 
L 922 459 
L 3084 459 
L 3084 0 
L 275 0 
L 275 525 
L 2438 3041 
L 353 3041 
L 353 3500 
z
" transform="scale(0.015625)"/>
      </defs>
      <use xlink:href="#DejaVuSans-43"/>
      <use xlink:href="#DejaVuSans-6f" x="69.824219"/>
      <use xlink:href="#DejaVuSans-6e" x="131.005859"/>
      <use xlink:href="#DejaVuSans-63" x="194.384766"/>
      <use xlink:href="#DejaVuSans-65" x="249.365234"/>
      <use xlink:href="#DejaVuSans-6e" x="310.888672"/>
      <use xlink:href="#DejaVuSans-74" x="374.267578"/>
      <use xlink:href="#DejaVuSans-72" x="413.476562"/>
      <use xlink:href="#DejaVuSans-61" x="454.589844"/>
      <use xlink:href="#DejaVuSans-74" x="515.869141"/>
      <use xlink:href="#DejaVuSans-69" x="555.078125"/>
      <use xlink:href="#DejaVuSans-6f" x="582.861328"/>
      <use xlink:href="#DejaVuSans-6e" x="644.042969"/>
      <use xlink:href="#DejaVuSans-20" x="707.421875"/>
      <use xlink:href="#DejaVuSans-64" x="739.208984"/>
      <use xlink:href="#DejaVuSans-65" x="802.685547"/>
      <use xlink:href="#DejaVuSans-20" x="864.208984"/>
      <use xlink:href="#DejaVuSans-67" x="895.996094"/>
      <use xlink:href="#DejaVuSans-61" x="959.472656"/>
      <use xlink:href="#DejaVuSans-7a" x="1020.751953"/>
     </g>
    </g>
    <g id="text_17">
     <!-- 1e7 -->
     <g transform="translate(47.81 24.6) scale(0.1 -0.1)">
      <defs>
       <path id="DejaVuSans-37" d="M 525 4666 
L 3525 4666 
L 3525 4397 
L 1831 0 
L 1172 0 
L 2766 4134 
L 525 4134 
L 525 4666 
z
" transform="scale(0.015625)"/>
      </defs>
      <use xlink:href="#DejaVuSans-31"/>
      <use xlink:href="#DejaVuSans-65" x="63.623047"/>
      <use xlink:href="#DejaVuSans-37" x="125.146484"/>
     </g>
    </g>
   </g>
   <g id="line2d_15">
    <path d="M 77.873182 234.972377 
L 78.791142 230.253777 
L 79.709101 229.92861 
L 80.627061 230.62075 
L 81.545021 227.686597 
L 82.462981 196.96406 
L 83.38094 235.147166 
L 84.2989 230.841039 
L 85.21686 233.885848 
L 86.13482 233.436381 
L 87.052779 231.102247 
L 87.970739 234.598417 
L 88.888699 231.269385 
L 89.806659 232.443607 
L 90.724618 234.865636 
L 91.642578 216.098639 
L 92.560538 232.027867 
L 93.478498 227.481397 
L 94.396457 233.377237 
L 95.314417 235.201758 
L 96.232377 233.585176 
L 97.150337 227.556135 
L 98.068296 211.53701 
L 98.986256 232.926239 
L 99.904216 224.115163 
L 100.822176 227.192333 
L 101.740135 233.897259 
L 102.658095 232.850524 
L 103.576055 230.364468 
L 104.494015 231.378864 
L 105.411974 235.272878 
L 106.329934 233.93678 
L 107.247894 233.566461 
L 108.165854 229.212185 
L 109.083813 233.737152 
L 110.001773 233.862393 
L 110.919733 233.281815 
L 111.837693 217.800142 
L 112.755652 233.7291 
L 113.673612 229.440733 
L 114.591572 227.109507 
L 115.509532 233.273858 
L 116.427491 203.260728 
L 117.345451 233.394962 
L 118.263411 221.504597 
L 119.181371 233.577148 
L 120.09933 233.52496 
L 121.01729 224.922109 
L 121.93525 225.706246 
L 122.85321 231.994449 
L 123.771169 215.078588 
L 124.689129 228.066082 
L 125.607089 233.365663 
L 126.525049 234.292987 
L 127.443008 233.635163 
L 128.360968 233.723023 
L 129.278928 231.303341 
L 130.196888 226.018542 
L 131.114847 230.50465 
L 132.032807 230.330976 
L 132.950767 230.027213 
L 133.868727 229.347101 
L 134.786686 214.067221 
L 135.704646 230.08978 
L 136.622606 216.143387 
L 137.540566 227.791558 
L 138.458525 234.261833 
L 139.376485 234.488612 
L 140.294445 235.302297 
L 141.212405 233.186186 
L 142.130364 233.995928 
L 143.048324 231.734501 
L 143.966284 232.057649 
L 144.884244 218.923033 
L 145.802203 230.440891 
L 146.720163 227.117093 
L 147.638123 228.850769 
L 148.556083 233.545865 
L 149.474042 232.23223 
L 150.392002 233.249336 
L 151.309962 233.777844 
L 152.227922 233.294558 
L 153.145881 220.388477 
L 154.063841 230.462242 
L 154.981801 231.216319 
L 155.899761 230.909642 
L 156.81772 232.216616 
L 157.73568 233.012444 
L 158.65364 214.448995 
L 159.5716 230.375071 
L 160.489559 234.475469 
L 161.407519 234.325107 
L 162.325479 183.689619 
L 163.243439 228.165523 
L 164.161398 234.193765 
L 165.079358 230.659687 
L 165.997318 234.180654 
L 166.915278 232.703904 
L 168.751197 234.485021 
L 169.669157 232.877413 
L 170.587117 234.423947 
L 171.505076 230.170102 
L 172.423036 233.339185 
L 173.340996 234.920217 
L 174.258956 232.979745 
L 175.176915 226.066347 
L 176.094875 217.608305 
L 177.012835 231.343009 
L 177.930795 188.729435 
L 178.848754 231.035324 
L 179.766714 224.240556 
L 180.684674 120.720806 
L 181.602634 231.794067 
L 182.520593 220.228999 
L 183.438553 229.746806 
L 184.356513 230.848639 
L 185.274473 229.875528 
L 186.192432 232.306575 
L 187.110392 229.350889 
L 188.028352 232.957627 
L 188.946312 231.535389 
L 189.864271 233.752219 
L 190.782231 232.405944 
L 191.700191 233.824076 
L 192.618151 232.678242 
L 193.53611 233.021228 
L 194.45407 179.680093 
L 195.37203 229.76561 
L 196.28999 224.119775 
L 197.207949 229.111938 
L 198.125909 225.714685 
L 199.043869 228.397798 
L 199.961829 234.624243 
L 200.879788 209.856421 
L 201.797748 217.728308 
L 202.715708 233.971156 
L 203.633668 233.198287 
L 204.551627 233.202873 
L 205.469587 232.329897 
L 206.387547 233.917722 
L 207.305507 232.316155 
L 208.223466 236.101811 
L 209.141426 233.657852 
L 210.977346 233.744322 
L 211.895305 230.753408 
L 212.813265 234.123325 
L 213.731225 233.765655 
L 214.649185 235.119701 
L 215.567144 230.985456 
L 216.485104 234.64879 
L 217.403064 235.156412 
L 219.238983 226.473588 
L 220.156943 234.386443 
L 221.074903 222.958157 
L 221.992863 234.905738 
L 222.910822 229.648935 
L 223.828782 228.873171 
L 224.746742 232.543663 
L 225.664702 220.830046 
L 226.582661 233.409585 
L 227.500621 226.221371 
L 227.500621 226.221371 
" clip-path="url(#pcd5a6a1446)" style="fill: none; stroke: #1f77b4; stroke-width: 1.5; stroke-linecap: square"/>
   </g>
   <g id="line2d_16">
    <path d="M 77.873182 233.401635 
L 78.791142 225.581937 
L 79.709101 213.769789 
L 80.627061 222.319399 
L 81.545021 211.980103 
L 82.462981 139.902285 
L 83.38094 233.280978 
L 84.2989 218.163997 
L 85.21686 228.586915 
L 86.13482 226.362993 
L 87.052779 222.799182 
L 87.970739 229.886466 
L 88.888699 220.213104 
L 89.806659 222.978767 
L 90.724618 230.306104 
L 91.642578 202.343878 
L 92.560538 225.608891 
L 93.478498 216.449802 
L 94.396457 225.416479 
L 95.314417 231.050178 
L 96.232377 229.085726 
L 97.150337 223.892037 
L 98.068296 183.97304 
L 98.986256 226.622894 
L 99.904216 200.273828 
L 100.822176 215.994295 
L 101.740135 229.194437 
L 102.658095 226.200009 
L 103.576055 215.708849 
L 104.494015 225.94813 
L 105.411974 230.97509 
L 106.329934 223.801659 
L 107.247894 225.54774 
L 108.165854 207.377403 
L 109.083813 223.319392 
L 110.001773 226.682278 
L 110.919733 217.003301 
L 111.837693 180.420963 
L 112.755652 225.934031 
L 113.673612 214.425454 
L 114.591572 210.474769 
L 115.509532 222.609941 
L 116.427491 195.71211 
L 117.345451 224.626327 
L 118.263411 197.018467 
L 119.181371 225.511743 
L 120.09933 222.096908 
L 121.01729 206.765969 
L 121.93525 210.662598 
L 122.85321 219.503121 
L 123.771169 180.554955 
L 124.689129 214.17796 
L 125.607089 227.049976 
L 126.525049 227.343536 
L 127.443008 228.345788 
L 128.360968 230.055638 
L 129.278928 225.11026 
L 130.196888 201.827684 
L 131.114847 221.293143 
L 132.032807 212.392639 
L 132.950767 200.716943 
L 133.868727 223.292279 
L 134.786686 177.111903 
L 135.704646 214.707575 
L 136.622606 203.382471 
L 137.540566 221.186628 
L 138.458525 232.280225 
L 139.376485 231.800242 
L 140.294445 231.525808 
L 141.212405 232.143799 
L 142.130364 231.112314 
L 143.048324 229.335656 
L 143.966284 230.855364 
L 144.884244 175.789013 
L 145.802203 218.839151 
L 146.720163 221.459067 
L 147.638123 218.056423 
L 148.556083 227.607754 
L 150.392002 220.800375 
L 151.309962 225.377172 
L 152.227922 221.579978 
L 153.145881 199.908882 
L 154.063841 213.756469 
L 154.981801 218.369116 
L 155.899761 217.682189 
L 156.81772 224.883895 
L 157.73568 217.262079 
L 158.65364 178.212986 
L 159.5716 213.605891 
L 160.489559 226.580362 
L 161.407519 224.043764 
L 162.325479 144.164243 
L 163.243439 218.060998 
L 164.161398 231.653718 
L 165.079358 223.576686 
L 165.997318 231.945857 
L 166.915278 227.665773 
L 167.833237 230.232353 
L 168.751197 231.505227 
L 169.669157 230.363018 
L 170.587117 231.22789 
L 171.505076 229.170188 
L 172.423036 230.458992 
L 173.340996 229.396805 
L 174.258956 225.146802 
L 175.176915 223.077939 
L 176.094875 214.437217 
L 177.012835 224.786766 
L 177.930795 155.571995 
L 178.848754 228.74946 
L 179.766714 221.135186 
L 180.684674 37.529091 
L 181.602634 219.362586 
L 182.520593 195.179937 
L 183.438553 218.434911 
L 184.356513 224.129255 
L 185.274473 217.664022 
L 186.192432 224.364123 
L 187.110392 219.706984 
L 188.028352 227.551978 
L 188.946312 223.281912 
L 189.864271 229.11648 
L 190.782231 222.657824 
L 191.700191 228.884491 
L 192.618151 226.928451 
L 193.53611 228.721756 
L 194.45407 135.962156 
L 195.37203 221.822719 
L 196.28999 219.771789 
L 197.207949 221.970526 
L 198.125909 217.287538 
L 199.043869 215.176198 
L 199.961829 228.97807 
L 200.879788 193.045442 
L 201.797748 200.679958 
L 202.715708 225.031562 
L 203.633668 227.763841 
L 204.551627 227.648128 
L 205.469587 230.708309 
L 206.387547 231.007323 
L 207.305507 231.446081 
L 208.223466 235.705157 
L 209.141426 222.206531 
L 210.059386 227.375741 
L 210.977346 226.513611 
L 211.895305 221.732486 
L 212.813265 226.088182 
L 213.731225 223.466344 
L 214.649185 230.064407 
L 215.567144 221.491624 
L 216.485104 228.792277 
L 217.403064 228.743204 
L 218.321024 217.143622 
L 219.238983 195.400661 
L 220.156943 230.134344 
L 221.074903 201.36763 
L 221.992863 230.511092 
L 222.910822 221.436533 
L 223.828782 219.506928 
L 224.746742 227.230321 
L 225.664702 199.051794 
L 226.582661 227.116246 
L 227.500621 215.99295 
L 227.500621 215.99295 
" clip-path="url(#pcd5a6a1446)" style="fill: none; stroke: #ff7f0e; stroke-width: 1.5; stroke-linecap: square"/>
   </g>
   <g id="line2d_17">
    <path d="M 228.418581 234.992256 
L 229.336541 230.458379 
L 230.2545 230.236539 
L 231.17246 230.833921 
L 232.09042 227.998982 
L 233.00838 199.90031 
L 233.926339 235.182723 
L 234.844299 231.054251 
L 235.762259 233.992167 
L 236.680219 233.564005 
L 237.598178 231.751877 
L 238.516138 234.67237 
L 239.434098 231.476813 
L 240.352058 232.576918 
L 241.270017 234.909327 
L 242.187977 221.772754 
L 243.105937 232.182193 
L 244.023897 227.596736 
L 244.941856 233.528135 
L 245.859816 235.273438 
L 246.777776 233.691954 
L 247.695736 227.841465 
L 248.613695 212.435857 
L 249.531655 233.084584 
L 250.449615 225.248571 
L 251.367575 227.571905 
L 252.285534 233.922659 
L 253.203494 232.929636 
L 254.121454 230.763569 
L 255.039414 231.523699 
L 255.957373 235.301727 
L 256.875333 234.044604 
L 257.793293 233.65885 
L 258.711253 229.586072 
L 259.629212 233.844402 
L 260.547172 233.955468 
L 261.465132 233.327022 
L 262.383092 218.659142 
L 263.301051 233.843485 
L 264.219011 229.665365 
L 265.136971 227.530575 
L 266.054931 233.367418 
L 266.97289 204.387068 
L 267.89085 233.48293 
L 268.80881 221.994551 
L 269.72677 233.744968 
L 270.644729 233.657039 
L 271.562689 225.311535 
L 272.480649 226.108064 
L 273.398609 232.179303 
L 274.316568 216.04306 
L 275.234528 228.618872 
L 276.152488 233.62014 
L 277.070448 234.353708 
L 277.988407 233.763044 
L 278.906367 233.866858 
L 279.824327 231.541751 
L 280.742287 226.561666 
L 281.660246 230.901644 
L 283.496166 230.288712 
L 284.414126 229.707459 
L 285.332085 215.647752 
L 286.250045 230.353846 
L 287.168005 212.96024 
L 288.085965 228.181886 
L 289.003924 234.276156 
L 289.921884 234.514304 
L 290.839844 235.347625 
L 291.757804 233.337065 
L 292.675763 234.150016 
L 293.593723 231.848871 
L 294.511683 232.393674 
L 295.429643 219.69154 
L 296.347602 230.728963 
L 297.265562 227.725133 
L 298.183522 229.157115 
L 299.101482 233.658076 
L 300.019441 232.374363 
L 300.937401 233.377459 
L 301.855361 233.893993 
L 302.773321 233.402324 
L 303.69128 220.678224 
L 304.60924 230.614026 
L 305.5272 231.573647 
L 306.44516 231.145971 
L 307.363119 232.360351 
L 308.281079 233.199975 
L 309.199039 211.87672 
L 310.116999 230.608641 
L 311.034958 234.580508 
L 311.952918 234.258352 
L 312.870878 184.314604 
L 313.788838 228.592713 
L 314.706797 234.276956 
L 315.624757 230.931629 
L 316.542717 234.295672 
L 317.460677 232.897925 
L 319.296596 234.592367 
L 320.214556 233.117283 
L 321.132516 234.552023 
L 322.050475 230.416715 
L 322.968435 233.449415 
L 323.886395 234.957594 
L 324.804355 233.097923 
L 325.722314 226.437821 
L 326.640274 217.117829 
L 327.558234 229.595624 
L 328.476194 191.111107 
L 329.394153 231.137574 
L 330.312113 228.656101 
L 331.230073 124.867951 
L 332.148033 231.934441 
L 333.065992 220.606678 
L 333.983952 229.920382 
L 334.901912 230.879485 
L 335.819872 230.353067 
L 336.737831 232.598032 
L 337.655791 229.604493 
L 338.573751 233.224966 
L 339.491711 231.745343 
L 340.40967 233.901047 
L 341.32763 232.686596 
L 342.24559 233.947624 
L 343.16355 232.768316 
L 344.081509 233.252823 
L 344.999469 181.844848 
L 345.917429 229.970033 
L 346.835389 224.182494 
L 347.753348 229.371312 
L 348.671308 226.450763 
L 349.589268 228.574179 
L 350.507228 234.66521 
L 351.425187 211.381469 
L 352.343147 218.356672 
L 353.261107 234.065239 
L 354.179067 233.253816 
L 355.097026 233.37125 
L 356.014986 232.536112 
L 356.932946 233.953162 
L 357.850906 232.437091 
L 358.768865 236.105363 
L 359.686825 233.722198 
L 360.604785 233.306005 
L 361.522745 233.441232 
L 362.440704 231.329384 
L 363.358664 234.240258 
L 364.276624 233.730265 
L 365.194584 235.123752 
L 366.112543 231.443696 
L 367.030503 234.67923 
L 367.948463 235.170381 
L 368.866423 231.278636 
L 369.784382 226.237957 
L 370.702342 234.470237 
L 371.620302 223.107616 
L 372.538262 235.026491 
L 373.456221 230.037006 
L 374.374181 229.302758 
L 375.292141 232.638018 
L 376.210101 221.380937 
L 377.12806 233.581711 
L 378.04602 226.862269 
L 378.04602 226.862269 
" clip-path="url(#pcd5a6a1446)" style="fill: none; stroke: #2ca02c; stroke-width: 1.5; stroke-linecap: square"/>
   </g>
   <g id="line2d_18">
    <path d="M 228.418581 233.323141 
L 229.336541 225.998678 
L 230.2545 214.848733 
L 231.17246 223.104976 
L 232.09042 212.580033 
L 233.00838 144.712628 
L 233.926339 233.451785 
L 234.844299 219.229069 
L 235.762259 228.944513 
L 236.680219 226.941643 
L 237.598178 223.722494 
L 238.516138 230.271685 
L 239.434098 220.683785 
L 240.352058 223.294938 
L 241.270017 230.335735 
L 242.187977 203.303985 
L 243.105937 226.404951 
L 244.023897 217.059224 
L 244.941856 225.750351 
L 245.859816 231.218248 
L 246.777776 229.606265 
L 247.695736 224.54035 
L 248.613695 186.722461 
L 249.531655 227.34573 
L 250.449615 220.586395 
L 251.367575 217.075452 
L 252.285534 229.393218 
L 253.203494 226.86745 
L 254.121454 216.937216 
L 255.039414 226.643236 
L 255.957373 231.126639 
L 256.875333 224.308968 
L 257.793293 226.036138 
L 258.711253 208.592747 
L 259.629212 223.628987 
L 260.547172 227.052448 
L 261.465132 217.301504 
L 262.383092 184.348467 
L 263.301051 226.509666 
L 264.219011 215.453422 
L 265.136971 212.393875 
L 266.054931 223.049723 
L 266.97289 197.985007 
L 267.89085 224.828684 
L 268.80881 197.896256 
L 269.72677 225.872494 
L 270.644729 222.73572 
L 271.562689 208.577043 
L 272.480649 212.193062 
L 273.398609 220.635958 
L 274.316568 182.001644 
L 275.234528 215.981589 
L 276.152488 227.224762 
L 277.070448 227.955228 
L 277.988407 228.349307 
L 278.906367 230.078759 
L 279.824327 225.022841 
L 280.742287 202.637161 
L 281.660246 220.944713 
L 282.578206 213.280015 
L 283.496166 201.991816 
L 284.414126 223.29716 
L 285.332085 181.22127 
L 286.250045 215.82628 
L 287.168005 205.916485 
L 288.085965 221.337831 
L 289.003924 232.145075 
L 289.921884 231.480381 
L 290.839844 231.467212 
L 291.757804 232.083507 
L 292.675763 231.094695 
L 293.593723 228.990753 
L 294.511683 230.826837 
L 295.429643 177.659158 
L 296.347602 218.947376 
L 297.265562 222.240768 
L 298.183522 218.018569 
L 299.101482 227.738572 
L 300.937401 220.453056 
L 301.855361 225.741639 
L 302.773321 222.295692 
L 303.69128 201.762868 
L 304.60924 215.025802 
L 305.5272 219.136039 
L 306.44516 218.127666 
L 307.363119 225.6512 
L 308.281079 218.029091 
L 309.199039 174.666794 
L 310.116999 214.813355 
L 311.034958 226.781387 
L 311.952918 224.404601 
L 312.870878 136.175655 
L 313.788838 218.227309 
L 314.706797 231.649603 
L 315.624757 223.62895 
L 316.542717 231.989808 
L 317.460677 227.702634 
L 318.378636 230.126496 
L 319.296596 231.54323 
L 320.214556 230.395009 
L 321.132516 231.192363 
L 322.050475 229.180531 
L 322.968435 230.456216 
L 323.886395 229.444084 
L 324.804355 225.477 
L 325.722314 223.555792 
L 326.640274 212.103608 
L 327.558234 224.313359 
L 328.476194 159.264396 
L 329.394153 229.115527 
L 330.312113 221.90011 
L 331.230073 48.98224 
L 332.148033 220.347438 
L 333.065992 197.226481 
L 333.983952 219.251529 
L 334.901912 224.818544 
L 335.819872 218.612988 
L 336.737831 225.315981 
L 337.655791 220.962002 
L 338.573751 228.277036 
L 339.491711 224.325237 
L 340.40967 229.67767 
L 341.32763 223.765859 
L 342.24559 229.488379 
L 343.16355 227.557644 
L 344.081509 229.38671 
L 344.999469 141.248762 
L 345.917429 222.510877 
L 346.835389 220.305628 
L 347.753348 222.79586 
L 348.671308 218.606532 
L 349.589268 216.206362 
L 350.507228 229.215821 
L 351.425187 195.894562 
L 352.343147 202.365512 
L 353.261107 225.400102 
L 354.179067 227.852049 
L 355.097026 227.895941 
L 356.014986 230.893952 
L 356.932946 230.961283 
L 357.850906 231.404772 
L 358.768865 235.69829 
L 359.686825 221.974153 
L 360.604785 227.046803 
L 361.522745 226.457184 
L 362.440704 222.500586 
L 363.358664 226.086969 
L 364.276624 223.784402 
L 365.194584 230.234784 
L 366.112543 222.358178 
L 367.030503 228.575724 
L 367.948463 228.748309 
L 368.866423 218.456241 
L 369.784382 197.338267 
L 370.702342 230.453627 
L 371.620302 203.190163 
L 372.538262 230.82051 
L 373.456221 222.562221 
L 374.374181 220.729458 
L 375.292141 227.858064 
L 376.210101 201.781507 
L 377.12806 227.69409 
L 378.04602 217.129199 
L 378.04602 217.129199 
" clip-path="url(#pcd5a6a1446)" style="fill: none; stroke: #d62728; stroke-width: 1.5; stroke-linecap: square"/>
   </g>
   <g id="line2d_19">
    <path d="M 378.96398 235.046487 
L 379.88194 230.952464 
L 380.799899 230.450165 
L 381.717859 231.065448 
L 382.635819 228.555449 
L 383.553779 202.199906 
L 384.471738 235.257995 
L 385.389698 230.998671 
L 386.307658 234.087543 
L 387.225618 233.518053 
L 388.143577 231.837506 
L 389.061537 234.694723 
L 389.979497 231.745883 
L 390.897457 232.766805 
L 391.815416 234.984872 
L 392.733376 223.123836 
L 393.651336 232.21336 
L 394.569296 228.355073 
L 395.487255 233.687314 
L 396.405215 235.316709 
L 397.323175 233.760237 
L 398.241135 228.181192 
L 399.159094 213.685209 
L 400.077054 233.096153 
L 400.995014 225.800405 
L 401.912974 228.008627 
L 402.830933 233.83129 
L 403.748893 233.077435 
L 404.666853 231.027673 
L 405.584813 231.571584 
L 406.502772 235.333397 
L 407.420732 234.055511 
L 408.338692 233.827105 
L 409.256652 229.855318 
L 410.174611 233.937418 
L 411.092571 234.032896 
L 412.010531 233.493318 
L 412.928491 218.515581 
L 413.84645 233.880744 
L 414.76441 229.856659 
L 415.68237 227.873044 
L 416.60033 233.582311 
L 417.518289 204.929037 
L 418.436249 233.629487 
L 419.354209 222.907361 
L 420.272169 233.8307 
L 421.190128 233.755753 
L 422.108088 225.776442 
L 423.026048 226.346711 
L 423.944008 232.34924 
L 424.861967 216.86493 
L 425.779927 228.64733 
L 426.697887 233.56945 
L 427.615847 234.453521 
L 428.533806 233.802989 
L 429.451766 233.970633 
L 430.369726 231.695993 
L 431.287686 227.022173 
L 432.205645 231.021583 
L 433.123605 230.852844 
L 434.041565 230.15444 
L 434.959525 229.905847 
L 435.877484 216.367469 
L 436.795444 230.47713 
L 437.713404 215.65401 
L 438.631364 228.533289 
L 439.549323 234.243498 
L 440.467283 234.587204 
L 441.385243 235.393617 
L 442.303203 233.432385 
L 443.221162 234.193312 
L 444.139122 232.116689 
L 445.057082 232.539407 
L 445.975042 220.479712 
L 446.893001 230.873777 
L 447.810961 228.345101 
L 448.728921 229.597532 
L 449.646881 233.741848 
L 450.56484 232.576889 
L 451.4828 233.528574 
L 452.40076 234.131741 
L 453.31872 233.544106 
L 454.236679 221.260867 
L 455.154639 230.756996 
L 456.072599 231.25512 
L 456.990559 231.289152 
L 457.908518 232.426476 
L 458.826478 233.347826 
L 459.744438 211.928154 
L 460.662398 230.873712 
L 461.580357 234.630147 
L 462.498317 234.465225 
L 463.416277 187.730315 
L 464.334237 228.671658 
L 465.252196 234.305345 
L 466.170156 231.175017 
L 467.088116 234.361931 
L 468.006076 233.053301 
L 469.841995 234.628537 
L 470.759955 233.251796 
L 471.677915 234.613136 
L 472.595874 230.720268 
L 473.513834 233.505082 
L 474.431794 235.019625 
L 475.349754 233.269017 
L 476.267713 226.399925 
L 477.185673 214.586665 
L 478.103633 232.019633 
L 479.021593 193.045715 
L 479.939552 231.708128 
L 480.857512 229.139212 
L 481.775472 129.351703 
L 482.693432 231.944489 
L 483.611391 221.147535 
L 484.529351 230.139098 
L 485.447311 230.921254 
L 486.365271 230.808436 
L 487.28323 232.715005 
L 488.20119 229.624938 
L 489.11915 233.288717 
L 490.03711 231.794277 
L 490.955069 233.911288 
L 491.873029 232.82911 
L 492.790989 233.972993 
L 493.708949 232.795448 
L 494.626908 233.245591 
L 495.544868 184.945388 
L 496.462828 230.250161 
L 497.380788 224.787494 
L 498.298747 230.009574 
L 499.216707 227.003063 
L 500.134667 228.699878 
L 501.052627 234.792477 
L 501.970586 213.020282 
L 502.888546 219.702014 
L 503.806506 234.175826 
L 504.724466 233.480328 
L 505.642425 233.512861 
L 506.560385 232.796454 
L 507.478345 234.035647 
L 508.396305 232.567098 
L 509.314264 236.109127 
L 510.232224 233.835391 
L 512.068144 233.876329 
L 512.986103 231.831161 
L 513.904063 234.331032 
L 514.822023 233.986076 
L 515.739983 235.179736 
L 516.657942 231.767697 
L 517.575902 234.743585 
L 518.493862 235.234792 
L 519.411822 231.341049 
L 520.329781 226.470994 
L 521.247741 234.518784 
L 522.165701 224.021037 
L 523.083661 235.092377 
L 524.00162 230.029237 
L 524.91958 229.690079 
L 525.83754 232.704199 
L 526.7555 221.71942 
L 527.673459 233.72567 
L 528.591419 227.628317 
L 528.591419 227.628317 
" clip-path="url(#pcd5a6a1446)" style="fill: none; stroke: #9467bd; stroke-width: 1.5; stroke-linecap: square"/>
   </g>
   <g id="line2d_20">
    <path d="M 378.96398 233.365347 
L 379.88194 226.302689 
L 380.799899 215.267271 
L 381.717859 223.452009 
L 382.635819 213.393874 
L 383.553779 149.43863 
L 384.471738 233.563258 
L 385.389698 219.396215 
L 386.307658 228.941106 
L 387.225618 227.046058 
L 388.143577 223.946659 
L 389.061537 230.270843 
L 389.979497 221.28755 
L 390.897457 223.787918 
L 391.815416 230.531585 
L 392.733376 204.91756 
L 393.651336 226.603683 
L 394.569296 218.247792 
L 395.487255 226.10642 
L 396.405215 231.355301 
L 397.323175 229.703928 
L 398.241135 224.890727 
L 399.159094 188.081307 
L 400.077054 227.445263 
L 400.995014 221.200733 
L 401.912974 217.566031 
L 402.830933 229.44451 
L 403.748893 227.175391 
L 404.666853 217.228776 
L 405.584813 226.76416 
L 406.502772 231.15845 
L 407.420732 224.417719 
L 408.338692 226.320846 
L 409.256652 209.6238 
L 410.174611 223.752865 
L 411.092571 227.431413 
L 412.010531 217.779811 
L 412.928491 184.754531 
L 413.84645 226.895486 
L 414.76441 216.300371 
L 415.68237 213.026879 
L 416.60033 223.355274 
L 417.518289 198.407957 
L 418.436249 224.928143 
L 419.354209 199.288886 
L 420.272169 225.601337 
L 421.190128 222.614579 
L 422.108088 209.158055 
L 423.026048 213.094087 
L 423.944008 220.927719 
L 424.861967 184.378457 
L 425.779927 216.421502 
L 426.697887 227.757276 
L 428.533806 228.710059 
L 429.451766 230.358304 
L 430.369726 225.576474 
L 431.287686 203.388546 
L 432.205645 222.266881 
L 433.123605 214.084221 
L 434.041565 202.686858 
L 434.959525 223.866085 
L 435.877484 183.213405 
L 436.795444 216.524767 
L 437.713404 205.405731 
L 438.631364 221.998971 
L 439.549323 232.045688 
L 440.467283 231.497141 
L 441.385243 231.511441 
L 442.303203 232.095196 
L 443.221162 231.130972 
L 444.139122 229.062196 
L 445.057082 230.846259 
L 445.975042 181.421747 
L 446.893001 219.785948 
L 447.810961 222.727472 
L 448.728921 217.919375 
L 449.646881 228.338329 
L 450.56484 225.098585 
L 451.4828 221.164599 
L 452.40076 227.571359 
L 453.31872 222.676347 
L 454.236679 203.231612 
L 455.154639 215.945715 
L 456.072599 219.449781 
L 456.990559 219.429831 
L 457.908518 225.828887 
L 458.826478 218.403003 
L 459.744438 179.085692 
L 460.662398 215.610873 
L 461.580357 226.963601 
L 462.498317 224.702441 
L 463.416277 157.412936 
L 464.334237 218.792379 
L 465.252196 231.834214 
L 466.170156 224.268069 
L 467.088116 232.177337 
L 468.006076 228.093172 
L 468.924035 230.404091 
L 469.841995 231.750816 
L 470.759955 230.597553 
L 471.677915 231.464974 
L 472.595874 229.479821 
L 473.513834 230.73979 
L 474.431794 229.652348 
L 475.349754 225.924142 
L 476.267713 223.930747 
L 477.185673 218.120601 
L 478.103633 226.12506 
L 479.021593 162.795234 
L 479.939552 229.567146 
L 480.857512 222.908315 
L 481.775472 57.351765 
L 482.693432 220.624613 
L 483.611391 198.546422 
L 484.529351 219.843021 
L 485.447311 225.484389 
L 486.365271 219.230721 
L 487.28323 225.632002 
L 488.20119 221.288339 
L 489.11915 228.3601 
L 490.03711 224.62857 
L 490.955069 229.775168 
L 491.873029 224.119751 
L 492.790989 229.612083 
L 493.708949 227.690573 
L 494.626908 229.518054 
L 495.544868 144.666668 
L 496.462828 222.934558 
L 497.380788 220.702716 
L 498.298747 223.304766 
L 499.216707 219.324826 
L 500.134667 216.548715 
L 501.052627 229.42773 
L 501.970586 197.6532 
L 502.888546 203.591626 
L 503.806506 225.683244 
L 504.724466 228.175427 
L 505.642425 228.083281 
L 506.560385 231.093204 
L 507.478345 230.974292 
L 508.396305 231.396544 
L 509.314264 235.715263 
L 510.232224 222.742033 
L 511.150184 227.357707 
L 512.068144 227.393541 
L 512.986103 223.067734 
L 513.904063 226.07918 
L 514.822023 224.481559 
L 515.739983 230.444782 
L 516.657942 223.014834 
L 517.575902 228.498075 
L 518.493862 229.017886 
L 519.411822 218.617643 
L 520.329781 197.385499 
L 521.247741 230.439472 
L 522.165701 203.497321 
L 523.083661 230.783746 
L 524.00162 222.8437 
L 524.91958 221.126281 
L 525.83754 228.077317 
L 526.7555 202.428429 
L 527.673459 227.902385 
L 528.591419 218.194083 
L 528.591419 218.194083 
" clip-path="url(#pcd5a6a1446)" style="fill: none; stroke: #8c564b; stroke-width: 1.5; stroke-linecap: square"/>
   </g>
   <g id="line2d_21">
    <path d="M 529.509379 235.117113 
L 530.427339 231.16677 
L 531.345298 230.72488 
L 532.263258 231.363563 
L 533.181218 228.956325 
L 534.099178 202.093538 
L 535.017137 235.270919 
L 535.935097 231.293071 
L 536.853057 234.125659 
L 537.771017 233.722558 
L 538.688976 231.856047 
L 539.606936 234.76722 
L 540.524896 232.122535 
L 541.442856 232.941894 
L 542.360815 235.010919 
L 543.278775 224.540564 
L 544.196735 232.451703 
L 545.114695 228.665686 
L 546.032654 233.816734 
L 546.950614 235.355885 
L 547.868574 233.808083 
L 548.786534 228.546789 
L 549.704493 214.451157 
L 550.622453 233.221942 
L 551.540413 226.214568 
L 552.458373 228.136426 
L 553.376332 234.107347 
L 554.294292 233.217532 
L 555.212252 231.200676 
L 556.130212 231.869029 
L 557.048171 235.383759 
L 557.966131 234.123138 
L 558.884091 233.955719 
L 559.802051 230.088219 
L 560.72001 234.012954 
L 561.63797 234.167413 
L 562.55593 233.627958 
L 563.47389 219.061847 
L 564.391849 233.994768 
L 565.309809 229.976674 
L 566.227769 228.14514 
L 567.145729 233.73122 
L 568.063688 207.015897 
L 568.981648 233.788095 
L 569.899608 223.454697 
L 570.817568 233.981422 
L 571.735527 234.018444 
L 572.653487 226.607215 
L 573.571447 226.485217 
L 574.489407 232.519468 
L 575.407366 217.604373 
L 576.325326 228.902016 
L 577.243286 233.661821 
L 578.161246 234.5277 
L 579.079205 233.870298 
L 579.997165 234.093101 
L 580.915125 231.815916 
L 581.833085 227.40941 
L 582.751044 231.208694 
L 583.669004 231.16961 
L 584.586964 230.460058 
L 585.504924 230.194773 
L 586.422883 217.363248 
L 587.340843 230.729608 
L 588.258803 216.29815 
L 589.176763 228.971278 
L 590.094722 234.391474 
L 591.012682 234.670958 
L 591.930642 235.434845 
L 592.848602 233.519598 
L 593.766561 234.298938 
L 594.684521 232.301248 
L 595.602481 232.713691 
L 596.520441 221.235628 
L 597.4384 231.173871 
L 598.35636 228.535076 
L 599.27432 230.00315 
L 600.19228 233.845544 
L 601.110239 232.652116 
L 602.028199 233.614106 
L 602.946159 234.186529 
L 603.864119 233.629376 
L 604.782078 222.191121 
L 605.700038 230.942985 
L 606.617998 231.389691 
L 607.535958 231.392045 
L 608.453917 232.584192 
L 609.371877 233.498375 
L 610.289837 216.601681 
L 611.207797 230.890698 
L 612.125756 234.819682 
L 613.043716 234.610618 
L 613.961676 188.821577 
L 614.879636 228.659265 
L 615.797595 234.410637 
L 616.715555 231.324263 
L 617.633515 234.483691 
L 618.551475 233.282377 
L 620.387394 234.717699 
L 621.305354 233.402143 
L 622.223314 234.685481 
L 623.141273 230.886299 
L 624.059233 233.615928 
L 624.977193 235.052646 
L 625.895153 233.402683 
L 626.813112 226.059152 
L 627.731072 213.641932 
L 628.649032 232.30935 
L 629.566992 194.689698 
L 630.484951 232.047388 
L 631.402911 229.40913 
L 632.320871 133.97594 
L 633.238831 232.206823 
L 634.15679 221.930361 
L 635.07475 230.306128 
L 636.91067 230.753075 
L 637.828629 232.798962 
L 638.746589 230.065177 
L 639.664549 233.394205 
L 640.582509 231.972375 
L 641.500468 234.02729 
L 642.418428 232.854998 
L 643.336388 234.037873 
L 644.254348 232.937042 
L 645.172307 233.384324 
L 646.090267 186.588505 
L 647.008227 230.333077 
L 647.926187 225.63059 
L 648.844146 230.172662 
L 649.762106 227.155321 
L 650.680066 229.023565 
L 651.598026 234.849649 
L 652.515985 212.697758 
L 653.433945 219.170293 
L 654.351905 234.299297 
L 655.269865 233.611731 
L 656.187824 233.613493 
L 657.105784 232.918075 
L 658.023744 234.189087 
L 658.941704 232.73459 
L 659.859663 236.110909 
L 660.777623 233.935021 
L 661.695583 233.514995 
L 662.613543 233.968044 
L 663.531502 232.005576 
L 664.449462 234.367489 
L 665.367422 234.002653 
L 666.285382 235.220822 
L 667.203341 231.916815 
L 668.121301 234.743901 
L 669.039261 235.258548 
L 669.957221 231.712202 
L 670.87518 226.238782 
L 671.79314 234.606321 
L 672.7111 224.390533 
L 673.62906 235.153905 
L 674.547019 230.323209 
L 675.464979 229.903548 
L 676.382939 232.877468 
L 677.300899 222.131627 
L 678.218858 233.858356 
L 679.136818 227.944051 
L 679.136818 227.944051 
" clip-path="url(#pcd5a6a1446)" style="fill: none; stroke: #e377c2; stroke-width: 1.5; stroke-linecap: square"/>
   </g>
   <g id="line2d_22">
    <path d="M 529.509379 233.380372 
L 530.427339 226.601339 
L 531.345298 215.574167 
L 532.263258 223.57879 
L 533.181218 213.784775 
L 534.099178 151.081524 
L 535.017137 233.605285 
L 535.935097 219.376394 
L 536.853057 229.171361 
L 537.771017 227.13445 
L 538.688976 224.151685 
L 539.606936 230.519602 
L 540.524896 221.525604 
L 541.442856 223.910002 
L 542.360815 230.577532 
L 543.278775 205.18639 
L 544.196735 226.772498 
L 545.114695 218.489545 
L 546.032654 226.229577 
L 546.950614 231.429078 
L 547.868574 229.834769 
L 548.786534 225.076745 
L 549.704493 188.99146 
L 550.622453 227.690209 
L 551.540413 221.490895 
L 552.458373 217.725192 
L 553.376332 229.589404 
L 554.294292 227.400986 
L 555.212252 217.955087 
L 556.130212 226.994174 
L 557.048171 231.300006 
L 557.966131 224.626158 
L 558.884091 226.415137 
L 559.802051 209.92296 
L 560.72001 224.081923 
L 561.63797 227.614565 
L 562.55593 218.135803 
L 563.47389 185.76063 
L 564.391849 227.085161 
L 565.309809 216.521754 
L 566.227769 213.454938 
L 567.145729 223.636858 
L 568.063688 200.828238 
L 568.981648 225.145869 
L 569.899608 199.905377 
L 570.817568 226.157043 
L 571.735527 223.266672 
L 572.653487 210.14379 
L 573.571447 213.484614 
L 574.489407 221.14303 
L 575.407366 179.101902 
L 576.325326 216.428628 
L 577.243286 227.74586 
L 579.079205 228.900431 
L 579.997165 230.510623 
L 580.915125 225.7081 
L 581.833085 203.894219 
L 582.751044 222.786598 
L 583.669004 214.562103 
L 584.586964 203.458493 
L 585.504924 224.219736 
L 586.422883 184.185219 
L 587.340843 216.712418 
L 588.258803 207.728317 
L 589.176763 222.462411 
L 590.094722 231.969715 
L 591.012682 231.533034 
L 591.930642 231.50283 
L 592.848602 232.148892 
L 593.766561 231.169531 
L 594.684521 229.217912 
L 595.602481 230.960574 
L 596.520441 182.892905 
L 597.4384 220.065166 
L 598.35636 222.958197 
L 599.27432 218.281073 
L 600.19228 228.493707 
L 601.110239 225.29594 
L 602.028199 221.446684 
L 602.946159 227.728636 
L 603.864119 222.807643 
L 604.782078 203.816033 
L 605.700038 216.111851 
L 606.617998 219.040932 
L 607.535958 219.607536 
L 608.453917 226.099124 
L 609.371877 218.800364 
L 610.289837 180.772412 
L 611.207797 215.937908 
L 612.125756 227.24554 
L 613.043716 225.057801 
L 613.961676 177.301358 
L 614.879636 219.264296 
L 615.797595 231.983764 
L 616.715555 224.485409 
L 617.633515 232.318437 
L 618.551475 228.328886 
L 619.469434 230.504611 
L 620.387394 231.853907 
L 621.305354 230.747466 
L 622.223314 231.554648 
L 623.141273 229.651633 
L 624.059233 230.877088 
L 624.977193 229.730815 
L 625.895153 226.012418 
L 626.813112 223.731354 
L 627.731072 217.891665 
L 628.649032 226.040529 
L 629.566992 164.670571 
L 630.484951 229.689578 
L 631.402911 223.074217 
L 632.320871 56.99976 
L 633.238831 220.965349 
L 634.15679 199.324987 
L 635.07475 219.67684 
L 635.99271 225.550428 
L 636.91067 219.342752 
L 637.828629 225.624562 
L 638.746589 221.493067 
L 639.664549 228.717307 
L 640.582509 224.810685 
L 641.500468 229.963035 
L 642.418428 224.297387 
L 643.336388 229.749953 
L 644.254348 227.827636 
L 645.172307 229.7085 
L 646.090267 146.306405 
L 647.008227 223.034016 
L 647.926187 221.391898 
L 648.844146 223.47546 
L 649.762106 219.489895 
L 650.680066 216.973236 
L 651.598026 229.538138 
L 652.515985 197.476315 
L 653.433945 203.214834 
L 654.351905 225.87729 
L 655.269865 228.321817 
L 656.187824 228.222145 
L 657.105784 231.220467 
L 658.023744 231.117675 
L 658.941704 231.560018 
L 659.859663 235.721043 
L 660.777623 223.015631 
L 661.695583 227.603699 
L 662.613543 227.351916 
L 663.531502 223.305183 
L 664.449462 226.151473 
L 665.367422 224.394959 
L 666.285382 230.53482 
L 667.203341 223.166759 
L 668.121301 228.529811 
L 669.039261 229.163065 
L 669.957221 218.943722 
L 670.87518 198.481827 
L 671.79314 230.637478 
L 672.7111 204.35688 
L 673.62906 231.00017 
L 674.547019 223.048249 
L 675.464979 221.400745 
L 676.382939 228.206966 
L 677.300899 202.929749 
L 678.218858 228.192002 
L 679.136818 218.423573 
L 679.136818 218.423573 
" clip-path="url(#pcd5a6a1446)" style="fill: none; stroke: #7f7f7f; stroke-width: 1.5; stroke-linecap: square"/>
   </g>
   <g id="patch_3">
    <path d="M 47.81 246.04 
L 47.81 27.6 
" style="fill: none; stroke: #000000; stroke-width: 0.8; stroke-linejoin: miter; stroke-linecap: square"/>
   </g>
   <g id="patch_4">
    <path d="M 709.2 246.04 
L 709.2 27.6 
" style="fill: none; stroke: #000000; stroke-width: 0.8; stroke-linejoin: miter; stroke-linecap: square"/>
   </g>
   <g id="patch_5">
    <path d="M 47.81 246.04 
L 709.2 246.04 
" style="fill: none; stroke: #000000; stroke-width: 0.8; stroke-linejoin: miter; stroke-linecap: square"/>
   </g>
   <g id="patch_6">
    <path d="M 47.81 27.6 
L 709.2 27.6 
" style="fill: none; stroke: #000000; stroke-width: 0.8; stroke-linejoin: miter; stroke-linecap: square"/>
   </g>
   <g id="text_18">
    <!-- volution de la concentration de gaz de 2016  2019 -->
    <g transform="translate(219.114063 21.6) scale(0.12 -0.12)">
     <defs>
      <path id="DejaVuSans-c9" d="M 628 4666 
L 3578 4666 
L 3578 4134 
L 1259 4134 
L 1259 2753 
L 3481 2753 
L 3481 2222 
L 1259 2222 
L 1259 531 
L 3634 531 
L 3634 0 
L 628 0 
L 628 4666 
z
M 2266 5935 
L 2844 5935 
L 2131 5110 
L 1653 5110 
L 2266 5935 
z
" transform="scale(0.015625)"/>
      <path id="DejaVuSans-76" d="M 191 3500 
L 800 3500 
L 1894 563 
L 2988 3500 
L 3597 3500 
L 2284 0 
L 1503 0 
L 191 3500 
z
" transform="scale(0.015625)"/>
      <path id="DejaVuSans-6c" d="M 603 4863 
L 1178 4863 
L 1178 0 
L 603 0 
L 603 4863 
z
" transform="scale(0.015625)"/>
      <path id="DejaVuSans-75" d="M 544 1381 
L 544 3500 
L 1119 3500 
L 1119 1403 
Q 1119 906 1312 657 
Q 1506 409 1894 409 
Q 2359 409 2629 706 
Q 2900 1003 2900 1516 
L 2900 3500 
L 3475 3500 
L 3475 0 
L 2900 0 
L 2900 538 
Q 2691 219 2414 64 
Q 2138 -91 1772 -91 
Q 1169 -91 856 284 
Q 544 659 544 1381 
z
M 1991 3584 
L 1991 3584 
z
" transform="scale(0.015625)"/>
      <path id="DejaVuSans-e0" d="M 2194 1759 
Q 1497 1759 1228 1600 
Q 959 1441 959 1056 
Q 959 750 1161 570 
Q 1363 391 1709 391 
Q 2188 391 2477 730 
Q 2766 1069 2766 1631 
L 2766 1759 
L 2194 1759 
z
M 3341 1997 
L 3341 0 
L 2766 0 
L 2766 531 
Q 2569 213 2275 61 
Q 1981 -91 1556 -91 
Q 1019 -91 701 211 
Q 384 513 384 1019 
Q 384 1609 779 1909 
Q 1175 2209 1959 2209 
L 2766 2209 
L 2766 2266 
Q 2766 2663 2505 2880 
Q 2244 3097 1772 3097 
Q 1472 3097 1187 3025 
Q 903 2953 641 2809 
L 641 3341 
Q 956 3463 1253 3523 
Q 1550 3584 1831 3584 
Q 2591 3584 2966 3190 
Q 3341 2797 3341 1997 
z
M 1403 5119 
L 2284 3950 
L 1806 3950 
L 788 5119 
L 1403 5119 
z
" transform="scale(0.015625)"/>
      <path id="DejaVuSans-39" d="M 703 97 
L 703 672 
Q 941 559 1184 500 
Q 1428 441 1663 441 
Q 2288 441 2617 861 
Q 2947 1281 2994 2138 
Q 2813 1869 2534 1725 
Q 2256 1581 1919 1581 
Q 1219 1581 811 2004 
Q 403 2428 403 3163 
Q 403 3881 828 4315 
Q 1253 4750 1959 4750 
Q 2769 4750 3195 4129 
Q 3622 3509 3622 2328 
Q 3622 1225 3098 567 
Q 2575 -91 1691 -91 
Q 1453 -91 1209 -44 
Q 966 3 703 97 
z
M 1959 2075 
Q 2384 2075 2632 2365 
Q 2881 2656 2881 3163 
Q 2881 3666 2632 3958 
Q 2384 4250 1959 4250 
Q 1534 4250 1286 3958 
Q 1038 3666 1038 3163 
Q 1038 2656 1286 2365 
Q 1534 2075 1959 2075 
z
" transform="scale(0.015625)"/>
     </defs>
     <use xlink:href="#DejaVuSans-c9"/>
     <use xlink:href="#DejaVuSans-76" x="63.183594"/>
     <use xlink:href="#DejaVuSans-6f" x="122.363281"/>
     <use xlink:href="#DejaVuSans-6c" x="183.544922"/>
     <use xlink:href="#DejaVuSans-75" x="211.328125"/>
     <use xlink:href="#DejaVuSans-74" x="274.707031"/>
     <use xlink:href="#DejaVuSans-69" x="313.916016"/>
     <use xlink:href="#DejaVuSans-6f" x="341.699219"/>
     <use xlink:href="#DejaVuSans-6e" x="402.880859"/>
     <use xlink:href="#DejaVuSans-20" x="466.259766"/>
     <use xlink:href="#DejaVuSans-64" x="498.046875"/>
     <use xlink:href="#DejaVuSans-65" x="561.523438"/>
     <use xlink:href="#DejaVuSans-20" x="623.046875"/>
     <use xlink:href="#DejaVuSans-6c" x="654.833984"/>
     <use xlink:href="#DejaVuSans-61" x="682.617188"/>
     <use xlink:href="#DejaVuSans-20" x="743.896484"/>
     <use xlink:href="#DejaVuSans-63" x="775.683594"/>
     <use xlink:href="#DejaVuSans-6f" x="830.664062"/>
     <use xlink:href="#DejaVuSans-6e" x="891.845703"/>
     <use xlink:href="#DejaVuSans-63" x="955.224609"/>
     <use xlink:href="#DejaVuSans-65" x="1010.205078"/>
     <use xlink:href="#DejaVuSans-6e" x="1071.728516"/>
     <use xlink:href="#DejaVuSans-74" x="1135.107422"/>
     <use xlink:href="#DejaVuSans-72" x="1174.316406"/>
     <use xlink:href="#DejaVuSans-61" x="1215.429688"/>
     <use xlink:href="#DejaVuSans-74" x="1276.708984"/>
     <use xlink:href="#DejaVuSans-69" x="1315.917969"/>
     <use xlink:href="#DejaVuSans-6f" x="1343.701172"/>
     <use xlink:href="#DejaVuSans-6e" x="1404.882812"/>
     <use xlink:href="#DejaVuSans-20" x="1468.261719"/>
     <use xlink:href="#DejaVuSans-64" x="1500.048828"/>
     <use xlink:href="#DejaVuSans-65" x="1563.525391"/>
     <use xlink:href="#DejaVuSans-20" x="1625.048828"/>
     <use xlink:href="#DejaVuSans-67" x="1656.835938"/>
     <use xlink:href="#DejaVuSans-61" x="1720.3125"/>
     <use xlink:href="#DejaVuSans-7a" x="1781.591797"/>
     <use xlink:href="#DejaVuSans-20" x="1834.082031"/>
     <use xlink:href="#DejaVuSans-64" x="1865.869141"/>
     <use xlink:href="#DejaVuSans-65" x="1929.345703"/>
     <use xlink:href="#DejaVuSans-20" x="1990.869141"/>
     <use xlink:href="#DejaVuSans-32" x="2022.65625"/>
     <use xlink:href="#DejaVuSans-30" x="2086.279297"/>
     <use xlink:href="#DejaVuSans-31" x="2149.902344"/>
     <use xlink:href="#DejaVuSans-36" x="2213.525391"/>
     <use xlink:href="#DejaVuSans-20" x="2277.148438"/>
     <use xlink:href="#DejaVuSans-e0" x="2308.935547"/>
     <use xlink:href="#DejaVuSans-20" x="2370.214844"/>
     <use xlink:href="#DejaVuSans-32" x="2402.001953"/>
     <use xlink:href="#DejaVuSans-30" x="2465.625"/>
     <use xlink:href="#DejaVuSans-31" x="2529.248047"/>
     <use xlink:href="#DejaVuSans-39" x="2592.871094"/>
    </g>
   </g>
   <g id="legend_1">
    <g id="patch_7">
     <path d="M 54.81 153.025 
L 171.71 153.025 
Q 173.71 153.025 173.71 151.025 
L 173.71 34.6 
Q 173.71 32.6 171.71 32.6 
L 54.81 32.6 
Q 52.81 32.6 52.81 34.6 
L 52.81 151.025 
Q 52.81 153.025 54.81 153.025 
z
" style="fill: #ffffff; opacity: 0.8; stroke: #cccccc; stroke-linejoin: miter"/>
    </g>
    <g id="line2d_23">
     <path d="M 56.81 40.698438 
L 66.81 40.698438 
L 76.81 40.698438 
" style="fill: none; stroke: #1f77b4; stroke-width: 1.5; stroke-linecap: square"/>
    </g>
    <g id="text_19">
     <!-- NOx Anne 2016 -->
     <g transform="translate(84.81 44.198438) scale(0.1 -0.1)">
      <defs>
       <path id="DejaVuSans-4e" d="M 628 4666 
L 1478 4666 
L 3547 763 
L 3547 4666 
L 4159 4666 
L 4159 0 
L 3309 0 
L 1241 3903 
L 1241 0 
L 628 0 
L 628 4666 
z
" transform="scale(0.015625)"/>
       <path id="DejaVuSans-4f" d="M 2522 4238 
Q 1834 4238 1429 3725 
Q 1025 3213 1025 2328 
Q 1025 1447 1429 934 
Q 1834 422 2522 422 
Q 3209 422 3611 934 
Q 4013 1447 4013 2328 
Q 4013 3213 3611 3725 
Q 3209 4238 2522 4238 
z
M 2522 4750 
Q 3503 4750 4090 4092 
Q 4678 3434 4678 2328 
Q 4678 1225 4090 567 
Q 3503 -91 2522 -91 
Q 1538 -91 948 565 
Q 359 1222 359 2328 
Q 359 3434 948 4092 
Q 1538 4750 2522 4750 
z
" transform="scale(0.015625)"/>
       <path id="DejaVuSans-41" d="M 2188 4044 
L 1331 1722 
L 3047 1722 
L 2188 4044 
z
M 1831 4666 
L 2547 4666 
L 4325 0 
L 3669 0 
L 3244 1197 
L 1141 1197 
L 716 0 
L 50 0 
L 1831 4666 
z
" transform="scale(0.015625)"/>
       <path id="DejaVuSans-e9" d="M 3597 1894 
L 3597 1613 
L 953 1613 
Q 991 1019 1311 708 
Q 1631 397 2203 397 
Q 2534 397 2845 478 
Q 3156 559 3463 722 
L 3463 178 
Q 3153 47 2828 -22 
Q 2503 -91 2169 -91 
Q 1331 -91 842 396 
Q 353 884 353 1716 
Q 353 2575 817 3079 
Q 1281 3584 2069 3584 
Q 2775 3584 3186 3129 
Q 3597 2675 3597 1894 
z
M 3022 2063 
Q 3016 2534 2758 2815 
Q 2500 3097 2075 3097 
Q 1594 3097 1305 2825 
Q 1016 2553 972 2059 
L 3022 2063 
z
M 2469 5119 
L 3091 5119 
L 2072 3944 
L 1594 3944 
L 2469 5119 
z
" transform="scale(0.015625)"/>
      </defs>
      <use xlink:href="#DejaVuSans-4e"/>
      <use xlink:href="#DejaVuSans-4f" x="74.804688"/>
      <use xlink:href="#DejaVuSans-78" x="153.515625"/>
      <use xlink:href="#DejaVuSans-20" x="212.695312"/>
      <use xlink:href="#DejaVuSans-41" x="244.482422"/>
      <use xlink:href="#DejaVuSans-6e" x="312.890625"/>
      <use xlink:href="#DejaVuSans-6e" x="376.269531"/>
      <use xlink:href="#DejaVuSans-e9" x="439.648438"/>
      <use xlink:href="#DejaVuSans-65" x="501.171875"/>
      <use xlink:href="#DejaVuSans-20" x="562.695312"/>
      <use xlink:href="#DejaVuSans-32" x="594.482422"/>
      <use xlink:href="#DejaVuSans-30" x="658.105469"/>
      <use xlink:href="#DejaVuSans-31" x="721.728516"/>
      <use xlink:href="#DejaVuSans-36" x="785.351562"/>
     </g>
    </g>
    <g id="line2d_24">
     <path d="M 56.81 55.376563 
L 66.81 55.376563 
L 76.81 55.376563 
" style="fill: none; stroke: #ff7f0e; stroke-width: 1.5; stroke-linecap: square"/>
    </g>
    <g id="text_20">
     <!-- CO Anne 2016 -->
     <g transform="translate(84.81 58.876563) scale(0.1 -0.1)">
      <use xlink:href="#DejaVuSans-43"/>
      <use xlink:href="#DejaVuSans-4f" x="69.824219"/>
      <use xlink:href="#DejaVuSans-20" x="148.535156"/>
      <use xlink:href="#DejaVuSans-41" x="180.322266"/>
      <use xlink:href="#DejaVuSans-6e" x="248.730469"/>
      <use xlink:href="#DejaVuSans-6e" x="312.109375"/>
      <use xlink:href="#DejaVuSans-e9" x="375.488281"/>
      <use xlink:href="#DejaVuSans-65" x="437.011719"/>
      <use xlink:href="#DejaVuSans-20" x="498.535156"/>
      <use xlink:href="#DejaVuSans-32" x="530.322266"/>
      <use xlink:href="#DejaVuSans-30" x="593.945312"/>
      <use xlink:href="#DejaVuSans-31" x="657.568359"/>
      <use xlink:href="#DejaVuSans-36" x="721.191406"/>
     </g>
    </g>
    <g id="line2d_25">
     <path d="M 56.81 70.054688 
L 66.81 70.054688 
L 76.81 70.054688 
" style="fill: none; stroke: #2ca02c; stroke-width: 1.5; stroke-linecap: square"/>
    </g>
    <g id="text_21">
     <!-- NOx Anne 2017 -->
     <g transform="translate(84.81 73.554688) scale(0.1 -0.1)">
      <use xlink:href="#DejaVuSans-4e"/>
      <use xlink:href="#DejaVuSans-4f" x="74.804688"/>
      <use xlink:href="#DejaVuSans-78" x="153.515625"/>
      <use xlink:href="#DejaVuSans-20" x="212.695312"/>
      <use xlink:href="#DejaVuSans-41" x="244.482422"/>
      <use xlink:href="#DejaVuSans-6e" x="312.890625"/>
      <use xlink:href="#DejaVuSans-6e" x="376.269531"/>
      <use xlink:href="#DejaVuSans-e9" x="439.648438"/>
      <use xlink:href="#DejaVuSans-65" x="501.171875"/>
      <use xlink:href="#DejaVuSans-20" x="562.695312"/>
      <use xlink:href="#DejaVuSans-32" x="594.482422"/>
      <use xlink:href="#DejaVuSans-30" x="658.105469"/>
      <use xlink:href="#DejaVuSans-31" x="721.728516"/>
      <use xlink:href="#DejaVuSans-37" x="785.351562"/>
     </g>
    </g>
    <g id="line2d_26">
     <path d="M 56.81 84.732813 
L 66.81 84.732813 
L 76.81 84.732813 
" style="fill: none; stroke: #d62728; stroke-width: 1.5; stroke-linecap: square"/>
    </g>
    <g id="text_22">
     <!-- CO Anne 2017 -->
     <g transform="translate(84.81 88.232813) scale(0.1 -0.1)">
      <use xlink:href="#DejaVuSans-43"/>
      <use xlink:href="#DejaVuSans-4f" x="69.824219"/>
      <use xlink:href="#DejaVuSans-20" x="148.535156"/>
      <use xlink:href="#DejaVuSans-41" x="180.322266"/>
      <use xlink:href="#DejaVuSans-6e" x="248.730469"/>
      <use xlink:href="#DejaVuSans-6e" x="312.109375"/>
      <use xlink:href="#DejaVuSans-e9" x="375.488281"/>
      <use xlink:href="#DejaVuSans-65" x="437.011719"/>
      <use xlink:href="#DejaVuSans-20" x="498.535156"/>
      <use xlink:href="#DejaVuSans-32" x="530.322266"/>
      <use xlink:href="#DejaVuSans-30" x="593.945312"/>
      <use xlink:href="#DejaVuSans-31" x="657.568359"/>
      <use xlink:href="#DejaVuSans-37" x="721.191406"/>
     </g>
    </g>
    <g id="line2d_27">
     <path d="M 56.81 99.410938 
L 66.81 99.410938 
L 76.81 99.410938 
" style="fill: none; stroke: #9467bd; stroke-width: 1.5; stroke-linecap: square"/>
    </g>
    <g id="text_23">
     <!-- NOx Anne 2018 -->
     <g transform="translate(84.81 102.910938) scale(0.1 -0.1)">
      <use xlink:href="#DejaVuSans-4e"/>
      <use xlink:href="#DejaVuSans-4f" x="74.804688"/>
      <use xlink:href="#DejaVuSans-78" x="153.515625"/>
      <use xlink:href="#DejaVuSans-20" x="212.695312"/>
      <use xlink:href="#DejaVuSans-41" x="244.482422"/>
      <use xlink:href="#DejaVuSans-6e" x="312.890625"/>
      <use xlink:href="#DejaVuSans-6e" x="376.269531"/>
      <use xlink:href="#DejaVuSans-e9" x="439.648438"/>
      <use xlink:href="#DejaVuSans-65" x="501.171875"/>
      <use xlink:href="#DejaVuSans-20" x="562.695312"/>
      <use xlink:href="#DejaVuSans-32" x="594.482422"/>
      <use xlink:href="#DejaVuSans-30" x="658.105469"/>
      <use xlink:href="#DejaVuSans-31" x="721.728516"/>
      <use xlink:href="#DejaVuSans-38" x="785.351562"/>
     </g>
    </g>
    <g id="line2d_28">
     <path d="M 56.81 114.089063 
L 66.81 114.089063 
L 76.81 114.089063 
" style="fill: none; stroke: #8c564b; stroke-width: 1.5; stroke-linecap: square"/>
    </g>
    <g id="text_24">
     <!-- CO Anne 2018 -->
     <g transform="translate(84.81 117.589063) scale(0.1 -0.1)">
      <use xlink:href="#DejaVuSans-43"/>
      <use xlink:href="#DejaVuSans-4f" x="69.824219"/>
      <use xlink:href="#DejaVuSans-20" x="148.535156"/>
      <use xlink:href="#DejaVuSans-41" x="180.322266"/>
      <use xlink:href="#DejaVuSans-6e" x="248.730469"/>
      <use xlink:href="#DejaVuSans-6e" x="312.109375"/>
      <use xlink:href="#DejaVuSans-e9" x="375.488281"/>
      <use xlink:href="#DejaVuSans-65" x="437.011719"/>
      <use xlink:href="#DejaVuSans-20" x="498.535156"/>
      <use xlink:href="#DejaVuSans-32" x="530.322266"/>
      <use xlink:href="#DejaVuSans-30" x="593.945312"/>
      <use xlink:href="#DejaVuSans-31" x="657.568359"/>
      <use xlink:href="#DejaVuSans-38" x="721.191406"/>
     </g>
    </g>
    <g id="line2d_29">
     <path d="M 56.81 128.767188 
L 66.81 128.767188 
L 76.81 128.767188 
" style="fill: none; stroke: #e377c2; stroke-width: 1.5; stroke-linecap: square"/>
    </g>
    <g id="text_25">
     <!-- NOx Anne 2019 -->
     <g transform="translate(84.81 132.267188) scale(0.1 -0.1)">
      <use xlink:href="#DejaVuSans-4e"/>
      <use xlink:href="#DejaVuSans-4f" x="74.804688"/>
      <use xlink:href="#DejaVuSans-78" x="153.515625"/>
      <use xlink:href="#DejaVuSans-20" x="212.695312"/>
      <use xlink:href="#DejaVuSans-41" x="244.482422"/>
      <use xlink:href="#DejaVuSans-6e" x="312.890625"/>
      <use xlink:href="#DejaVuSans-6e" x="376.269531"/>
      <use xlink:href="#DejaVuSans-e9" x="439.648438"/>
      <use xlink:href="#DejaVuSans-65" x="501.171875"/>
      <use xlink:href="#DejaVuSans-20" x="562.695312"/>
      <use xlink:href="#DejaVuSans-32" x="594.482422"/>
      <use xlink:href="#DejaVuSans-30" x="658.105469"/>
      <use xlink:href="#DejaVuSans-31" x="721.728516"/>
      <use xlink:href="#DejaVuSans-39" x="785.351562"/>
     </g>
    </g>
    <g id="line2d_30">
     <path d="M 56.81 143.445312 
L 66.81 143.445312 
L 76.81 143.445312 
" style="fill: none; stroke: #7f7f7f; stroke-width: 1.5; stroke-linecap: square"/>
    </g>
    <g id="text_26">
     <!-- CO Anne 2019 -->
     <g transform="translate(84.81 146.945312) scale(0.1 -0.1)">
      <use xlink:href="#DejaVuSans-43"/>
      <use xlink:href="#DejaVuSans-4f" x="69.824219"/>
      <use xlink:href="#DejaVuSans-20" x="148.535156"/>
      <use xlink:href="#DejaVuSans-41" x="180.322266"/>
      <use xlink:href="#DejaVuSans-6e" x="248.730469"/>
      <use xlink:href="#DejaVuSans-6e" x="312.109375"/>
      <use xlink:href="#DejaVuSans-e9" x="375.488281"/>
      <use xlink:href="#DejaVuSans-65" x="437.011719"/>
      <use xlink:href="#DejaVuSans-20" x="498.535156"/>
      <use xlink:href="#DejaVuSans-32" x="530.322266"/>
      <use xlink:href="#DejaVuSans-30" x="593.945312"/>
      <use xlink:href="#DejaVuSans-31" x="657.568359"/>
      <use xlink:href="#DejaVuSans-39" x="721.191406"/>
     </g>
    </g>
   </g>
  </g>
 </g>
 <defs>
  <clipPath id="pcd5a6a1446">
   <rect x="47.81" y="27.6" width="661.39" height="218.44"/>
  </clipPath>
 </defs>
</svg>
